G04*
G04 #@! TF.GenerationSoftware,Altium Limited,Altium Designer,20.0.1 (14)*
G04*
G04 Layer_Physical_Order=2*
G04 Layer_Color=16711680*
%FSLAX25Y25*%
%MOIN*%
G70*
G01*
G75*
%ADD10C,0.01000*%
%ADD23C,0.03937*%
%ADD108C,0.02362*%
%ADD110C,0.04724*%
%ADD111R,0.05906X0.05906*%
%ADD112C,0.05906*%
%ADD113C,0.08000*%
%ADD114R,0.08000X0.08000*%
%ADD115R,0.05906X0.05906*%
%ADD116R,0.05512X0.05512*%
%ADD117C,0.05512*%
%ADD118O,0.19685X0.09843*%
%ADD119O,0.17717X0.08858*%
%ADD120O,0.08858X0.17717*%
%ADD121R,0.07874X0.07874*%
%ADD122C,0.07874*%
%ADD123O,0.07087X0.04724*%
%ADD124O,0.09843X0.15748*%
%ADD125C,0.03150*%
%ADD126C,0.02362*%
G36*
X502281Y347716D02*
X502541Y346405D01*
X503285Y345292D01*
X509741Y338836D01*
X510853Y338093D01*
X512165Y337832D01*
X514079D01*
Y337307D01*
X521984D01*
Y337832D01*
X527674D01*
Y286696D01*
X521984D01*
Y287220D01*
X514079D01*
Y279315D01*
X521984D01*
Y279840D01*
X527674D01*
Y230593D01*
X521984D01*
Y231118D01*
X514079D01*
Y223213D01*
X521984D01*
Y223737D01*
X528031D01*
X528031Y48307D01*
X526741Y47017D01*
X526279Y47208D01*
X526279Y54528D01*
X526279Y54528D01*
X526110Y54937D01*
X525962Y55293D01*
X525962Y55293D01*
X523600Y57655D01*
X523600Y57655D01*
X522835Y57972D01*
X522835Y57972D01*
X514803Y57972D01*
X514803Y57972D01*
X514038Y57655D01*
X514038Y57655D01*
X511479Y55096D01*
X511162Y54331D01*
X511162Y54331D01*
X511162Y49700D01*
X488882Y27421D01*
X478819Y27421D01*
X478819Y27421D01*
X478819Y27421D01*
X478488Y27284D01*
X478053Y27104D01*
X478053Y27104D01*
X475258Y24309D01*
X475258Y24309D01*
X475258Y24308D01*
X474941Y23543D01*
X474941Y23543D01*
Y15984D01*
X474941Y15984D01*
X475258Y15219D01*
X475258Y15219D01*
X477817Y12660D01*
X477817Y12660D01*
X478134Y12528D01*
X478583Y12343D01*
X478583Y12343D01*
X491414Y12343D01*
X491605Y11881D01*
X483228Y3504D01*
X322868Y3504D01*
X322667Y3995D01*
X322886Y4249D01*
X447126D01*
X448438Y4510D01*
X449550Y5253D01*
X450293Y6365D01*
X450554Y7677D01*
Y66535D01*
Y137795D01*
X450293Y139107D01*
X449550Y140219D01*
X448438Y140962D01*
X447126Y141223D01*
X439780D01*
Y142732D01*
X429906D01*
Y132858D01*
X439780D01*
Y134367D01*
X443698D01*
Y69964D01*
X439780D01*
Y71473D01*
X429995D01*
Y88019D01*
X430495Y88171D01*
X431283Y86992D01*
X432916Y85901D01*
X434842Y85517D01*
X436769Y85901D01*
X438402Y86992D01*
X439493Y88625D01*
X439876Y90551D01*
X439493Y92478D01*
X438402Y94111D01*
X436769Y95202D01*
X434842Y95585D01*
X432916Y95202D01*
X431283Y94111D01*
X430495Y92931D01*
X429995Y93083D01*
Y110258D01*
X430528Y110614D01*
X431619Y112247D01*
X432002Y114173D01*
X431619Y116100D01*
X430528Y117733D01*
X428895Y118824D01*
X426968Y119207D01*
X425042Y118824D01*
X423409Y117733D01*
X422318Y116100D01*
X421935Y114173D01*
X422318Y112247D01*
X423409Y110614D01*
X423942Y110258D01*
Y46829D01*
X423409Y46473D01*
X423053Y45940D01*
X410673D01*
X410614Y46023D01*
X410737Y46702D01*
X411021Y46892D01*
X411503Y47613D01*
X411673Y48465D01*
X411503Y49316D01*
X411021Y50037D01*
X410300Y50519D01*
X409449Y50688D01*
X409398Y50678D01*
X371713Y88363D01*
X371905Y88825D01*
X402218D01*
X402246Y88782D01*
X402968Y88300D01*
X403819Y88130D01*
X404670Y88300D01*
X405391Y88782D01*
X405873Y89503D01*
X406043Y90354D01*
X405873Y91205D01*
X405391Y91927D01*
X404670Y92409D01*
X403819Y92578D01*
X402968Y92409D01*
X402246Y91927D01*
X402218Y91884D01*
X369582D01*
X369390Y92346D01*
X424137Y147093D01*
X440669D01*
X441255Y147209D01*
X441751Y147541D01*
X449904Y155693D01*
X450339Y155780D01*
X451061Y156262D01*
X451543Y156984D01*
X451712Y157835D01*
X451543Y158686D01*
X451061Y159407D01*
X450339Y159889D01*
X449488Y160058D01*
X448637Y159889D01*
X447916Y159407D01*
X447434Y158686D01*
X447264Y157835D01*
X447340Y157455D01*
X440036Y150151D01*
X423504D01*
X422919Y150035D01*
X422423Y149704D01*
X366390Y93671D01*
X222117D01*
X221926Y94133D01*
X231948Y104155D01*
X232279Y104651D01*
X232396Y105236D01*
Y109225D01*
X232439Y109254D01*
X232921Y109976D01*
X233090Y110827D01*
X232921Y111678D01*
X232439Y112399D01*
X231717Y112881D01*
X230866Y113051D01*
X230015Y112881D01*
X229294Y112399D01*
X228812Y111678D01*
X228642Y110827D01*
X228812Y109976D01*
X229294Y109254D01*
X229337Y109225D01*
Y105870D01*
X219012Y95545D01*
X209754D01*
X209547Y96045D01*
X216593Y103092D01*
X216925Y103588D01*
X217041Y104173D01*
Y114816D01*
X217084Y114845D01*
X217566Y115566D01*
X217736Y116417D01*
X217566Y117268D01*
X217084Y117990D01*
X216363Y118472D01*
X215512Y118641D01*
X214661Y118472D01*
X213939Y117990D01*
X213457Y117268D01*
X213288Y116417D01*
X213457Y115566D01*
X213939Y114845D01*
X213982Y114816D01*
Y104807D01*
X207359Y98183D01*
X201418D01*
X201336Y98305D01*
X200615Y98787D01*
X199764Y98956D01*
X198913Y98787D01*
X198191Y98305D01*
X197798Y97716D01*
X197487Y97707D01*
X197301Y97731D01*
X197262Y97745D01*
X196809Y98423D01*
X196087Y98905D01*
X195236Y99074D01*
X194385Y98905D01*
X193664Y98423D01*
X193182Y97701D01*
X193012Y96850D01*
X193182Y95999D01*
X193364Y95726D01*
X192976Y95408D01*
X185821Y102563D01*
Y184878D01*
X194004Y193062D01*
X194055Y193052D01*
X194906Y193221D01*
X195628Y193703D01*
X196110Y194425D01*
X196279Y195276D01*
X196110Y196127D01*
X195628Y196848D01*
X194906Y197330D01*
X194397Y197431D01*
X194059Y197739D01*
X194062Y197969D01*
X194192Y198622D01*
X194023Y199473D01*
X193541Y200195D01*
X193094Y200493D01*
X193092Y201093D01*
X193462Y201341D01*
X193944Y202062D01*
X194114Y202913D01*
X193944Y203764D01*
X193462Y204486D01*
X192741Y204968D01*
X191890Y205137D01*
X191039Y204968D01*
X190317Y204486D01*
X189835Y203764D01*
X189666Y202913D01*
X189676Y202863D01*
X178942Y192129D01*
X178611Y191632D01*
X178494Y191047D01*
Y100488D01*
X178611Y99903D01*
X178942Y99407D01*
X190863Y87485D01*
X191360Y87154D01*
X191945Y87037D01*
X368713D01*
X407235Y48515D01*
X407225Y48465D01*
X407394Y47613D01*
X407876Y46892D01*
X408160Y46702D01*
X408283Y46023D01*
X408224Y45940D01*
X375787D01*
X374629Y45710D01*
X373647Y45054D01*
X372991Y44072D01*
X372761Y42913D01*
X372991Y41755D01*
X373647Y40773D01*
X374629Y40117D01*
X375787Y39887D01*
X423053D01*
X423409Y39354D01*
X425042Y38263D01*
X426968Y37880D01*
X428895Y38263D01*
X430528Y39354D01*
X431619Y40987D01*
X432002Y42913D01*
X431619Y44840D01*
X430528Y46473D01*
X429995Y46829D01*
Y61598D01*
X439780D01*
Y63107D01*
X443698D01*
Y11105D01*
X390633D01*
Y12598D01*
X390372Y13910D01*
X389629Y15022D01*
X388517Y15766D01*
X387205Y16026D01*
X385893Y15766D01*
X384781Y15022D01*
X384038Y13910D01*
X383777Y12598D01*
Y11105D01*
X320571D01*
Y38583D01*
X320253Y39348D01*
X319488Y39665D01*
X243898D01*
X243132Y39348D01*
X242815Y38583D01*
Y3504D01*
X107992Y3504D01*
X107992Y296034D01*
X108454Y296226D01*
X115962Y288718D01*
X117074Y287975D01*
X118386Y287714D01*
X143842D01*
X144284Y287418D01*
X145827Y287111D01*
X147369Y287418D01*
X147811Y287714D01*
X179670D01*
X180070Y287446D01*
X181535Y287155D01*
X183001Y287446D01*
X184243Y288276D01*
X184567Y288760D01*
X187228D01*
X207461Y268528D01*
Y168051D01*
X195590D01*
X194739Y167881D01*
X194018Y167399D01*
X193536Y166678D01*
X193367Y165827D01*
X193536Y164976D01*
X194018Y164254D01*
X194739Y163772D01*
X195590Y163603D01*
X209685D01*
X210090Y163684D01*
X210496Y163603D01*
X224236D01*
X226813Y161026D01*
X226813Y161026D01*
X227535Y160544D01*
X228386Y160375D01*
X228386Y160375D01*
X252519D01*
X252938Y159749D01*
X254245Y158875D01*
X255787Y158568D01*
X257330Y158875D01*
X258637Y159749D01*
X259511Y161056D01*
X259818Y162598D01*
X259511Y164141D01*
X258637Y165448D01*
X257330Y166322D01*
X255787Y166629D01*
X254245Y166322D01*
X252938Y165448D01*
X252519Y164822D01*
X244310D01*
Y183961D01*
X256887Y196538D01*
X256887Y196538D01*
X257369Y197259D01*
X257539Y198110D01*
X257369Y198961D01*
X256887Y199683D01*
X256166Y200165D01*
X255315Y200334D01*
X254464Y200165D01*
X253743Y199683D01*
X253742Y199683D01*
X240514Y186454D01*
X240032Y185733D01*
X239863Y184882D01*
X239863Y184882D01*
Y164822D01*
X229307D01*
X226730Y167399D01*
X226009Y167881D01*
X225157Y168051D01*
X225157Y168051D01*
X211909D01*
Y200640D01*
X212409Y200826D01*
X213007Y200426D01*
X213858Y200256D01*
X214510Y200386D01*
X215010Y200071D01*
Y199393D01*
X214896Y199317D01*
X214414Y198595D01*
X214245Y197744D01*
X214414Y196893D01*
X214896Y196172D01*
X215617Y195689D01*
X216469Y195520D01*
X217319Y195689D01*
X218041Y196172D01*
X218523Y196893D01*
X218692Y197744D01*
X218523Y198595D01*
X218069Y199275D01*
Y200451D01*
X218569Y200719D01*
X219007Y200426D01*
X219858Y200256D01*
X220518Y200388D01*
X221018Y200076D01*
Y199345D01*
X220975Y199317D01*
X220493Y198595D01*
X220323Y197744D01*
X220493Y196893D01*
X220975Y196172D01*
X221696Y195689D01*
X222547Y195520D01*
X223398Y195689D01*
X224120Y196172D01*
X224602Y196893D01*
X224771Y197744D01*
X224602Y198595D01*
X224120Y199317D01*
X224077Y199345D01*
Y326075D01*
X223960Y326660D01*
X223629Y327156D01*
X207947Y342838D01*
Y360702D01*
X208425Y360847D01*
X208725Y360398D01*
X210033Y359525D01*
X211575Y359218D01*
X213117Y359525D01*
X214425Y360398D01*
X215298Y361706D01*
X215605Y363248D01*
X215298Y364790D01*
X214425Y366098D01*
X213117Y366971D01*
X211575Y367278D01*
X210033Y366971D01*
X208725Y366098D01*
X208425Y365649D01*
X207947Y365794D01*
Y368406D01*
X207830Y368991D01*
X207499Y369487D01*
X205291Y371695D01*
X205298Y371706D01*
X205605Y373248D01*
X205298Y374790D01*
X204425Y376098D01*
X203117Y376971D01*
X201575Y377278D01*
X200032Y376971D01*
X198725Y376098D01*
X197851Y374790D01*
X197545Y373248D01*
X197851Y371706D01*
X198725Y370398D01*
X200032Y369525D01*
X201575Y369218D01*
X203117Y369525D01*
X203128Y369532D01*
X204888Y367772D01*
Y366238D01*
X204855Y366228D01*
X204388Y366122D01*
X203117Y366971D01*
X201575Y367278D01*
X200032Y366971D01*
X198725Y366098D01*
X197851Y364790D01*
X197545Y363248D01*
X197851Y361706D01*
X198725Y360398D01*
X200032Y359525D01*
X200045Y359522D01*
Y345114D01*
X199545Y344880D01*
X199231Y345090D01*
X198646Y345207D01*
X134161D01*
X128498Y350870D01*
Y360584D01*
X128976Y360729D01*
X129198Y360398D01*
X130505Y359525D01*
X132047Y359218D01*
X133589Y359525D01*
X134897Y360398D01*
X135771Y361706D01*
X136077Y363248D01*
X135771Y364790D01*
X134897Y366098D01*
X133589Y366971D01*
X132047Y367278D01*
X130505Y366971D01*
X129198Y366098D01*
X128976Y365767D01*
X128498Y365912D01*
Y368327D01*
X128382Y368912D01*
X128050Y369408D01*
X125763Y371695D01*
X125771Y371706D01*
X126077Y373248D01*
X125771Y374790D01*
X124897Y376098D01*
X123590Y376971D01*
X122047Y377278D01*
X120505Y376971D01*
X119197Y376098D01*
X118324Y374790D01*
X118017Y373248D01*
X118324Y371706D01*
X119197Y370398D01*
X120505Y369525D01*
X122047Y369218D01*
X123590Y369525D01*
X123600Y369532D01*
X125439Y367693D01*
Y366148D01*
X124961Y366003D01*
X124897Y366098D01*
X123590Y366971D01*
X122047Y367278D01*
X120505Y366971D01*
X119197Y366098D01*
X118324Y364790D01*
X118017Y363248D01*
X118324Y361706D01*
X119197Y360398D01*
X120505Y359525D01*
X120518Y359522D01*
Y350945D01*
X120634Y350360D01*
X120966Y349863D01*
X130730Y340100D01*
X131226Y339768D01*
X131811Y339652D01*
X197359D01*
X212329Y324681D01*
Y269900D01*
X211829Y269851D01*
X211740Y270300D01*
X211258Y271021D01*
X211258Y271021D01*
X189722Y292557D01*
X189001Y293039D01*
X188150Y293208D01*
X188149Y293208D01*
X184567D01*
X184243Y293692D01*
X183001Y294522D01*
X181535Y294814D01*
X180309Y294570D01*
X147811D01*
X147369Y294865D01*
X145827Y295172D01*
X144284Y294865D01*
X143842Y294570D01*
X119806D01*
X107992Y306383D01*
Y382638D01*
X149131D01*
Y366676D01*
X144032D01*
X143589Y366971D01*
X142047Y367278D01*
X140505Y366971D01*
X139198Y366098D01*
X138324Y364790D01*
X138017Y363248D01*
X138324Y361706D01*
X139198Y360398D01*
X140505Y359525D01*
X142047Y359218D01*
X143589Y359525D01*
X144032Y359820D01*
X152559D01*
X153871Y360081D01*
X154983Y360824D01*
X155726Y361936D01*
X155987Y363248D01*
Y382638D01*
X227989Y382638D01*
Y366676D01*
X223559D01*
X223117Y366971D01*
X221575Y367278D01*
X220033Y366971D01*
X218725Y366098D01*
X217851Y364790D01*
X217545Y363248D01*
X217851Y361706D01*
X218725Y360398D01*
X220033Y359525D01*
X221575Y359218D01*
X223117Y359525D01*
X223559Y359820D01*
X231417D01*
X232729Y360081D01*
X233841Y360824D01*
X234584Y361936D01*
X234845Y363248D01*
Y382638D01*
X305430D01*
Y366676D01*
X302299D01*
X301857Y366971D01*
X300315Y367278D01*
X298773Y366971D01*
X297465Y366098D01*
X296591Y364790D01*
X296285Y363248D01*
X296591Y361706D01*
X297465Y360398D01*
X298773Y359525D01*
X300315Y359218D01*
X301857Y359525D01*
X302299Y359820D01*
X308858D01*
X310170Y360081D01*
X311282Y360824D01*
X312025Y361936D01*
X312286Y363248D01*
Y382638D01*
X385273Y382638D01*
Y366676D01*
X381039D01*
X380597Y366971D01*
X379055Y367278D01*
X377513Y366971D01*
X376205Y366098D01*
X375332Y364790D01*
X375025Y363248D01*
X375332Y361706D01*
X376205Y360398D01*
X377513Y359525D01*
X379055Y359218D01*
X380597Y359525D01*
X381039Y359820D01*
X388701D01*
X390013Y360081D01*
X391125Y360824D01*
X391868Y361936D01*
X392129Y363248D01*
Y382638D01*
X502281Y382638D01*
Y347716D01*
D02*
G37*
G36*
X525197Y54528D02*
X525197Y45590D01*
X493032Y13425D01*
X478583Y13425D01*
X476024Y15984D01*
Y23543D01*
X478819Y26339D01*
X489331Y26339D01*
X512244Y49252D01*
X512244Y54331D01*
X514803Y56890D01*
X522835Y56890D01*
X525197Y54528D01*
D02*
G37*
G36*
X319488Y8740D02*
X322402Y5315D01*
X319488Y2756D01*
X243898D01*
Y38583D01*
X319488D01*
Y8740D01*
D02*
G37*
%LPC*%
G36*
X383008Y377201D02*
X379555D01*
Y373748D01*
X383008D01*
Y377201D01*
D02*
G37*
G36*
X225528D02*
X222075D01*
Y373748D01*
X225528D01*
Y377201D01*
D02*
G37*
G36*
X146000D02*
X142547D01*
Y373748D01*
X146000D01*
Y377201D01*
D02*
G37*
G36*
X304268D02*
X300815D01*
Y373748D01*
X304268D01*
Y377201D01*
D02*
G37*
G36*
X299815D02*
X296362D01*
Y373748D01*
X299815D01*
Y377201D01*
D02*
G37*
G36*
X141547D02*
X138094D01*
Y373748D01*
X141547D01*
Y377201D01*
D02*
G37*
G36*
X378555D02*
X375102D01*
Y373748D01*
X378555D01*
Y377201D01*
D02*
G37*
G36*
X221075D02*
X217622D01*
Y373748D01*
X221075D01*
Y377201D01*
D02*
G37*
G36*
X493925Y376214D02*
Y372783D01*
X497356D01*
X497149Y373826D01*
X496275Y375133D01*
X494968Y376007D01*
X493925Y376214D01*
D02*
G37*
G36*
X492925D02*
X491883Y376007D01*
X490575Y375133D01*
X489702Y373826D01*
X489494Y372783D01*
X492925D01*
Y376214D01*
D02*
G37*
G36*
X425461D02*
Y372783D01*
X428891D01*
X428684Y373826D01*
X427810Y375133D01*
X426503Y376007D01*
X425461Y376214D01*
D02*
G37*
G36*
X424461Y376214D02*
X423418Y376007D01*
X422111Y375133D01*
X421237Y373826D01*
X421030Y372783D01*
X424461D01*
Y376214D01*
D02*
G37*
G36*
X383008Y372748D02*
X379555D01*
Y369295D01*
X383008D01*
Y372748D01*
D02*
G37*
G36*
X378555D02*
X375102D01*
Y369295D01*
X378555D01*
Y372748D01*
D02*
G37*
G36*
X304268D02*
X300815D01*
Y369295D01*
X304268D01*
Y372748D01*
D02*
G37*
G36*
X299815D02*
X296362D01*
Y369295D01*
X299815D01*
Y372748D01*
D02*
G37*
G36*
X225528D02*
X222075D01*
Y369295D01*
X225528D01*
Y372748D01*
D02*
G37*
G36*
X221075D02*
X217622D01*
Y369295D01*
X221075D01*
Y372748D01*
D02*
G37*
G36*
X146000D02*
X142547D01*
Y369295D01*
X146000D01*
Y372748D01*
D02*
G37*
G36*
X141547D02*
X138094D01*
Y369295D01*
X141547D01*
Y372748D01*
D02*
G37*
G36*
X281653Y380781D02*
X277874D01*
X277289Y380665D01*
X276793Y380333D01*
X272737Y376278D01*
X272406Y375782D01*
X272289Y375197D01*
Y370712D01*
X234296Y332719D01*
X233965Y332223D01*
X233849Y331638D01*
X233849Y204082D01*
X233805Y204053D01*
X233323Y203331D01*
X233154Y202480D01*
X233323Y201629D01*
X233805Y200908D01*
X234527Y200426D01*
X235378Y200256D01*
X236116Y200403D01*
X236616Y200129D01*
Y199345D01*
X236573Y199317D01*
X236091Y198595D01*
X235922Y197744D01*
X236091Y196893D01*
X236573Y196172D01*
X237295Y195689D01*
X238146Y195520D01*
X238997Y195689D01*
X239718Y196172D01*
X240200Y196893D01*
X240370Y197744D01*
X240200Y198595D01*
X239718Y199317D01*
X239675Y199345D01*
Y200394D01*
X240175Y200661D01*
X240527Y200426D01*
X241378Y200256D01*
X242026Y200385D01*
X242526Y200068D01*
Y199436D01*
X242483Y199407D01*
X242001Y198686D01*
X241831Y197835D01*
X242001Y196984D01*
X242483Y196262D01*
X243204Y195780D01*
X244055Y195611D01*
X244906Y195780D01*
X245628Y196262D01*
X246110Y196984D01*
X246279Y197835D01*
X246110Y198686D01*
X245628Y199407D01*
X245585Y199436D01*
Y201350D01*
X245588Y201370D01*
Y203591D01*
X245585Y203611D01*
Y251256D01*
X350176Y355848D01*
X350507Y356344D01*
X350624Y356929D01*
Y362654D01*
X357502Y369532D01*
X357513Y369525D01*
X359055Y369218D01*
X360597Y369525D01*
X361905Y370398D01*
X362087Y370670D01*
X362565Y370525D01*
Y368862D01*
X360644Y366940D01*
X360597Y366971D01*
X359055Y367278D01*
X357513Y366971D01*
X356205Y366098D01*
X355332Y364790D01*
X355025Y363248D01*
X355332Y361706D01*
X356205Y360398D01*
X357513Y359525D01*
X359055Y359218D01*
X360597Y359525D01*
X361905Y360398D01*
X362778Y361706D01*
X363085Y363248D01*
X362785Y364756D01*
X365176Y367147D01*
X365507Y367643D01*
X365624Y368228D01*
Y370407D01*
X366102Y370552D01*
X366205Y370398D01*
X367513Y369525D01*
X369055Y369218D01*
X370597Y369525D01*
X371905Y370398D01*
X372779Y371706D01*
X373085Y373248D01*
X372779Y374790D01*
X371905Y376098D01*
X370597Y376971D01*
X369055Y377278D01*
X367513Y376971D01*
X366205Y376098D01*
X366102Y375944D01*
X365624Y376089D01*
Y376654D01*
X365507Y377239D01*
X365176Y377735D01*
X362617Y380294D01*
X362121Y380626D01*
X361535Y380742D01*
X353937D01*
X353352Y380626D01*
X352855Y380294D01*
X345375Y372814D01*
X345044Y372318D01*
X344927Y371732D01*
Y357917D01*
X240297Y253286D01*
X240175Y253104D01*
X239675Y253256D01*
X239675Y330445D01*
X278762Y369532D01*
X278773Y369525D01*
X280315Y369218D01*
X281857Y369525D01*
X283165Y370398D01*
X283228Y370494D01*
X283707Y370348D01*
Y368803D01*
X281868Y366964D01*
X281857Y366971D01*
X280315Y367278D01*
X278773Y366971D01*
X277465Y366098D01*
X276591Y364790D01*
X276285Y363248D01*
X276591Y361706D01*
X277465Y360398D01*
X278773Y359525D01*
X280315Y359218D01*
X281857Y359525D01*
X283165Y360398D01*
X284038Y361706D01*
X284345Y363248D01*
X284038Y364790D01*
X284031Y364801D01*
X286318Y367088D01*
X286649Y367584D01*
X286766Y368169D01*
Y370584D01*
X287244Y370729D01*
X287465Y370398D01*
X288773Y369525D01*
X290315Y369218D01*
X291857Y369525D01*
X293165Y370398D01*
X294038Y371706D01*
X294345Y373248D01*
X294038Y374790D01*
X293165Y376098D01*
X291857Y376971D01*
X290315Y377278D01*
X288773Y376971D01*
X287465Y376098D01*
X287253Y375781D01*
X286722Y375886D01*
X286649Y376255D01*
X286318Y376751D01*
X282735Y380333D01*
X282239Y380665D01*
X281653Y380781D01*
D02*
G37*
G36*
X211575Y377278D02*
X210033Y376971D01*
X208725Y376098D01*
X207851Y374790D01*
X207545Y373248D01*
X207851Y371706D01*
X208725Y370398D01*
X210033Y369525D01*
X211575Y369218D01*
X213117Y369525D01*
X214425Y370398D01*
X215298Y371706D01*
X215605Y373248D01*
X215298Y374790D01*
X214425Y376098D01*
X213117Y376971D01*
X211575Y377278D01*
D02*
G37*
G36*
X132047D02*
X130505Y376971D01*
X129198Y376098D01*
X128324Y374790D01*
X128017Y373248D01*
X128324Y371706D01*
X129198Y370398D01*
X130505Y369525D01*
X132047Y369218D01*
X133589Y369525D01*
X134897Y370398D01*
X135771Y371706D01*
X136077Y373248D01*
X135771Y374790D01*
X134897Y376098D01*
X133589Y376971D01*
X132047Y377278D01*
D02*
G37*
G36*
X428891Y371783D02*
X425461D01*
Y368353D01*
X426503Y368560D01*
X427810Y369434D01*
X428684Y370741D01*
X428891Y371783D01*
D02*
G37*
G36*
X497356Y371783D02*
X493925D01*
Y368353D01*
X494968Y368560D01*
X496275Y369434D01*
X497149Y370741D01*
X497356Y371783D01*
D02*
G37*
G36*
X492925D02*
X489494D01*
X489702Y370741D01*
X490575Y369434D01*
X491883Y368560D01*
X492925Y368353D01*
Y371783D01*
D02*
G37*
G36*
X424461Y371783D02*
X421030D01*
X421237Y370741D01*
X422111Y369434D01*
X423418Y368560D01*
X424461Y368353D01*
Y371783D01*
D02*
G37*
G36*
X477378Y376236D02*
X469472D01*
Y368331D01*
X477378D01*
Y376236D01*
D02*
G37*
G36*
X483425Y376314D02*
X481883Y376007D01*
X480575Y375133D01*
X479702Y373826D01*
X479395Y372284D01*
X479702Y370741D01*
X480575Y369434D01*
X481883Y368560D01*
X483425Y368253D01*
X484968Y368560D01*
X486275Y369434D01*
X487149Y370741D01*
X487455Y372284D01*
X487149Y373826D01*
X486275Y375133D01*
X484968Y376007D01*
X483425Y376314D01*
D02*
G37*
G36*
X369055Y367278D02*
X367513Y366971D01*
X366205Y366098D01*
X365332Y364790D01*
X365025Y363248D01*
X365332Y361706D01*
X366205Y360398D01*
X367513Y359525D01*
X369055Y359218D01*
X370597Y359525D01*
X371905Y360398D01*
X372779Y361706D01*
X373085Y363248D01*
X372779Y364790D01*
X371905Y366098D01*
X370597Y366971D01*
X369055Y367278D01*
D02*
G37*
G36*
X290315D02*
X288773Y366971D01*
X287465Y366098D01*
X286592Y364790D01*
X286285Y363248D01*
X286592Y361706D01*
X287465Y360398D01*
X288773Y359525D01*
X290315Y359218D01*
X291857Y359525D01*
X293165Y360398D01*
X294038Y361706D01*
X294345Y363248D01*
X294038Y364790D01*
X293165Y366098D01*
X291857Y366971D01*
X290315Y367278D01*
D02*
G37*
G36*
X518032Y335290D02*
X516489Y334983D01*
X515182Y334110D01*
X514308Y332802D01*
X514001Y331260D01*
X514308Y329717D01*
X515182Y328410D01*
X516489Y327536D01*
X518032Y327230D01*
X519574Y327536D01*
X520881Y328410D01*
X521755Y329717D01*
X522062Y331260D01*
X521755Y332802D01*
X520881Y334110D01*
X519574Y334983D01*
X518032Y335290D01*
D02*
G37*
G36*
Y325290D02*
X516489Y324983D01*
X515182Y324110D01*
X514308Y322802D01*
X514001Y321260D01*
X514308Y319718D01*
X515182Y318410D01*
X516489Y317536D01*
X518032Y317230D01*
X519574Y317536D01*
X520881Y318410D01*
X521755Y319718D01*
X522062Y321260D01*
X521755Y322802D01*
X520881Y324110D01*
X519574Y324983D01*
X518032Y325290D01*
D02*
G37*
G36*
X518531Y315191D02*
Y311760D01*
X521962D01*
X521755Y312802D01*
X520881Y314110D01*
X519574Y314983D01*
X518531Y315191D01*
D02*
G37*
G36*
X517531Y315191D02*
X516489Y314983D01*
X515182Y314110D01*
X514308Y312802D01*
X514101Y311760D01*
X517531D01*
Y315191D01*
D02*
G37*
G36*
Y310760D02*
X514101D01*
X514308Y309717D01*
X515182Y308410D01*
X516489Y307536D01*
X517531Y307329D01*
Y310760D01*
D02*
G37*
G36*
X521962D02*
X518531D01*
Y307329D01*
X519574Y307536D01*
X520881Y308410D01*
X521755Y309717D01*
X521962Y310760D01*
D02*
G37*
G36*
X149779Y305095D02*
X146327D01*
Y301642D01*
X149779D01*
Y305095D01*
D02*
G37*
G36*
X145327D02*
X141874D01*
Y301642D01*
X145327D01*
Y305095D01*
D02*
G37*
G36*
X149779Y300642D02*
X146327D01*
Y297189D01*
X149779D01*
Y300642D01*
D02*
G37*
G36*
X145327D02*
X141874D01*
Y297189D01*
X145327D01*
Y300642D01*
D02*
G37*
G36*
X145827Y285172D02*
X144284Y284865D01*
X142977Y283992D01*
X142103Y282684D01*
X141797Y281142D01*
X142103Y279599D01*
X142977Y278292D01*
X144284Y277418D01*
X145827Y277112D01*
X147369Y277418D01*
X148677Y278292D01*
X148989Y278760D01*
X168504D01*
X168828Y278276D01*
X170070Y277446D01*
X171535Y277155D01*
X173001Y277446D01*
X174243Y278276D01*
X175073Y279519D01*
X175365Y280984D01*
X175073Y282450D01*
X174243Y283692D01*
X173001Y284522D01*
X171535Y284814D01*
X170070Y284522D01*
X168828Y283692D01*
X168504Y283208D01*
X149200D01*
X148677Y283992D01*
X147369Y284865D01*
X145827Y285172D01*
D02*
G37*
G36*
X185291Y274740D02*
X182035D01*
Y271484D01*
X185291D01*
Y274740D01*
D02*
G37*
G36*
X181035D02*
X177779D01*
Y271484D01*
X181035D01*
Y274740D01*
D02*
G37*
G36*
X518032Y277298D02*
X516489Y276991D01*
X515182Y276117D01*
X514308Y274810D01*
X514001Y273268D01*
X514308Y271725D01*
X515182Y270418D01*
X516489Y269544D01*
X518032Y269237D01*
X519574Y269544D01*
X520881Y270418D01*
X521755Y271725D01*
X522062Y273268D01*
X521755Y274810D01*
X520881Y276117D01*
X519574Y276991D01*
X518032Y277298D01*
D02*
G37*
G36*
X185291Y270484D02*
X182035D01*
Y267228D01*
X185291D01*
Y270484D01*
D02*
G37*
G36*
X181035D02*
X177779D01*
Y267228D01*
X181035D01*
Y270484D01*
D02*
G37*
G36*
X145827Y275172D02*
X144284Y274865D01*
X142977Y273991D01*
X142103Y272684D01*
X141797Y271142D01*
X142103Y269599D01*
X142977Y268292D01*
X144284Y267418D01*
X145827Y267111D01*
X147369Y267418D01*
X148677Y268292D01*
X149550Y269599D01*
X149857Y271142D01*
X149550Y272684D01*
X148677Y273991D01*
X147369Y274865D01*
X145827Y275172D01*
D02*
G37*
G36*
X146327Y265072D02*
Y261642D01*
X149758D01*
X149550Y262684D01*
X148677Y263991D01*
X147369Y264865D01*
X146327Y265072D01*
D02*
G37*
G36*
X145327Y265072D02*
X144284Y264865D01*
X142977Y263991D01*
X142103Y262684D01*
X141896Y261642D01*
X145327D01*
Y265072D01*
D02*
G37*
G36*
X518032Y267298D02*
X516489Y266991D01*
X515182Y266118D01*
X514308Y264810D01*
X514001Y263268D01*
X514308Y261725D01*
X515182Y260418D01*
X516489Y259544D01*
X518032Y259238D01*
X519574Y259544D01*
X520881Y260418D01*
X521755Y261725D01*
X522062Y263268D01*
X521755Y264810D01*
X520881Y266118D01*
X519574Y266991D01*
X518032Y267298D01*
D02*
G37*
G36*
X145327Y260642D02*
X141896D01*
X142103Y259599D01*
X142977Y258292D01*
X144284Y257418D01*
X145327Y257211D01*
Y260642D01*
D02*
G37*
G36*
X149758D02*
X146327D01*
Y257211D01*
X147369Y257418D01*
X148677Y258292D01*
X149550Y259599D01*
X149758Y260642D01*
D02*
G37*
G36*
X518532Y257198D02*
Y253768D01*
X521962D01*
X521755Y254810D01*
X520881Y256118D01*
X519574Y256991D01*
X518532Y257198D01*
D02*
G37*
G36*
X517531Y257198D02*
X516489Y256991D01*
X515182Y256118D01*
X514308Y254810D01*
X514101Y253768D01*
X517531D01*
Y257198D01*
D02*
G37*
G36*
X521962Y252768D02*
X518532D01*
Y249337D01*
X519574Y249544D01*
X520881Y250418D01*
X521755Y251725D01*
X521962Y252768D01*
D02*
G37*
G36*
X517531D02*
X514101D01*
X514308Y251725D01*
X515182Y250418D01*
X516489Y249544D01*
X517531Y249337D01*
Y252768D01*
D02*
G37*
G36*
X145827Y255172D02*
X144284Y254865D01*
X142977Y253992D01*
X142103Y252684D01*
X141797Y251142D01*
X142103Y249599D01*
X142977Y248292D01*
X144284Y247418D01*
X145827Y247112D01*
X147369Y247418D01*
X148677Y248292D01*
X149550Y249599D01*
X149857Y251142D01*
X149550Y252684D01*
X148677Y253992D01*
X147369Y254865D01*
X145827Y255172D01*
D02*
G37*
G36*
Y245172D02*
X144284Y244865D01*
X142977Y243991D01*
X142103Y242684D01*
X141797Y241142D01*
X142103Y239599D01*
X142977Y238292D01*
X144284Y237418D01*
X145827Y237111D01*
X147369Y237418D01*
X148677Y238292D01*
X149550Y239599D01*
X149857Y241142D01*
X149550Y242684D01*
X148677Y243991D01*
X147369Y244865D01*
X145827Y245172D01*
D02*
G37*
G36*
X434961Y376314D02*
X433418Y376007D01*
X432111Y375133D01*
X431237Y373826D01*
X430931Y372284D01*
X431237Y370741D01*
X432111Y369434D01*
X433418Y368560D01*
X433431Y368558D01*
Y307051D01*
X364918Y238537D01*
X274370D01*
X273785Y238421D01*
X273289Y238089D01*
X250563Y215363D01*
X250512Y215373D01*
X249661Y215204D01*
X248939Y214722D01*
X248457Y214001D01*
X248288Y213150D01*
X248457Y212299D01*
X248939Y211577D01*
X249661Y211095D01*
X249912Y211045D01*
X250072Y210658D01*
X250065Y210505D01*
X249902Y209685D01*
X250071Y208834D01*
X250553Y208113D01*
X251275Y207630D01*
X252126Y207461D01*
X252977Y207630D01*
X253698Y208113D01*
X254181Y208834D01*
X254350Y209685D01*
X254340Y209736D01*
X277130Y232526D01*
X278719D01*
X278870Y232026D01*
X278546Y231809D01*
X278064Y231087D01*
X277894Y230236D01*
X278064Y229385D01*
X278411Y228866D01*
X278278Y228327D01*
X278243Y228284D01*
X278147Y228253D01*
X277701Y228551D01*
X276850Y228720D01*
X275999Y228551D01*
X275278Y228069D01*
X274796Y227347D01*
X274626Y226496D01*
X274796Y225645D01*
X275278Y224924D01*
X275999Y224442D01*
X276850Y224272D01*
X277701Y224442D01*
X278423Y224924D01*
X278452Y224967D01*
X285233D01*
X287657Y222543D01*
X287465Y222081D01*
X281798D01*
X281769Y222124D01*
X281048Y222606D01*
X280197Y222775D01*
X279346Y222606D01*
X278624Y222124D01*
X278142Y221402D01*
X277973Y220551D01*
X278142Y219700D01*
X278624Y218979D01*
X279346Y218497D01*
X280197Y218327D01*
X281048Y218497D01*
X281769Y218979D01*
X281798Y219022D01*
X287713D01*
X295542Y211193D01*
Y187842D01*
X295658Y187257D01*
X295989Y186761D01*
X305276Y177475D01*
Y118195D01*
X305392Y117610D01*
X305724Y117113D01*
X306251Y116586D01*
X306241Y116535D01*
X306393Y115768D01*
X306178Y115570D01*
X305981Y115473D01*
X304852Y116603D01*
X304862Y116654D01*
X304692Y117505D01*
X304210Y118226D01*
X303489Y118708D01*
X302638Y118877D01*
X301787Y118708D01*
X301065Y118226D01*
X300583Y117505D01*
X300414Y116654D01*
X300583Y115803D01*
X301065Y115081D01*
X301787Y114599D01*
X302638Y114430D01*
X302689Y114440D01*
X304824Y112304D01*
X305320Y111973D01*
X305906Y111856D01*
X378346D01*
X378932Y111973D01*
X379428Y112304D01*
X393965Y126841D01*
X394016Y126831D01*
X394867Y127001D01*
X395588Y127483D01*
X396070Y128204D01*
X396240Y129055D01*
X396070Y129906D01*
X395588Y130628D01*
X394867Y131110D01*
X394016Y131279D01*
X393936Y131263D01*
X393690Y131724D01*
X394570Y132605D01*
X397808D01*
X397837Y132561D01*
X398558Y132079D01*
X399409Y131910D01*
X400260Y132079D01*
X400982Y132561D01*
X401464Y133283D01*
X401633Y134134D01*
X401464Y134985D01*
X400982Y135706D01*
X400260Y136188D01*
X399409Y136358D01*
X398558Y136188D01*
X397837Y135706D01*
X397808Y135663D01*
X393937D01*
X393352Y135547D01*
X392856Y135215D01*
X375705Y118065D01*
X310066D01*
X310037Y118108D01*
X309316Y118590D01*
X308465Y118759D01*
X308334Y119243D01*
Y169293D01*
X308835Y169560D01*
X309188Y169323D01*
X310039Y169154D01*
X310890Y169323D01*
X311612Y169806D01*
X311641Y169849D01*
X358386D01*
X358971Y169965D01*
X359467Y170297D01*
X369413Y180242D01*
X463599D01*
X464149Y179875D01*
X465000Y179705D01*
X465851Y179875D01*
X466573Y180357D01*
X467055Y181078D01*
X467224Y181929D01*
X467055Y182780D01*
X466573Y183502D01*
X465851Y183984D01*
X465000Y184153D01*
X464149Y183984D01*
X463427Y183502D01*
X463294Y183301D01*
X368779D01*
X368194Y183185D01*
X367698Y182853D01*
X357752Y172907D01*
X311641D01*
X311612Y172950D01*
X310890Y173433D01*
X310039Y173602D01*
X309188Y173433D01*
X308835Y173196D01*
X308334Y173463D01*
Y175492D01*
X308775Y175727D01*
X308873Y175662D01*
X309724Y175493D01*
X310575Y175662D01*
X311297Y176144D01*
X311779Y176865D01*
X311948Y177717D01*
X311779Y178568D01*
X311297Y179289D01*
X310575Y179771D01*
X309724Y179940D01*
X309674Y179930D01*
X300388Y189216D01*
Y213504D01*
X300271Y214089D01*
X300006Y214486D01*
X300394Y214805D01*
X303491Y211708D01*
X303339Y211481D01*
X303170Y210630D01*
X303339Y209779D01*
X303821Y209057D01*
X304543Y208575D01*
X305394Y208406D01*
X306245Y208575D01*
X306966Y209057D01*
X307448Y209779D01*
X307617Y210630D01*
X307448Y211481D01*
X306966Y212202D01*
X306863Y212271D01*
X306807Y212554D01*
X306475Y213050D01*
X295993Y223532D01*
X296003Y223583D01*
X295834Y224434D01*
X295352Y225155D01*
X294631Y225637D01*
X293779Y225806D01*
X292929Y225637D01*
X292207Y225155D01*
X291725Y224434D01*
X291571Y223661D01*
X291120Y223405D01*
X286948Y227577D01*
X286451Y227909D01*
X285866Y228026D01*
X282007D01*
X281777Y228525D01*
X281932Y228707D01*
X323855D01*
X325675Y226886D01*
Y216266D01*
X325197Y216121D01*
X325015Y216393D01*
X323708Y217267D01*
X322665Y217474D01*
Y213543D01*
Y209613D01*
X323708Y209820D01*
X325015Y210694D01*
X325197Y210965D01*
X325675Y210820D01*
Y207496D01*
X318213D01*
Y199591D01*
X325675D01*
Y197756D01*
X325792Y197171D01*
X326123Y196675D01*
X330572Y192226D01*
X331068Y191894D01*
X331653Y191778D01*
X334068D01*
X334097Y191735D01*
X334818Y191253D01*
X335669Y191083D01*
X336520Y191253D01*
X337242Y191735D01*
X337271Y191778D01*
X342870D01*
X347093Y187556D01*
Y179554D01*
X347049Y179525D01*
X346568Y178804D01*
X346398Y177953D01*
X346568Y177102D01*
X347049Y176380D01*
X347771Y175898D01*
X348622Y175729D01*
X349473Y175898D01*
X350195Y176380D01*
X350677Y177102D01*
X350846Y177953D01*
X350677Y178804D01*
X350195Y179525D01*
X350151Y179554D01*
Y188189D01*
X350035Y188774D01*
X349704Y189270D01*
X344585Y194388D01*
X344089Y194720D01*
X343504Y194836D01*
X337271D01*
X337242Y194880D01*
X336520Y195362D01*
X335669Y195531D01*
X334818Y195362D01*
X334097Y194880D01*
X334068Y194836D01*
X332287D01*
X328734Y198389D01*
Y200703D01*
X329213Y200848D01*
X329316Y200693D01*
X330623Y199820D01*
X332165Y199513D01*
X333708Y199820D01*
X333719Y199827D01*
X336478Y197068D01*
X336974Y196737D01*
X337559Y196620D01*
X346772D01*
X347357Y196737D01*
X347853Y197068D01*
X350612Y199827D01*
X350623Y199820D01*
X352165Y199513D01*
X353708Y199820D01*
X355015Y200693D01*
X355889Y202001D01*
X356195Y203543D01*
X355889Y205086D01*
X355015Y206393D01*
X353708Y207267D01*
X352165Y207574D01*
X350623Y207267D01*
X349316Y206393D01*
X348442Y205086D01*
X348135Y203543D01*
X348442Y202001D01*
X348449Y201990D01*
X346138Y199679D01*
X344397D01*
X344245Y200179D01*
X345015Y200693D01*
X345889Y202001D01*
X346196Y203543D01*
X345889Y205086D01*
X345015Y206393D01*
X343708Y207267D01*
X342165Y207574D01*
X340623Y207267D01*
X339316Y206393D01*
X338442Y205086D01*
X338135Y203543D01*
X338442Y202001D01*
X339316Y200693D01*
X340086Y200179D01*
X339934Y199679D01*
X338193D01*
X335881Y201990D01*
X335889Y202001D01*
X336195Y203543D01*
X335889Y205086D01*
X335015Y206393D01*
X333708Y207267D01*
X332165Y207574D01*
X330623Y207267D01*
X329316Y206393D01*
X329213Y206239D01*
X328734Y206384D01*
Y210702D01*
X329213Y210848D01*
X329316Y210694D01*
X330623Y209820D01*
X332165Y209513D01*
X333708Y209820D01*
X335015Y210694D01*
X335889Y212001D01*
X336195Y213543D01*
X335889Y215086D01*
X335015Y216393D01*
X333708Y217267D01*
X332165Y217573D01*
X330623Y217267D01*
X329316Y216393D01*
X329213Y216239D01*
X328734Y216384D01*
Y227520D01*
X328618Y228105D01*
X328286Y228601D01*
X325570Y231318D01*
X325074Y231649D01*
X324488Y231766D01*
X281750D01*
X281490Y232037D01*
X281652Y232526D01*
X365748D01*
X366333Y232642D01*
X366829Y232974D01*
X446042Y312186D01*
X446374Y312683D01*
X446490Y313268D01*
Y368331D01*
X448913D01*
Y376236D01*
X441008D01*
Y368331D01*
X443431D01*
Y313901D01*
X436952Y307422D01*
X436490Y307613D01*
Y368558D01*
X436503Y368560D01*
X437810Y369434D01*
X438684Y370741D01*
X438991Y372284D01*
X438684Y373826D01*
X437810Y375133D01*
X436503Y376007D01*
X434961Y376314D01*
D02*
G37*
G36*
X145827Y235172D02*
X144284Y234865D01*
X142977Y233992D01*
X142103Y232684D01*
X141797Y231142D01*
X142103Y229599D01*
X142977Y228292D01*
X144284Y227418D01*
X145827Y227112D01*
X147369Y227418D01*
X148677Y228292D01*
X149550Y229599D01*
X149857Y231142D01*
X149550Y232684D01*
X148677Y233992D01*
X147369Y234865D01*
X145827Y235172D01*
D02*
G37*
G36*
Y225172D02*
X144284Y224865D01*
X142977Y223991D01*
X142103Y222684D01*
X141797Y221142D01*
X142103Y219599D01*
X142977Y218292D01*
X144284Y217418D01*
X145827Y217111D01*
X147369Y217418D01*
X148677Y218292D01*
X149550Y219599D01*
X149857Y221142D01*
X149550Y222684D01*
X148677Y223991D01*
X147369Y224865D01*
X145827Y225172D01*
D02*
G37*
G36*
X321665Y217474D02*
X320623Y217267D01*
X319316Y216393D01*
X318442Y215086D01*
X318235Y214043D01*
X321665D01*
Y217474D01*
D02*
G37*
G36*
X518032Y221196D02*
X516489Y220889D01*
X515182Y220015D01*
X514308Y218708D01*
X514001Y217165D01*
X514308Y215623D01*
X515182Y214316D01*
X516489Y213442D01*
X518032Y213135D01*
X519574Y213442D01*
X520881Y214316D01*
X521755Y215623D01*
X522062Y217165D01*
X521755Y218708D01*
X520881Y220015D01*
X519574Y220889D01*
X518032Y221196D01*
D02*
G37*
G36*
X321665Y213043D02*
X318235D01*
X318442Y212001D01*
X319316Y210694D01*
X320623Y209820D01*
X321665Y209613D01*
Y213043D01*
D02*
G37*
G36*
X352165Y217573D02*
X350623Y217267D01*
X349316Y216393D01*
X348442Y215086D01*
X348135Y213543D01*
X348442Y212001D01*
X349316Y210694D01*
X350623Y209820D01*
X352165Y209513D01*
X353708Y209820D01*
X355015Y210694D01*
X355889Y212001D01*
X356195Y213543D01*
X355889Y215086D01*
X355015Y216393D01*
X353708Y217267D01*
X352165Y217573D01*
D02*
G37*
G36*
X342165D02*
X340623Y217267D01*
X339316Y216393D01*
X338442Y215086D01*
X338135Y213543D01*
X338442Y212001D01*
X339316Y210694D01*
X340623Y209820D01*
X342165Y209513D01*
X343708Y209820D01*
X345015Y210694D01*
X345889Y212001D01*
X346196Y213543D01*
X345889Y215086D01*
X345015Y216393D01*
X343708Y217267D01*
X342165Y217573D01*
D02*
G37*
G36*
X145827Y215172D02*
X144284Y214865D01*
X142977Y213991D01*
X142103Y212684D01*
X141797Y211142D01*
X142103Y209599D01*
X142977Y208292D01*
X144284Y207418D01*
X145827Y207112D01*
X147369Y207418D01*
X148677Y208292D01*
X149550Y209599D01*
X149857Y211142D01*
X149550Y212684D01*
X148677Y213991D01*
X147369Y214865D01*
X145827Y215172D01*
D02*
G37*
G36*
X518032Y211196D02*
X516489Y210889D01*
X515182Y210015D01*
X514308Y208708D01*
X514001Y207165D01*
X514308Y205623D01*
X515182Y204316D01*
X516489Y203442D01*
X518032Y203135D01*
X519574Y203442D01*
X520881Y204316D01*
X521755Y205623D01*
X522062Y207165D01*
X521755Y208708D01*
X520881Y210015D01*
X519574Y210889D01*
X518032Y211196D01*
D02*
G37*
G36*
X518532Y201096D02*
Y197665D01*
X521962D01*
X521755Y198708D01*
X520881Y200015D01*
X519574Y200889D01*
X518532Y201096D01*
D02*
G37*
G36*
X517531Y201096D02*
X516489Y200889D01*
X515182Y200015D01*
X514308Y198708D01*
X514101Y197665D01*
X517531D01*
Y201096D01*
D02*
G37*
G36*
X145827Y205172D02*
X144284Y204865D01*
X142977Y203992D01*
X142103Y202684D01*
X141797Y201142D01*
X142103Y199600D01*
X142977Y198292D01*
X144284Y197418D01*
X145827Y197112D01*
X147369Y197418D01*
X148677Y198292D01*
X149550Y199600D01*
X149857Y201142D01*
X149550Y202684D01*
X148677Y203992D01*
X147369Y204865D01*
X145827Y205172D01*
D02*
G37*
G36*
X517531Y196665D02*
X514101D01*
X514308Y195623D01*
X515182Y194316D01*
X516489Y193442D01*
X517531Y193235D01*
Y196665D01*
D02*
G37*
G36*
X521962D02*
X518532D01*
Y193235D01*
X519574Y193442D01*
X520881Y194316D01*
X521755Y195623D01*
X521962Y196665D01*
D02*
G37*
G36*
X145827Y195172D02*
X144284Y194865D01*
X142977Y193991D01*
X142103Y192684D01*
X141797Y191142D01*
X142103Y189600D01*
X142977Y188292D01*
X144284Y187418D01*
X145827Y187112D01*
X147369Y187418D01*
X148677Y188292D01*
X149550Y189600D01*
X149857Y191142D01*
X149550Y192684D01*
X148677Y193991D01*
X147369Y194865D01*
X145827Y195172D01*
D02*
G37*
G36*
Y185172D02*
X144284Y184865D01*
X142977Y183992D01*
X142103Y182684D01*
X141797Y181142D01*
X142103Y179599D01*
X142977Y178292D01*
X144284Y177418D01*
X145827Y177112D01*
X147369Y177418D01*
X148677Y178292D01*
X149550Y179599D01*
X149857Y181142D01*
X149550Y182684D01*
X148677Y183992D01*
X147369Y184865D01*
X145827Y185172D01*
D02*
G37*
G36*
X438205Y178874D02*
X434949D01*
Y175618D01*
X438205D01*
Y178874D01*
D02*
G37*
G36*
X433949D02*
X430693D01*
Y175618D01*
X433949D01*
Y178874D01*
D02*
G37*
G36*
X438205Y174618D02*
X434949D01*
Y171362D01*
X438205D01*
Y174618D01*
D02*
G37*
G36*
X433949D02*
X430693D01*
Y171362D01*
X433949D01*
Y174618D01*
D02*
G37*
G36*
X289346Y178756D02*
X281441D01*
Y170850D01*
X289346D01*
Y178756D01*
D02*
G37*
G36*
X275394Y178833D02*
X273851Y178527D01*
X272544Y177653D01*
X271670Y176345D01*
X271363Y174803D01*
X271670Y173261D01*
X272544Y171953D01*
X273851Y171080D01*
X275394Y170773D01*
X276936Y171080D01*
X278243Y171953D01*
X279117Y173261D01*
X279424Y174803D01*
X279117Y176345D01*
X278243Y177653D01*
X276936Y178527D01*
X275394Y178833D01*
D02*
G37*
G36*
X518807Y174167D02*
Y170736D01*
X522238D01*
X522030Y171779D01*
X521157Y173086D01*
X519849Y173960D01*
X518807Y174167D01*
D02*
G37*
G36*
X517807Y174167D02*
X516765Y173960D01*
X515457Y173086D01*
X514584Y171779D01*
X514376Y170736D01*
X517807D01*
Y174167D01*
D02*
G37*
G36*
X145827Y175172D02*
X144284Y174865D01*
X142977Y173992D01*
X142103Y172684D01*
X141797Y171142D01*
X142103Y169599D01*
X142977Y168292D01*
X144284Y167418D01*
X145827Y167112D01*
X147369Y167418D01*
X148677Y168292D01*
X149550Y169599D01*
X149857Y171142D01*
X149550Y172684D01*
X148677Y173992D01*
X147369Y174865D01*
X145827Y175172D01*
D02*
G37*
G36*
X517807Y169736D02*
X514376D01*
X514584Y168694D01*
X515457Y167386D01*
X516765Y166513D01*
X517807Y166305D01*
Y169736D01*
D02*
G37*
G36*
X522238D02*
X518807D01*
Y166305D01*
X519849Y166513D01*
X521157Y167386D01*
X522030Y168694D01*
X522238Y169736D01*
D02*
G37*
G36*
X276287Y166529D02*
Y163098D01*
X279718D01*
X279511Y164141D01*
X278637Y165448D01*
X277330Y166322D01*
X276287Y166529D01*
D02*
G37*
G36*
X275287D02*
X274245Y166322D01*
X272938Y165448D01*
X272064Y164141D01*
X271857Y163098D01*
X275287D01*
Y166529D01*
D02*
G37*
G36*
X444449Y168948D02*
X442983Y168656D01*
X441741Y167826D01*
X440911Y166584D01*
X440619Y165118D01*
X440911Y163653D01*
X441741Y162410D01*
X442983Y161580D01*
X444449Y161289D01*
X445914Y161580D01*
X447157Y162410D01*
X447987Y163653D01*
X448278Y165118D01*
X447987Y166584D01*
X447157Y167826D01*
X445914Y168656D01*
X444449Y168948D01*
D02*
G37*
G36*
X279718Y162098D02*
X276287D01*
Y158668D01*
X277330Y158875D01*
X278637Y159749D01*
X279511Y161056D01*
X279718Y162098D01*
D02*
G37*
G36*
X275287D02*
X271857D01*
X272064Y161056D01*
X272938Y159749D01*
X274245Y158875D01*
X275287Y158668D01*
Y162098D01*
D02*
G37*
G36*
X250039Y175846D02*
X249188Y175677D01*
X248467Y175195D01*
X247985Y174473D01*
X247815Y173622D01*
X247985Y172771D01*
X248467Y172049D01*
X249188Y171567D01*
X250039Y171398D01*
X250890Y171567D01*
X251612Y172049D01*
X251641Y172093D01*
X261256D01*
X264337Y169012D01*
Y166340D01*
X264245Y166322D01*
X262938Y165448D01*
X262064Y164141D01*
X261757Y162598D01*
X262064Y161056D01*
X262938Y159749D01*
X264245Y158875D01*
X265787Y158568D01*
X267330Y158875D01*
X268637Y159749D01*
X269511Y161056D01*
X269818Y162598D01*
X269511Y164141D01*
X268637Y165448D01*
X267395Y166278D01*
Y169646D01*
X267279Y170231D01*
X266948Y170727D01*
X262971Y174704D01*
X262475Y175035D01*
X261890Y175151D01*
X251641D01*
X251612Y175195D01*
X250890Y175677D01*
X250039Y175846D01*
D02*
G37*
G36*
X145827Y165172D02*
X144284Y164865D01*
X142977Y163991D01*
X142103Y162684D01*
X141797Y161142D01*
X142103Y159599D01*
X142977Y158292D01*
X144284Y157418D01*
X145827Y157112D01*
X147369Y157418D01*
X148677Y158292D01*
X149550Y159599D01*
X149857Y161142D01*
X149550Y162684D01*
X148677Y163991D01*
X147369Y164865D01*
X145827Y165172D01*
D02*
G37*
G36*
X522260Y164189D02*
X514354D01*
Y156283D01*
X522260D01*
Y164189D01*
D02*
G37*
G36*
X146327Y155072D02*
Y151642D01*
X149758D01*
X149550Y152684D01*
X148677Y153991D01*
X147369Y154865D01*
X146327Y155072D01*
D02*
G37*
G36*
X145327Y155072D02*
X144284Y154865D01*
X142977Y153991D01*
X142103Y152684D01*
X141896Y151642D01*
X145327D01*
Y155072D01*
D02*
G37*
G36*
X434449Y158948D02*
X432983Y158656D01*
X431741Y157826D01*
X430911Y156584D01*
X430619Y155118D01*
X430911Y153653D01*
X431741Y152410D01*
X432983Y151580D01*
X434449Y151289D01*
X435914Y151580D01*
X437157Y152410D01*
X437987Y153653D01*
X438278Y155118D01*
X437987Y156584D01*
X437157Y157826D01*
X435914Y158656D01*
X434449Y158948D01*
D02*
G37*
G36*
X259740Y156551D02*
X251835D01*
Y148646D01*
X259740D01*
Y156551D01*
D02*
G37*
G36*
X275787Y156629D02*
X274245Y156322D01*
X272938Y155448D01*
X272064Y154141D01*
X271757Y152598D01*
X272064Y151056D01*
X272938Y149749D01*
X274245Y148875D01*
X275787Y148568D01*
X277330Y148875D01*
X278637Y149749D01*
X279511Y151056D01*
X279818Y152598D01*
X279511Y154141D01*
X278637Y155448D01*
X277330Y156322D01*
X275787Y156629D01*
D02*
G37*
G36*
X265787D02*
X264245Y156322D01*
X262938Y155448D01*
X262064Y154141D01*
X261757Y152598D01*
X262064Y151056D01*
X262938Y149749D01*
X264245Y148875D01*
X265787Y148568D01*
X267330Y148875D01*
X268637Y149749D01*
X269511Y151056D01*
X269818Y152598D01*
X269511Y154141D01*
X268637Y155448D01*
X267330Y156322D01*
X265787Y156629D01*
D02*
G37*
G36*
X145327Y150642D02*
X141896D01*
X142103Y149600D01*
X142977Y148292D01*
X144284Y147418D01*
X145327Y147211D01*
Y150642D01*
D02*
G37*
G36*
X149758D02*
X146327D01*
Y147211D01*
X147369Y147418D01*
X148677Y148292D01*
X149550Y149600D01*
X149758Y150642D01*
D02*
G37*
G36*
X323661Y159035D02*
X322810Y158866D01*
X322089Y158384D01*
X321607Y157662D01*
X321438Y156811D01*
Y136850D01*
X321607Y135999D01*
X322089Y135278D01*
X322810Y134796D01*
X323661Y134627D01*
X324512Y134796D01*
X325234Y135278D01*
X325716Y135999D01*
X325885Y136850D01*
Y156811D01*
X325716Y157662D01*
X325234Y158384D01*
X324512Y158866D01*
X323661Y159035D01*
D02*
G37*
G36*
X482874Y142829D02*
X480948Y142446D01*
X479315Y141355D01*
X478223Y139722D01*
X477840Y137795D01*
X478223Y135869D01*
X479315Y134236D01*
X480948Y133145D01*
X482874Y132762D01*
X484800Y133145D01*
X486433Y134236D01*
X487525Y135869D01*
X487908Y137795D01*
X487525Y139722D01*
X486433Y141355D01*
X484800Y142446D01*
X482874Y142829D01*
D02*
G37*
G36*
X524094Y133228D02*
X519594D01*
Y128728D01*
X524094D01*
Y133228D01*
D02*
G37*
G36*
X518595D02*
X514094D01*
Y128728D01*
X518595D01*
Y133228D01*
D02*
G37*
G36*
X524094Y127728D02*
X519594D01*
Y123228D01*
X524094D01*
Y127728D01*
D02*
G37*
G36*
X518595D02*
X514094D01*
Y123228D01*
X518595D01*
Y127728D01*
D02*
G37*
G36*
X522835Y117027D02*
X522835Y117027D01*
X514803Y117027D01*
X514803Y117027D01*
X514038Y116710D01*
X514038Y116710D01*
X511479Y114151D01*
X511162Y113386D01*
X511162Y113386D01*
X511162Y108755D01*
X500811Y98405D01*
X478622Y98405D01*
X478622Y98405D01*
X478201Y98231D01*
X477856Y98088D01*
X477856Y98088D01*
X475258Y95490D01*
X475258Y95490D01*
X475258Y95490D01*
X475082Y95064D01*
X474941Y94724D01*
Y94724D01*
X474941Y94724D01*
X474941Y94724D01*
X474941Y86102D01*
X474941Y86102D01*
X475127Y85654D01*
X475258Y85337D01*
X475258Y85337D01*
X477817Y82778D01*
X478583Y82461D01*
X478583Y82461D01*
X504094Y82461D01*
X504095Y82461D01*
X504860Y82778D01*
X504860Y82778D01*
X526316Y104235D01*
X526316Y104235D01*
X526634Y105000D01*
X526634Y105000D01*
X526634Y113228D01*
X526634Y113228D01*
X526634Y113228D01*
X526494Y113565D01*
X526317Y113994D01*
X526316Y113994D01*
X523600Y116710D01*
X523600Y116710D01*
X523600Y116710D01*
X522835Y117027D01*
D02*
G37*
G36*
X300551Y143877D02*
X299700Y143708D01*
X298979Y143226D01*
X298979Y143226D01*
X295750Y139998D01*
X295268Y139276D01*
X295099Y138425D01*
X295099Y138425D01*
Y99409D01*
X295268Y98558D01*
X295750Y97837D01*
X296472Y97355D01*
X297323Y97186D01*
X298174Y97355D01*
X298895Y97837D01*
X299377Y98558D01*
X299547Y99409D01*
Y137504D01*
X302124Y140081D01*
X302124Y140081D01*
X302606Y140803D01*
X302775Y141654D01*
X302606Y142505D01*
X302124Y143226D01*
X301402Y143708D01*
X300551Y143877D01*
D02*
G37*
G36*
X524094Y73898D02*
X519594D01*
Y69398D01*
X524094D01*
Y73898D01*
D02*
G37*
G36*
X518594D02*
X514094D01*
Y69398D01*
X518594D01*
Y73898D01*
D02*
G37*
G36*
X524094Y68398D02*
X519594D01*
Y63898D01*
X524094D01*
Y68398D01*
D02*
G37*
G36*
X518594D02*
X514094D01*
Y63898D01*
X518594D01*
Y68398D01*
D02*
G37*
G36*
X482874Y71569D02*
X480948Y71186D01*
X479315Y70095D01*
X478223Y68462D01*
X477840Y66535D01*
X478223Y64609D01*
X479315Y62976D01*
X480948Y61885D01*
X482874Y61502D01*
X484800Y61885D01*
X486433Y62976D01*
X487525Y64609D01*
X487908Y66535D01*
X487525Y68462D01*
X486433Y70095D01*
X484800Y71186D01*
X482874Y71569D01*
D02*
G37*
G36*
X208405Y51263D02*
X206043D01*
X204731Y51002D01*
X203619Y50259D01*
X202876Y49147D01*
X202615Y47835D01*
X202876Y46523D01*
X203619Y45411D01*
X204731Y44668D01*
X206043Y44407D01*
X208405D01*
X209717Y44668D01*
X210829Y45411D01*
X211573Y46523D01*
X211834Y47835D01*
X211573Y49147D01*
X210829Y50259D01*
X209717Y51002D01*
X208405Y51263D01*
D02*
G37*
G36*
X198406D02*
X196043D01*
X194731Y51002D01*
X193619Y50259D01*
X192876Y49147D01*
X192615Y47835D01*
X192876Y46523D01*
X193619Y45411D01*
X194731Y44668D01*
X196043Y44407D01*
X198406D01*
X199717Y44668D01*
X200830Y45411D01*
X201573Y46523D01*
X201834Y47835D01*
X201573Y49147D01*
X200830Y50259D01*
X199717Y51002D01*
X198406Y51263D01*
D02*
G37*
G36*
X208405Y43389D02*
X207724D01*
Y40461D01*
X211734D01*
X211573Y41273D01*
X210829Y42385D01*
X209717Y43128D01*
X208405Y43389D01*
D02*
G37*
G36*
X206724D02*
X206043D01*
X204731Y43128D01*
X203619Y42385D01*
X202876Y41273D01*
X202715Y40461D01*
X206724D01*
Y43389D01*
D02*
G37*
G36*
X347646Y50628D02*
X337803D01*
X335493Y50168D01*
X333534Y48860D01*
X332225Y46901D01*
X331766Y44591D01*
X332225Y42280D01*
X333534Y40322D01*
X335493Y39013D01*
X337803Y38553D01*
X347646D01*
X349956Y39013D01*
X351915Y40322D01*
X353223Y42280D01*
X353683Y44591D01*
X353223Y46901D01*
X351915Y48860D01*
X349956Y50168D01*
X347646Y50628D01*
D02*
G37*
G36*
X211734Y39461D02*
X207724D01*
Y36533D01*
X208405D01*
X209717Y36794D01*
X210829Y37537D01*
X211573Y38649D01*
X211734Y39461D01*
D02*
G37*
G36*
X206724D02*
X202715D01*
X202876Y38649D01*
X203619Y37537D01*
X204731Y36794D01*
X206043Y36533D01*
X206724D01*
Y39461D01*
D02*
G37*
G36*
X198406Y43389D02*
X196043D01*
X194731Y43128D01*
X193619Y42385D01*
X192876Y41273D01*
X192615Y39961D01*
X192876Y38649D01*
X193619Y37537D01*
X194731Y36794D01*
X196043Y36533D01*
X198406D01*
X199717Y36794D01*
X200830Y37537D01*
X201573Y38649D01*
X201834Y39961D01*
X201573Y41273D01*
X200830Y42385D01*
X199717Y43128D01*
X198406Y43389D01*
D02*
G37*
G36*
X361728Y42645D02*
Y33279D01*
X366764D01*
Y37209D01*
X366342Y39327D01*
X365142Y41123D01*
X363347Y42323D01*
X361728Y42645D01*
D02*
G37*
G36*
X360728Y42645D02*
X359110Y42323D01*
X357314Y41123D01*
X356114Y39327D01*
X355693Y37209D01*
Y33279D01*
X360728D01*
Y42645D01*
D02*
G37*
G36*
X226665Y38579D02*
Y30189D01*
X232203D01*
Y32642D01*
X231743Y34952D01*
X230434Y36911D01*
X228476Y38219D01*
X226665Y38579D01*
D02*
G37*
G36*
X225665Y38579D02*
X223855Y38219D01*
X221896Y36911D01*
X220588Y34952D01*
X220128Y32642D01*
Y30189D01*
X225665D01*
Y38579D01*
D02*
G37*
G36*
X366764Y32280D02*
X361728D01*
Y22914D01*
X363347Y23236D01*
X365142Y24436D01*
X366342Y26232D01*
X366764Y28350D01*
Y32280D01*
D02*
G37*
G36*
X360728D02*
X355693D01*
Y28350D01*
X356114Y26232D01*
X357314Y24436D01*
X359110Y23236D01*
X360728Y22914D01*
Y32280D01*
D02*
G37*
G36*
X347153Y26504D02*
X343224D01*
Y21468D01*
X352590D01*
X352268Y23087D01*
X351068Y24883D01*
X349272Y26083D01*
X347153Y26504D01*
D02*
G37*
G36*
X342224D02*
X338295D01*
X336177Y26083D01*
X334381Y24883D01*
X333181Y23087D01*
X332859Y21468D01*
X342224D01*
Y26504D01*
D02*
G37*
G36*
X232203Y29189D02*
X226665D01*
Y20798D01*
X228476Y21159D01*
X230434Y22467D01*
X231743Y24426D01*
X232203Y26736D01*
Y29189D01*
D02*
G37*
G36*
X225665D02*
X220128D01*
Y26736D01*
X220588Y24426D01*
X221896Y22467D01*
X223855Y21159D01*
X225665Y20798D01*
Y29189D01*
D02*
G37*
G36*
X178724Y38679D02*
X176414Y38219D01*
X174455Y36911D01*
X173147Y34952D01*
X172687Y32642D01*
Y26736D01*
X173147Y24426D01*
X174455Y22467D01*
X176414Y21159D01*
X178724Y20699D01*
X181035Y21159D01*
X182993Y22467D01*
X184302Y24426D01*
X184762Y26736D01*
Y32642D01*
X184302Y34952D01*
X182993Y36911D01*
X181035Y38219D01*
X178724Y38679D01*
D02*
G37*
G36*
X352590Y20469D02*
X343224D01*
Y15433D01*
X347153D01*
X349272Y15854D01*
X351068Y17054D01*
X352268Y18850D01*
X352590Y20469D01*
D02*
G37*
G36*
X342224D02*
X332859D01*
X333181Y18850D01*
X334381Y17054D01*
X336177Y15854D01*
X338295Y15433D01*
X342224D01*
Y20469D01*
D02*
G37*
G36*
X434842Y24325D02*
X432916Y23942D01*
X431283Y22851D01*
X430192Y21218D01*
X429809Y19291D01*
X430192Y17365D01*
X431283Y15732D01*
X432916Y14641D01*
X434842Y14258D01*
X436769Y14641D01*
X438402Y15732D01*
X439493Y17365D01*
X439876Y19291D01*
X439493Y21218D01*
X438402Y22851D01*
X436769Y23942D01*
X434842Y24325D01*
D02*
G37*
%LPD*%
G36*
X525551Y113228D02*
X525551Y105000D01*
X504095Y83543D01*
X478583Y83543D01*
X476024Y86102D01*
X476024Y94724D01*
X478622Y97323D01*
X501260Y97323D01*
X512244Y108307D01*
X512244Y113386D01*
X514803Y115945D01*
X522835Y115945D01*
X525551Y113228D01*
D02*
G37*
%LPC*%
G36*
X519594Y113542D02*
Y109043D01*
X524093D01*
X523804Y110494D01*
X522699Y112148D01*
X521045Y113253D01*
X519594Y113542D01*
D02*
G37*
G36*
X518595Y113542D02*
X517144Y113253D01*
X515490Y112148D01*
X514385Y110494D01*
X514096Y109043D01*
X518595D01*
Y113542D01*
D02*
G37*
G36*
X524093Y108043D02*
X519594D01*
Y103545D01*
X521045Y103833D01*
X522699Y104938D01*
X523804Y106592D01*
X524093Y108043D01*
D02*
G37*
G36*
X518595D02*
X514096D01*
X514385Y106592D01*
X515490Y104938D01*
X517144Y103833D01*
X518595Y103545D01*
Y108043D01*
D02*
G37*
G36*
X483374Y95486D02*
Y91051D01*
X487808D01*
X487525Y92478D01*
X486433Y94111D01*
X484800Y95202D01*
X483374Y95486D01*
D02*
G37*
G36*
X482374D02*
X480948Y95202D01*
X479315Y94111D01*
X478223Y92478D01*
X477940Y91051D01*
X482374D01*
Y95486D01*
D02*
G37*
G36*
X487808Y90051D02*
X483374D01*
Y85617D01*
X484800Y85901D01*
X486433Y86992D01*
X487525Y88625D01*
X487808Y90051D01*
D02*
G37*
G36*
X482374D02*
X477940D01*
X478223Y88625D01*
X479315Y86992D01*
X480948Y85901D01*
X482374Y85617D01*
Y90051D01*
D02*
G37*
G36*
X519594Y54211D02*
Y49713D01*
X524093D01*
X523804Y51164D01*
X522699Y52817D01*
X521045Y53922D01*
X519594Y54211D01*
D02*
G37*
G36*
X518594Y54211D02*
X517144Y53922D01*
X515490Y52817D01*
X514385Y51164D01*
X514096Y49713D01*
X518594D01*
Y54211D01*
D02*
G37*
G36*
Y48713D02*
X514096D01*
X514385Y47262D01*
X515490Y45608D01*
X517144Y44503D01*
X518594Y44214D01*
Y48713D01*
D02*
G37*
G36*
X524093D02*
X519594D01*
Y44214D01*
X521045Y44503D01*
X522699Y45608D01*
X523804Y47262D01*
X524093Y48713D01*
D02*
G37*
G36*
X483374Y24226D02*
Y19791D01*
X487808D01*
X487525Y21218D01*
X486433Y22851D01*
X484800Y23942D01*
X483374Y24226D01*
D02*
G37*
G36*
X482374D02*
X480948Y23942D01*
X479315Y22851D01*
X478223Y21218D01*
X477940Y19791D01*
X482374D01*
Y24226D01*
D02*
G37*
G36*
X487808Y18791D02*
X483374D01*
Y14357D01*
X484800Y14641D01*
X486433Y15732D01*
X487525Y17365D01*
X487808Y18791D01*
D02*
G37*
G36*
X482374D02*
X477940D01*
X478223Y17365D01*
X479315Y15732D01*
X480948Y14641D01*
X482374Y14357D01*
Y18791D01*
D02*
G37*
%LPD*%
D10*
X241378Y202480D02*
Y252205D01*
X238146Y331079D02*
X238146Y197744D01*
X235378Y331638D02*
X235378Y202480D01*
X235378Y331638D02*
X273819Y370079D01*
X238146Y331079D02*
X280315Y373248D01*
X184291Y101929D02*
X194079Y92142D01*
X182165Y101102D02*
X192913Y90354D01*
X180024Y100488D02*
X191945Y88567D01*
X192913Y90354D02*
X403819D01*
X182165Y101102D02*
Y188819D01*
X184291Y185512D02*
X194055Y195276D01*
X180024Y100488D02*
Y191047D01*
X191575Y199016D02*
X191969Y198622D01*
X191945Y88567D02*
X369346D01*
X194079Y92142D02*
X367024D01*
X184291Y101929D02*
Y185512D01*
X230866Y105236D02*
Y110827D01*
X219646Y94016D02*
X230866Y105236D01*
X197402Y94016D02*
X219646D01*
X369346Y88567D02*
X409449Y48465D01*
X199764Y96732D02*
X199843Y96653D01*
X195236Y96181D02*
Y96850D01*
Y96181D02*
X197402Y94016D01*
X199843Y96653D02*
X207992D01*
X215512Y104173D02*
Y116417D01*
X207992Y96653D02*
X215512Y104173D01*
X367024Y92142D02*
X423504Y148622D01*
X440669D01*
X449488Y157441D02*
Y157835D01*
X440669Y148622D02*
X449488Y157441D01*
X306805Y118195D02*
Y178108D01*
Y118195D02*
X308465Y116535D01*
X297071Y187842D02*
X306805Y178108D01*
X358386Y171378D02*
X368779Y181772D01*
X310039Y171378D02*
X358386D01*
X368779Y181772D02*
X464764D01*
X464921Y181929D02*
X465000D01*
X464764Y181772D02*
X464921Y181929D01*
X182165Y188819D02*
X191969Y198622D01*
X180024Y191047D02*
X191890Y202913D01*
X305394Y210630D02*
Y211968D01*
X293779Y223583D02*
X305394Y211968D01*
X197992Y341181D02*
X213858Y325315D01*
X131811Y341181D02*
X197992D01*
X122047Y350945D02*
X131811Y341181D01*
X133528Y343677D02*
X198646D01*
X126969Y350236D02*
X133528Y343677D01*
X126969Y350236D02*
Y368327D01*
X122047Y350945D02*
Y363248D01*
Y373248D02*
X126969Y368327D01*
X213858Y202480D02*
Y325315D01*
X216539Y197815D02*
Y325783D01*
X198646Y343677D02*
X216539Y325783D01*
X273819Y370079D02*
Y375197D01*
X222547Y197744D02*
Y326075D01*
X206417Y342205D02*
X222547Y326075D01*
X206417Y342205D02*
Y368406D01*
X216469Y197744D02*
X216539Y197815D01*
X201575Y343858D02*
Y363248D01*
Y373248D02*
X206417Y368406D01*
X274370Y237008D02*
X365551D01*
X250512Y213150D02*
X274370Y237008D01*
X276496Y234055D02*
X365748D01*
X252126Y209685D02*
X276496Y234055D01*
X434961Y306417D02*
Y372284D01*
X365551Y237008D02*
X434961Y306417D01*
X444961Y313268D02*
Y372284D01*
X365748Y234055D02*
X444961Y313268D01*
X273819Y375197D02*
X277874Y379252D01*
X281653D01*
X346457Y357283D02*
Y371732D01*
X241378Y252205D02*
X346457Y357283D01*
X280315Y363248D02*
X285236Y368169D01*
Y375669D01*
X281653Y379252D02*
X285236Y375669D01*
X244055Y251890D02*
X349095Y356929D01*
X244055Y203595D02*
Y251890D01*
Y203595D02*
X244059Y203591D01*
Y201370D02*
Y203591D01*
X244055Y201366D02*
X244059Y201370D01*
X244055Y197835D02*
Y201366D01*
X278287Y373248D02*
X280315D01*
X349095Y363287D02*
X359055Y373248D01*
Y363248D02*
X359114D01*
X364094Y368228D01*
X394016Y129055D02*
X394252Y128819D01*
X346772Y198150D02*
X352165Y203543D01*
X337559Y198150D02*
X346772D01*
X332165Y203543D02*
X337559Y198150D01*
X324488Y230236D02*
X327205Y227520D01*
X280118Y230236D02*
X324488D01*
X327205Y197756D02*
Y227520D01*
Y197756D02*
X331653Y193307D01*
X335669D01*
X308465Y116535D02*
X376339D01*
X393937Y134134D01*
X302638Y116654D02*
X305906Y113386D01*
X378346D01*
X394016Y129055D01*
X393937Y134134D02*
X399409D01*
X297071Y187842D02*
Y211827D01*
X288346Y220551D02*
X297071Y211827D01*
X280197Y220551D02*
X288346D01*
X298858Y188583D02*
X309724Y177717D01*
X298858Y188583D02*
Y213504D01*
X285866Y226496D02*
X298858Y213504D01*
X276850Y226496D02*
X285866D01*
X361535Y379213D02*
X364094Y376654D01*
Y368228D02*
Y376654D01*
X219858Y202480D02*
Y325575D01*
X201575Y343858D02*
X219858Y325575D01*
X346457Y371732D02*
X353937Y379213D01*
X361535D01*
X349095Y356929D02*
Y363287D01*
X250039Y173622D02*
X261890D01*
X265866Y169646D01*
X335669Y193307D02*
X343504D01*
X348622Y188189D01*
X265787Y162598D02*
X265866Y162677D01*
Y169646D01*
X348622Y177953D02*
Y188189D01*
D23*
X375787Y42913D02*
X426968D01*
Y114173D01*
D108*
X209685Y165827D02*
Y269449D01*
X188150Y290984D02*
X209685Y269449D01*
X181535Y290984D02*
X188150D01*
X195590Y165827D02*
X209685D01*
X225157D02*
X228386Y162598D01*
X210496Y165827D02*
X225157D01*
X242087Y162598D02*
X255787D01*
X228386D02*
X242087D01*
Y184882D02*
X255315Y198110D01*
X242087Y162598D02*
Y184882D01*
X228386Y162598D02*
X228386Y162598D01*
X323661Y136850D02*
Y156811D01*
X297323Y138425D02*
X300551Y141654D01*
X297323Y99409D02*
Y138425D01*
X145866Y280984D02*
X171535D01*
X145827Y281024D02*
X145866Y280984D01*
X145827Y281024D02*
Y281142D01*
X181378Y291142D02*
X181535Y290984D01*
X375787Y42913D02*
Y43307D01*
D110*
X314173Y7677D02*
X387205D01*
X512165Y341260D02*
X518032D01*
X505709Y347716D02*
X512165Y341260D01*
X505709Y347716D02*
Y386811D01*
X388701D02*
X505709D01*
X388701Y363248D02*
Y386811D01*
X142047Y363248D02*
X152559D01*
X97638Y311890D02*
X118386Y291142D01*
X145827D02*
X181378D01*
X118386D02*
X145827D01*
X97638Y311890D02*
Y384252D01*
X221575Y363248D02*
X231417D01*
X300315D02*
X308858D01*
X531102Y283268D02*
Y341260D01*
X518032Y283268D02*
X531102D01*
Y227165D02*
Y283268D01*
X518032Y227165D02*
X531102D01*
X518032Y341260D02*
X531102D01*
X152559Y386811D02*
X231417D01*
X100197D02*
X152559D01*
Y363248D02*
Y386811D01*
X97638Y384252D02*
X100197Y386811D01*
X447126Y7677D02*
Y66535D01*
X387205Y7677D02*
X447126D01*
X387205D02*
Y12598D01*
X434842Y66535D02*
X447126D01*
Y137795D01*
X434842D02*
X447126D01*
X308858Y386811D02*
X388701D01*
X379055Y363248D02*
X388701D01*
X231417Y386811D02*
X308858D01*
Y363248D02*
Y386811D01*
X231417Y363248D02*
Y386811D01*
D111*
X255787Y152598D02*
D03*
X322165Y203543D02*
D03*
X142047Y373248D02*
D03*
X221575D02*
D03*
X300315D02*
D03*
X379055D02*
D03*
X444961Y372284D02*
D03*
X473425D02*
D03*
X285394Y174803D02*
D03*
D112*
X255787Y162598D02*
D03*
X265787Y152598D02*
D03*
Y162598D02*
D03*
X275787Y152598D02*
D03*
Y162598D02*
D03*
X322165Y213543D02*
D03*
X332165Y203543D02*
D03*
Y213543D02*
D03*
X342165Y203543D02*
D03*
Y213543D02*
D03*
X352165Y203543D02*
D03*
Y213543D02*
D03*
X518307Y170236D02*
D03*
X142047Y363248D02*
D03*
X132047Y373248D02*
D03*
Y363248D02*
D03*
X122047Y373248D02*
D03*
Y363248D02*
D03*
X221575D02*
D03*
X211575Y373248D02*
D03*
Y363248D02*
D03*
X201575Y373248D02*
D03*
Y363248D02*
D03*
X300315D02*
D03*
X290315Y373248D02*
D03*
Y363248D02*
D03*
X280315Y373248D02*
D03*
Y363248D02*
D03*
X379055D02*
D03*
X369055Y373248D02*
D03*
Y363248D02*
D03*
X359055Y373248D02*
D03*
Y363248D02*
D03*
X424961Y372284D02*
D03*
X434961D02*
D03*
X493425D02*
D03*
X483425D02*
D03*
X518032Y331260D02*
D03*
Y321260D02*
D03*
Y311260D02*
D03*
Y273268D02*
D03*
Y263268D02*
D03*
Y253268D02*
D03*
Y217165D02*
D03*
Y207165D02*
D03*
Y197165D02*
D03*
X275394Y174803D02*
D03*
X145827Y151142D02*
D03*
Y161142D02*
D03*
Y171142D02*
D03*
Y181142D02*
D03*
Y191142D02*
D03*
Y201142D02*
D03*
Y211142D02*
D03*
Y221142D02*
D03*
Y231142D02*
D03*
Y241142D02*
D03*
Y251142D02*
D03*
Y261142D02*
D03*
Y271142D02*
D03*
Y281142D02*
D03*
Y291142D02*
D03*
D113*
X519095Y49213D02*
D03*
X519095Y108543D02*
D03*
D114*
X519095Y68898D02*
D03*
X519095Y128228D02*
D03*
D115*
X518307Y160236D02*
D03*
X518032Y341260D02*
D03*
Y283268D02*
D03*
Y227165D02*
D03*
X145827Y301142D02*
D03*
D116*
X181535Y270984D02*
D03*
X434449Y175118D02*
D03*
D117*
X171535Y280984D02*
D03*
X181535Y290984D02*
D03*
X444449Y165118D02*
D03*
X434449Y155118D02*
D03*
D118*
X342724Y44591D02*
D03*
D119*
Y20968D02*
D03*
D120*
X361228Y32779D02*
D03*
D121*
X434842Y137795D02*
D03*
Y66535D02*
D03*
D122*
X426968Y114173D02*
D03*
X434842Y90551D02*
D03*
X482874D02*
D03*
Y137795D02*
D03*
X426968Y42913D02*
D03*
X434842Y19291D02*
D03*
X482874D02*
D03*
Y66535D02*
D03*
D123*
X197224Y39961D02*
D03*
X207224D02*
D03*
Y47835D02*
D03*
X197224D02*
D03*
D124*
X226165Y29689D02*
D03*
X178724D02*
D03*
D125*
X414173Y192126D02*
D03*
X160827Y271260D02*
D03*
X182087Y260236D02*
D03*
X376181Y144488D02*
D03*
X334842Y133071D02*
D03*
X276575Y295276D02*
D03*
X269882Y288976D02*
D03*
X262795Y282283D02*
D03*
X255315Y275197D02*
D03*
X194291Y351575D02*
D03*
X180905Y351181D02*
D03*
X166732D02*
D03*
X154528D02*
D03*
X142717D02*
D03*
X200984Y177953D02*
D03*
X189961Y170472D02*
D03*
X184055Y205512D02*
D03*
X264764Y242913D02*
D03*
X249803Y202362D02*
D03*
X297441Y156299D02*
D03*
X288386Y162992D02*
D03*
X289567Y125984D02*
D03*
X268701Y74016D02*
D03*
X415551Y55118D02*
D03*
X287205Y47244D02*
D03*
X254134Y35039D02*
D03*
X316764Y9000D02*
D03*
Y18000D02*
D03*
Y26000D02*
D03*
Y34000D02*
D03*
X306764D02*
D03*
X298764D02*
D03*
X287945Y9000D02*
D03*
Y18000D02*
D03*
Y26000D02*
D03*
Y34000D02*
D03*
X212764Y63000D02*
D03*
X238764Y57000D02*
D03*
X253764Y46000D02*
D03*
X268764Y58000D02*
D03*
X308858Y75197D02*
D03*
X364764Y83000D02*
D03*
X379764Y86000D02*
D03*
X376772Y24016D02*
D03*
X412764Y90000D02*
D03*
X399764Y115000D02*
D03*
X391764Y106000D02*
D03*
X399764D02*
D03*
X396764Y98000D02*
D03*
X388764D02*
D03*
X381764D02*
D03*
X464764Y165819D02*
D03*
Y160819D02*
D03*
X469764D02*
D03*
Y165819D02*
D03*
X448764Y149000D02*
D03*
X400984Y168898D02*
D03*
X502764Y178000D02*
D03*
X458764Y60000D02*
D03*
X465764D02*
D03*
Y46000D02*
D03*
X458764D02*
D03*
Y31000D02*
D03*
X465764D02*
D03*
Y103000D02*
D03*
X458764D02*
D03*
Y118000D02*
D03*
X465764D02*
D03*
Y132000D02*
D03*
X458764D02*
D03*
X504764Y147937D02*
D03*
X151764Y86000D02*
D03*
X145764D02*
D03*
X139764D02*
D03*
Y79000D02*
D03*
X145764D02*
D03*
X151764D02*
D03*
Y72000D02*
D03*
X145764D02*
D03*
X139764D02*
D03*
Y65000D02*
D03*
X145764D02*
D03*
X151764D02*
D03*
X139764Y58000D02*
D03*
X145764D02*
D03*
X151764D02*
D03*
Y131000D02*
D03*
X145764D02*
D03*
X139764D02*
D03*
Y124000D02*
D03*
X145764D02*
D03*
X151764D02*
D03*
Y117000D02*
D03*
X145764D02*
D03*
X139764D02*
D03*
Y110000D02*
D03*
X145764D02*
D03*
X151764D02*
D03*
X139764Y103000D02*
D03*
X145764D02*
D03*
X151764D02*
D03*
X227756Y266535D02*
D03*
X228764Y301000D02*
D03*
X397764Y280000D02*
D03*
X380764D02*
D03*
X365764D02*
D03*
X351764D02*
D03*
X337764D02*
D03*
X324764D02*
D03*
X310827Y279921D02*
D03*
X308575Y268504D02*
D03*
X317575D02*
D03*
X326575D02*
D03*
X335575D02*
D03*
X345575D02*
D03*
X356575D02*
D03*
X367575D02*
D03*
X378575D02*
D03*
X388575D02*
D03*
X497402Y353583D02*
D03*
Y345583D02*
D03*
Y338583D02*
D03*
X490402D02*
D03*
Y345583D02*
D03*
Y353583D02*
D03*
X185764Y305000D02*
D03*
X191764D02*
D03*
X197764D02*
D03*
Y312000D02*
D03*
X191764D02*
D03*
X185764D02*
D03*
Y319000D02*
D03*
X191764D02*
D03*
X197764D02*
D03*
Y326000D02*
D03*
X191764D02*
D03*
X185764D02*
D03*
X197764Y333000D02*
D03*
X191764D02*
D03*
X185764D02*
D03*
X116764D02*
D03*
Y327000D02*
D03*
Y321000D02*
D03*
X123764D02*
D03*
Y327000D02*
D03*
Y333000D02*
D03*
X130764D02*
D03*
Y327000D02*
D03*
Y321000D02*
D03*
X137764D02*
D03*
Y327000D02*
D03*
Y333000D02*
D03*
X144764Y321000D02*
D03*
Y327000D02*
D03*
Y333000D02*
D03*
X150764D02*
D03*
Y327000D02*
D03*
Y321000D02*
D03*
X157764D02*
D03*
Y327000D02*
D03*
Y333000D02*
D03*
X164764D02*
D03*
Y327000D02*
D03*
Y321000D02*
D03*
X171764D02*
D03*
Y327000D02*
D03*
Y333000D02*
D03*
X178764Y321000D02*
D03*
Y327000D02*
D03*
Y333000D02*
D03*
X225087Y340945D02*
D03*
Y346945D02*
D03*
Y352945D02*
D03*
X232087D02*
D03*
Y346945D02*
D03*
Y340945D02*
D03*
X239087D02*
D03*
Y346945D02*
D03*
Y352945D02*
D03*
X304307Y349000D02*
D03*
Y343000D02*
D03*
Y337000D02*
D03*
X311307D02*
D03*
Y343000D02*
D03*
Y349000D02*
D03*
X318307D02*
D03*
Y343000D02*
D03*
Y337000D02*
D03*
X325307Y343000D02*
D03*
Y349000D02*
D03*
X332307D02*
D03*
X390764Y347000D02*
D03*
Y341000D02*
D03*
Y335000D02*
D03*
X397764D02*
D03*
Y341000D02*
D03*
Y347000D02*
D03*
X404764D02*
D03*
Y341000D02*
D03*
Y335000D02*
D03*
X411764D02*
D03*
Y341000D02*
D03*
Y347000D02*
D03*
X418764Y335000D02*
D03*
Y341000D02*
D03*
Y347000D02*
D03*
X480764Y251000D02*
D03*
X474764D02*
D03*
X468764D02*
D03*
Y244000D02*
D03*
X474764D02*
D03*
X480764D02*
D03*
Y237000D02*
D03*
X474764D02*
D03*
X468764D02*
D03*
Y230000D02*
D03*
X474764D02*
D03*
X480764D02*
D03*
X468764Y223000D02*
D03*
X474764D02*
D03*
X480764D02*
D03*
X481764Y279000D02*
D03*
X475764D02*
D03*
X469764D02*
D03*
X481764Y286000D02*
D03*
X475764D02*
D03*
X469764D02*
D03*
Y293000D02*
D03*
X475764D02*
D03*
X481764D02*
D03*
Y300000D02*
D03*
X475764D02*
D03*
X469764D02*
D03*
Y307000D02*
D03*
X475764D02*
D03*
X481764D02*
D03*
X275472Y107717D02*
D03*
X161575Y221654D02*
D03*
X185472Y245354D02*
D03*
X164961Y173228D02*
D03*
X203543Y141732D02*
D03*
X221063Y173661D02*
D03*
X236417Y121260D02*
D03*
X228346Y149213D02*
D03*
X226614Y191772D02*
D03*
X277244Y198701D02*
D03*
X267520Y181890D02*
D03*
X256102Y190157D02*
D03*
X229331Y234646D02*
D03*
X204134Y241732D02*
D03*
D126*
X241378Y202480D02*
D03*
X238146Y197744D02*
D03*
X235378Y202480D02*
D03*
X199764Y96732D02*
D03*
X215512Y116417D02*
D03*
X195236Y96850D02*
D03*
X230866Y110827D02*
D03*
X255315Y198110D02*
D03*
X310039Y171378D02*
D03*
X465000Y181929D02*
D03*
X244055Y197835D02*
D03*
X195590Y165827D02*
D03*
X228386Y162598D02*
D03*
X191890Y202913D02*
D03*
X194055Y195276D02*
D03*
X191969Y198622D02*
D03*
X409449Y48465D02*
D03*
X403819Y90354D02*
D03*
X293779Y223583D02*
D03*
X302638Y116654D02*
D03*
X308465Y116535D02*
D03*
X323661Y136850D02*
D03*
Y156811D02*
D03*
X300551Y141654D02*
D03*
X297323Y99409D02*
D03*
X280118Y230236D02*
D03*
X280197Y220551D02*
D03*
X305394Y210630D02*
D03*
X276850Y226496D02*
D03*
X252126Y209685D02*
D03*
X250512Y213150D02*
D03*
X216469Y197744D02*
D03*
X222547D02*
D03*
X219858Y202480D02*
D03*
X213858D02*
D03*
X449488Y157835D02*
D03*
X309724Y177717D02*
D03*
X335669Y193307D02*
D03*
X394016Y129055D02*
D03*
X250039Y173622D02*
D03*
X348622Y177953D02*
D03*
X399409Y134134D02*
D03*
X375787Y43307D02*
D03*
X387205Y12598D02*
D03*
M02*
