G04*
G04 #@! TF.GenerationSoftware,Altium Limited,Altium Designer,20.0.1 (14)*
G04*
G04 Layer_Color=16711935*
%FSLAX25Y25*%
%MOIN*%
G70*
G01*
G75*
%ADD18C,0.00500*%
%ADD127C,0.00100*%
%ADD128C,0.00000*%
%ADD129C,0.00400*%
%ADD130C,0.00394*%
D18*
X360441Y-9347D02*
Y47346D01*
X325008Y-9347D02*
X360441D01*
X325008D02*
Y47346D01*
X360441D01*
X421260Y83661D02*
Y144685D01*
X496457D01*
Y83661D02*
Y144685D01*
X421260Y83661D02*
X496457D01*
X421260Y12402D02*
Y73425D01*
X496457D01*
Y12402D02*
Y73425D01*
X421260Y12402D02*
X496457D01*
D127*
X367829Y133085D02*
Y134985D01*
Y128085D02*
Y129985D01*
Y123085D02*
Y124985D01*
Y118085D02*
Y119985D01*
D128*
X386792Y137973D02*
X387144Y137124D01*
X387992Y136773D01*
X388841Y137124D01*
X389192Y137973D01*
D129*
X332874Y185343D02*
X333661Y184555D01*
X334449Y185343D01*
X336024D02*
X336811Y184555D01*
X337598Y185343D01*
X339173D02*
X339961Y184555D01*
X340748Y185343D01*
Y179437D02*
X339961Y180224D01*
X339173Y179437D01*
X337598D02*
X336811Y180224D01*
X336024Y179437D01*
X334449D02*
X333661Y180224D01*
X332874Y179437D01*
X306024Y110776D02*
X306811Y109988D01*
X307598Y110776D01*
X309173D02*
X309961Y109988D01*
X310748Y110776D01*
X312323D02*
X313110Y109988D01*
X313898Y110776D01*
Y104870D02*
X313110Y105657D01*
X312323Y104870D01*
X310748D02*
X309961Y105657D01*
X309173Y104870D01*
X307598D02*
X306811Y105657D01*
X306024Y104870D01*
X204449Y102059D02*
X203661Y102847D01*
X202874Y102059D01*
X201299D02*
X200512Y102847D01*
X199724Y102059D01*
X198150D02*
X197362Y102847D01*
X196575Y102059D01*
Y107965D02*
X197362Y107177D01*
X198150Y107965D01*
X199724D02*
X200512Y107177D01*
X201299Y107965D01*
X202874D02*
X203661Y107177D01*
X204449Y107965D01*
X330709Y185343D02*
X332874D01*
X334449D02*
X336024D01*
X337598D02*
X339173D01*
X340748D02*
X342913D01*
Y179437D02*
Y185343D01*
X330709Y179437D02*
Y185343D01*
X340748Y179437D02*
X342913D01*
X337598D02*
X339173D01*
X334449D02*
X336024D01*
X330709D02*
X332874D01*
X303858Y110776D02*
X306024D01*
X307598D02*
X309173D01*
X310748D02*
X312323D01*
X313898D02*
X316063D01*
Y104870D02*
Y110776D01*
X303858Y104870D02*
Y110776D01*
X313898Y104870D02*
X316063D01*
X310748D02*
X312323D01*
X307598D02*
X309173D01*
X303858D02*
X306024D01*
X204449Y102059D02*
X206614D01*
X201299D02*
X202874D01*
X198150D02*
X199724D01*
X194409D02*
X196575D01*
X194409D02*
Y107965D01*
X206614Y102059D02*
Y107965D01*
X194409D02*
X196575D01*
X198150D02*
X199724D01*
X201299D02*
X202874D01*
X204449D02*
X206614D01*
D130*
X466291Y177108D02*
X474291D01*
X466291Y174108D02*
X474291D01*
X466291D02*
Y177108D01*
X474291Y174108D02*
Y177108D01*
X328646Y147341D02*
Y161908D01*
X355024Y147341D02*
Y161908D01*
X328646Y147341D02*
X355024D01*
X328646Y161908D02*
X355024D01*
X240138Y102744D02*
X254311D01*
Y62193D02*
Y102744D01*
X240138Y62193D02*
X254311D01*
X240138D02*
Y102744D01*
X240138Y98532D02*
X244314Y102707D01*
X222656Y102629D02*
Y110629D01*
X225656Y102629D02*
Y110629D01*
X222656Y102629D02*
X225656D01*
X222656Y110629D02*
X225656D01*
X173483Y110598D02*
X176483D01*
X173483Y102598D02*
X176483D01*
Y110598D01*
X173483Y102598D02*
Y110598D01*
X213916Y110629D02*
X216916D01*
X213916Y102629D02*
X216916D01*
Y110629D01*
X213916Y102629D02*
Y110629D01*
X291335Y40357D02*
X317713D01*
X291335Y25790D02*
X317713D01*
Y40357D01*
X291335Y25790D02*
Y40357D01*
M02*
