G04*
G04 #@! TF.GenerationSoftware,Altium Limited,Altium Designer,20.0.1 (14)*
G04*
G04 Layer_Color=16711935*
%FSLAX25Y25*%
%MOIN*%
G70*
G01*
G75*
%ADD17C,0.00787*%
%ADD92R,0.06706X0.06706*%
%ADD93C,0.06706*%
%ADD94C,0.08040*%
%ADD95R,0.08040X0.08040*%
%ADD96R,0.06706X0.06706*%
%ADD97R,0.06312X0.06312*%
%ADD98C,0.06312*%
%ADD99O,0.20485X0.10642*%
%ADD100O,0.18517X0.09658*%
%ADD101O,0.09658X0.18517*%
%ADD102R,0.08674X0.08674*%
%ADD103C,0.08674*%
%ADD104O,0.07887X0.05524*%
%ADD105O,0.10642X0.16548*%
%ADD106C,0.03950*%
%ADD107C,0.03162*%
D17*
X525240Y370035D02*
D03*
X525240Y19012D02*
D03*
X36736Y22043D02*
D03*
Y370035D02*
D03*
D92*
X255787Y152598D02*
D03*
X322165Y203543D02*
D03*
X142047Y373248D02*
D03*
X221575D02*
D03*
X300315D02*
D03*
X379055D02*
D03*
X444961Y372284D02*
D03*
X473425D02*
D03*
X285394Y174803D02*
D03*
D93*
X255787Y162598D02*
D03*
X265787Y152598D02*
D03*
Y162598D02*
D03*
X275787Y152598D02*
D03*
Y162598D02*
D03*
X322165Y213543D02*
D03*
X332165Y203543D02*
D03*
Y213543D02*
D03*
X342165Y203543D02*
D03*
Y213543D02*
D03*
X352165Y203543D02*
D03*
Y213543D02*
D03*
X518307Y170236D02*
D03*
X142047Y363248D02*
D03*
X132047Y373248D02*
D03*
Y363248D02*
D03*
X122047Y373248D02*
D03*
Y363248D02*
D03*
X221575D02*
D03*
X211575Y373248D02*
D03*
Y363248D02*
D03*
X201575Y373248D02*
D03*
Y363248D02*
D03*
X300315D02*
D03*
X290315Y373248D02*
D03*
Y363248D02*
D03*
X280315Y373248D02*
D03*
Y363248D02*
D03*
X379055D02*
D03*
X369055Y373248D02*
D03*
Y363248D02*
D03*
X359055Y373248D02*
D03*
Y363248D02*
D03*
X424961Y372284D02*
D03*
X434961D02*
D03*
X493425D02*
D03*
X483425D02*
D03*
X518032Y331260D02*
D03*
Y321260D02*
D03*
Y311260D02*
D03*
Y273268D02*
D03*
Y263268D02*
D03*
Y253268D02*
D03*
Y217165D02*
D03*
Y207165D02*
D03*
Y197165D02*
D03*
X275394Y174803D02*
D03*
X145827Y151142D02*
D03*
Y161142D02*
D03*
Y171142D02*
D03*
Y181142D02*
D03*
Y191142D02*
D03*
Y201142D02*
D03*
Y211142D02*
D03*
Y221142D02*
D03*
Y231142D02*
D03*
Y241142D02*
D03*
Y251142D02*
D03*
Y261142D02*
D03*
Y271142D02*
D03*
Y281142D02*
D03*
Y291142D02*
D03*
D94*
X519095Y49213D02*
D03*
X519095Y108543D02*
D03*
D95*
X519095Y68898D02*
D03*
X519095Y128228D02*
D03*
D96*
X518307Y160236D02*
D03*
X518032Y341260D02*
D03*
Y283268D02*
D03*
Y227165D02*
D03*
X145827Y301142D02*
D03*
D97*
X181535Y270984D02*
D03*
X434449Y175118D02*
D03*
D98*
X171535Y280984D02*
D03*
X181535Y290984D02*
D03*
X444449Y165118D02*
D03*
X434449Y155118D02*
D03*
D99*
X342724Y44591D02*
D03*
D100*
Y20968D02*
D03*
D101*
X361228Y32779D02*
D03*
D102*
X434842Y137795D02*
D03*
Y66535D02*
D03*
D103*
X426968Y114173D02*
D03*
X434842Y90551D02*
D03*
X482874D02*
D03*
Y137795D02*
D03*
X426968Y42913D02*
D03*
X434842Y19291D02*
D03*
X482874D02*
D03*
Y66535D02*
D03*
D104*
X197224Y39961D02*
D03*
X207224D02*
D03*
Y47835D02*
D03*
X197224D02*
D03*
D105*
X226165Y29689D02*
D03*
X178724D02*
D03*
D106*
X414173Y192126D02*
D03*
X160827Y271260D02*
D03*
X182087Y260236D02*
D03*
X376181Y144488D02*
D03*
X334842Y133071D02*
D03*
X276575Y295276D02*
D03*
X269882Y288976D02*
D03*
X262795Y282283D02*
D03*
X255315Y275197D02*
D03*
X194291Y351575D02*
D03*
X180905Y351181D02*
D03*
X166732D02*
D03*
X154528D02*
D03*
X142717D02*
D03*
X200984Y177953D02*
D03*
X189961Y170472D02*
D03*
X184055Y205512D02*
D03*
X264764Y242913D02*
D03*
X249803Y202362D02*
D03*
X297441Y156299D02*
D03*
X288386Y162992D02*
D03*
X289567Y125984D02*
D03*
X268701Y74016D02*
D03*
X415551Y55118D02*
D03*
X287205Y47244D02*
D03*
X254134Y35039D02*
D03*
X316764Y9000D02*
D03*
Y18000D02*
D03*
Y26000D02*
D03*
Y34000D02*
D03*
X306764D02*
D03*
X298764D02*
D03*
X287945Y9000D02*
D03*
Y18000D02*
D03*
Y26000D02*
D03*
Y34000D02*
D03*
X212764Y63000D02*
D03*
X238764Y57000D02*
D03*
X253764Y46000D02*
D03*
X268764Y58000D02*
D03*
X308858Y75197D02*
D03*
X364764Y83000D02*
D03*
X379764Y86000D02*
D03*
X376772Y24016D02*
D03*
X412764Y90000D02*
D03*
X399764Y115000D02*
D03*
X391764Y106000D02*
D03*
X399764D02*
D03*
X396764Y98000D02*
D03*
X388764D02*
D03*
X381764D02*
D03*
X464764Y165819D02*
D03*
Y160819D02*
D03*
X469764D02*
D03*
Y165819D02*
D03*
X448764Y149000D02*
D03*
X400984Y168898D02*
D03*
X502764Y178000D02*
D03*
X458764Y60000D02*
D03*
X465764D02*
D03*
Y46000D02*
D03*
X458764D02*
D03*
Y31000D02*
D03*
X465764D02*
D03*
Y103000D02*
D03*
X458764D02*
D03*
Y118000D02*
D03*
X465764D02*
D03*
Y132000D02*
D03*
X458764D02*
D03*
X504764Y147937D02*
D03*
X151764Y86000D02*
D03*
X145764D02*
D03*
X139764D02*
D03*
Y79000D02*
D03*
X145764D02*
D03*
X151764D02*
D03*
Y72000D02*
D03*
X145764D02*
D03*
X139764D02*
D03*
Y65000D02*
D03*
X145764D02*
D03*
X151764D02*
D03*
X139764Y58000D02*
D03*
X145764D02*
D03*
X151764D02*
D03*
Y131000D02*
D03*
X145764D02*
D03*
X139764D02*
D03*
Y124000D02*
D03*
X145764D02*
D03*
X151764D02*
D03*
Y117000D02*
D03*
X145764D02*
D03*
X139764D02*
D03*
Y110000D02*
D03*
X145764D02*
D03*
X151764D02*
D03*
X139764Y103000D02*
D03*
X145764D02*
D03*
X151764D02*
D03*
X227756Y266535D02*
D03*
X228764Y301000D02*
D03*
X397764Y280000D02*
D03*
X380764D02*
D03*
X365764D02*
D03*
X351764D02*
D03*
X337764D02*
D03*
X324764D02*
D03*
X310827Y279921D02*
D03*
X308575Y268504D02*
D03*
X317575D02*
D03*
X326575D02*
D03*
X335575D02*
D03*
X345575D02*
D03*
X356575D02*
D03*
X367575D02*
D03*
X378575D02*
D03*
X388575D02*
D03*
X497402Y353583D02*
D03*
Y345583D02*
D03*
Y338583D02*
D03*
X490402D02*
D03*
Y345583D02*
D03*
Y353583D02*
D03*
X185764Y305000D02*
D03*
X191764D02*
D03*
X197764D02*
D03*
Y312000D02*
D03*
X191764D02*
D03*
X185764D02*
D03*
Y319000D02*
D03*
X191764D02*
D03*
X197764D02*
D03*
Y326000D02*
D03*
X191764D02*
D03*
X185764D02*
D03*
X197764Y333000D02*
D03*
X191764D02*
D03*
X185764D02*
D03*
X116764D02*
D03*
Y327000D02*
D03*
Y321000D02*
D03*
X123764D02*
D03*
Y327000D02*
D03*
Y333000D02*
D03*
X130764D02*
D03*
Y327000D02*
D03*
Y321000D02*
D03*
X137764D02*
D03*
Y327000D02*
D03*
Y333000D02*
D03*
X144764Y321000D02*
D03*
Y327000D02*
D03*
Y333000D02*
D03*
X150764D02*
D03*
Y327000D02*
D03*
Y321000D02*
D03*
X157764D02*
D03*
Y327000D02*
D03*
Y333000D02*
D03*
X164764D02*
D03*
Y327000D02*
D03*
Y321000D02*
D03*
X171764D02*
D03*
Y327000D02*
D03*
Y333000D02*
D03*
X178764Y321000D02*
D03*
Y327000D02*
D03*
Y333000D02*
D03*
X225087Y340945D02*
D03*
Y346945D02*
D03*
Y352945D02*
D03*
X232087D02*
D03*
Y346945D02*
D03*
Y340945D02*
D03*
X239087D02*
D03*
Y346945D02*
D03*
Y352945D02*
D03*
X304307Y349000D02*
D03*
Y343000D02*
D03*
Y337000D02*
D03*
X311307D02*
D03*
Y343000D02*
D03*
Y349000D02*
D03*
X318307D02*
D03*
Y343000D02*
D03*
Y337000D02*
D03*
X325307Y343000D02*
D03*
Y349000D02*
D03*
X332307D02*
D03*
X390764Y347000D02*
D03*
Y341000D02*
D03*
Y335000D02*
D03*
X397764D02*
D03*
Y341000D02*
D03*
Y347000D02*
D03*
X404764D02*
D03*
Y341000D02*
D03*
Y335000D02*
D03*
X411764D02*
D03*
Y341000D02*
D03*
Y347000D02*
D03*
X418764Y335000D02*
D03*
Y341000D02*
D03*
Y347000D02*
D03*
X480764Y251000D02*
D03*
X474764D02*
D03*
X468764D02*
D03*
Y244000D02*
D03*
X474764D02*
D03*
X480764D02*
D03*
Y237000D02*
D03*
X474764D02*
D03*
X468764D02*
D03*
Y230000D02*
D03*
X474764D02*
D03*
X480764D02*
D03*
X468764Y223000D02*
D03*
X474764D02*
D03*
X480764D02*
D03*
X481764Y279000D02*
D03*
X475764D02*
D03*
X469764D02*
D03*
X481764Y286000D02*
D03*
X475764D02*
D03*
X469764D02*
D03*
Y293000D02*
D03*
X475764D02*
D03*
X481764D02*
D03*
Y300000D02*
D03*
X475764D02*
D03*
X469764D02*
D03*
Y307000D02*
D03*
X475764D02*
D03*
X481764D02*
D03*
X275472Y107717D02*
D03*
X161575Y221654D02*
D03*
X185472Y245354D02*
D03*
X164961Y173228D02*
D03*
X203543Y141732D02*
D03*
X221063Y173661D02*
D03*
X236417Y121260D02*
D03*
X228346Y149213D02*
D03*
X226614Y191772D02*
D03*
X277244Y198701D02*
D03*
X267520Y181890D02*
D03*
X256102Y190157D02*
D03*
X229331Y234646D02*
D03*
X204134Y241732D02*
D03*
D107*
X241378Y202480D02*
D03*
X238146Y197744D02*
D03*
X235378Y202480D02*
D03*
X199764Y96732D02*
D03*
X215512Y116417D02*
D03*
X195236Y96850D02*
D03*
X230866Y110827D02*
D03*
X255315Y198110D02*
D03*
X310039Y171378D02*
D03*
X465000Y181929D02*
D03*
X244055Y197835D02*
D03*
X195590Y165827D02*
D03*
X228386Y162598D02*
D03*
X191890Y202913D02*
D03*
X194055Y195276D02*
D03*
X191969Y198622D02*
D03*
X409449Y48465D02*
D03*
X403819Y90354D02*
D03*
X293779Y223583D02*
D03*
X302638Y116654D02*
D03*
X308465Y116535D02*
D03*
X323661Y136850D02*
D03*
Y156811D02*
D03*
X300551Y141654D02*
D03*
X297323Y99409D02*
D03*
X280118Y230236D02*
D03*
X280197Y220551D02*
D03*
X305394Y210630D02*
D03*
X276850Y226496D02*
D03*
X252126Y209685D02*
D03*
X250512Y213150D02*
D03*
X216469Y197744D02*
D03*
X222547D02*
D03*
X219858Y202480D02*
D03*
X213858D02*
D03*
X449488Y157835D02*
D03*
X309724Y177717D02*
D03*
X335669Y193307D02*
D03*
X394016Y129055D02*
D03*
X250039Y173622D02*
D03*
X348622Y177953D02*
D03*
X399409Y134134D02*
D03*
X375787Y43307D02*
D03*
X387205Y12598D02*
D03*
M02*
