G04*
G04 #@! TF.GenerationSoftware,Altium Limited,Altium Designer,20.0.1 (14)*
G04*
G04 Layer_Color=255*
%FSLAX25Y25*%
%MOIN*%
G70*
G01*
G75*
%ADD111R,0.05906X0.05906*%
%ADD112C,0.05906*%
%ADD113C,0.08000*%
%ADD114R,0.08000X0.08000*%
%ADD115R,0.05906X0.05906*%
%ADD116R,0.05512X0.05512*%
%ADD117C,0.05512*%
%ADD118O,0.19685X0.09843*%
%ADD119O,0.17717X0.08858*%
%ADD120O,0.08858X0.17717*%
%ADD121R,0.07874X0.07874*%
%ADD122C,0.07874*%
%ADD123O,0.07087X0.04724*%
%ADD124O,0.09843X0.15748*%
D111*
X255787Y152598D02*
D03*
X322165Y203543D02*
D03*
X142047Y373248D02*
D03*
X221575D02*
D03*
X300315D02*
D03*
X379055D02*
D03*
X444961Y372284D02*
D03*
X473425D02*
D03*
X285394Y174803D02*
D03*
D112*
X255787Y162598D02*
D03*
X265787Y152598D02*
D03*
Y162598D02*
D03*
X275787Y152598D02*
D03*
Y162598D02*
D03*
X322165Y213543D02*
D03*
X332165Y203543D02*
D03*
Y213543D02*
D03*
X342165Y203543D02*
D03*
Y213543D02*
D03*
X352165Y203543D02*
D03*
Y213543D02*
D03*
X518307Y170236D02*
D03*
X142047Y363248D02*
D03*
X132047Y373248D02*
D03*
Y363248D02*
D03*
X122047Y373248D02*
D03*
Y363248D02*
D03*
X221575D02*
D03*
X211575Y373248D02*
D03*
Y363248D02*
D03*
X201575Y373248D02*
D03*
Y363248D02*
D03*
X300315D02*
D03*
X290315Y373248D02*
D03*
Y363248D02*
D03*
X280315Y373248D02*
D03*
Y363248D02*
D03*
X379055D02*
D03*
X369055Y373248D02*
D03*
Y363248D02*
D03*
X359055Y373248D02*
D03*
Y363248D02*
D03*
X424961Y372284D02*
D03*
X434961D02*
D03*
X493425D02*
D03*
X483425D02*
D03*
X518032Y331260D02*
D03*
Y321260D02*
D03*
Y311260D02*
D03*
Y273268D02*
D03*
Y263268D02*
D03*
Y253268D02*
D03*
Y217165D02*
D03*
Y207165D02*
D03*
Y197165D02*
D03*
X275394Y174803D02*
D03*
X145827Y151142D02*
D03*
Y161142D02*
D03*
Y171142D02*
D03*
Y181142D02*
D03*
Y191142D02*
D03*
Y201142D02*
D03*
Y211142D02*
D03*
Y221142D02*
D03*
Y231142D02*
D03*
Y241142D02*
D03*
Y251142D02*
D03*
Y261142D02*
D03*
Y271142D02*
D03*
Y281142D02*
D03*
Y291142D02*
D03*
D113*
X519095Y49213D02*
D03*
X519095Y108543D02*
D03*
D114*
X519095Y68898D02*
D03*
X519095Y128228D02*
D03*
D115*
X518307Y160236D02*
D03*
X518032Y341260D02*
D03*
Y283268D02*
D03*
Y227165D02*
D03*
X145827Y301142D02*
D03*
D116*
X181535Y270984D02*
D03*
X434449Y175118D02*
D03*
D117*
X171535Y280984D02*
D03*
X181535Y290984D02*
D03*
X444449Y165118D02*
D03*
X434449Y155118D02*
D03*
D118*
X342724Y44591D02*
D03*
D119*
Y20968D02*
D03*
D120*
X361228Y32779D02*
D03*
D121*
X434842Y137795D02*
D03*
Y66535D02*
D03*
D122*
X426968Y114173D02*
D03*
X434842Y90551D02*
D03*
X482874D02*
D03*
Y137795D02*
D03*
X426968Y42913D02*
D03*
X434842Y19291D02*
D03*
X482874D02*
D03*
Y66535D02*
D03*
D123*
X197224Y39961D02*
D03*
X207224D02*
D03*
Y47835D02*
D03*
X197224D02*
D03*
D124*
X226165Y29689D02*
D03*
X178724D02*
D03*
M02*
