G04*
G04 #@! TF.GenerationSoftware,Altium Limited,Altium Designer,20.0.1 (14)*
G04*
G04 Layer_Color=65535*
%FSLAX25Y25*%
%MOIN*%
G70*
G01*
G75*
%ADD10C,0.01000*%
%ADD11C,0.00787*%
%ADD12C,0.00984*%
%ADD13C,0.01575*%
%ADD14C,0.01181*%
%ADD15C,0.02756*%
%ADD16C,0.01968*%
%ADD17C,0.00787*%
%ADD18C,0.00500*%
%ADD19C,0.01200*%
%ADD20C,0.00799*%
%ADD21C,0.00800*%
%ADD22C,0.00600*%
%ADD23C,0.03937*%
%ADD24C,0.01299*%
%ADD25R,0.02134X0.00772*%
%ADD26R,0.06299X0.01535*%
%ADD27R,0.03032X0.05929*%
%ADD28R,0.05709X0.01535*%
%ADD29R,0.04890X0.01284*%
%ADD30R,0.04291X0.01142*%
%ADD31R,0.03551X0.01205*%
%ADD32R,0.02921X0.00772*%
%ADD33R,0.00433X0.00197*%
%ADD34R,0.02874X0.01181*%
%ADD35R,0.03661X0.01181*%
%ADD36R,0.04921X0.01299*%
%ADD37R,0.02874X0.19331*%
%ADD38R,0.03032X0.06142*%
%ADD39R,0.06535X0.01496*%
%ADD40R,0.00787X0.22441*%
G36*
X175855Y107075D02*
X175029Y106005D01*
X174202Y107075D01*
X175855Y107075D01*
D02*
G37*
G36*
X216276Y107126D02*
X215449Y106056D01*
X214622Y107126D01*
X216276Y107126D01*
D02*
G37*
G36*
X225016D02*
X224189Y106056D01*
X223362Y107126D01*
X225016Y107126D01*
D02*
G37*
G36*
X265701Y121618D02*
D01*
D02*
G37*
G36*
X316063Y129134D02*
D01*
D02*
G37*
G36*
X319016Y128819D02*
X316220Y126653D01*
X319016Y124409D01*
Y128819D01*
D02*
G37*
G36*
X470768Y174735D02*
X469698Y175562D01*
X470768Y176389D01*
X470768Y174735D01*
D02*
G37*
D10*
X535083Y370035D02*
X535032Y371031D01*
X534881Y372017D01*
X534631Y372982D01*
X534285Y373917D01*
X533846Y374812D01*
X533319Y375658D01*
X532708Y376447D01*
X532021Y377169D01*
X531265Y377819D01*
X530446Y378388D01*
X529575Y378872D01*
X528658Y379265D01*
X527707Y379564D01*
X526731Y379764D01*
X525739Y379865D01*
X524742D01*
X523750Y379764D01*
X522773Y379564D01*
X521822Y379265D01*
X520906Y378872D01*
X520034Y378388D01*
X519215Y377819D01*
X518459Y377169D01*
X517772Y376447D01*
X517162Y375658D01*
X516634Y374812D01*
X516195Y373917D01*
X515849Y372982D01*
X515599Y372017D01*
X515448Y371031D01*
X515398Y370035D01*
X515448Y369040D01*
X515599Y368054D01*
X515849Y367089D01*
X516195Y366154D01*
X516634Y365259D01*
X517162Y364413D01*
X517772Y363624D01*
X518459Y362902D01*
X519215Y362252D01*
X520034Y361683D01*
X520906Y361199D01*
X521822Y360806D01*
X522773Y360507D01*
X523750Y360306D01*
X524742Y360206D01*
X525739D01*
X526731Y360306D01*
X527707Y360507D01*
X528659Y360806D01*
X529575Y361199D01*
X530446Y361683D01*
X531265Y362252D01*
X532021Y362902D01*
X532708Y363624D01*
X533319Y364413D01*
X533846Y365259D01*
X534285Y366154D01*
X534631Y367089D01*
X534881Y368054D01*
X535032Y369040D01*
X535083Y370035D01*
X535083Y19012D02*
X535032Y20008D01*
X534881Y20993D01*
X534631Y21958D01*
X534285Y22893D01*
X533846Y23788D01*
X533319Y24634D01*
X532708Y25423D01*
X532021Y26146D01*
X531265Y26795D01*
X530446Y27365D01*
X529575Y27849D01*
X528658Y28242D01*
X527707Y28540D01*
X526731Y28741D01*
X525739Y28842D01*
X524742D01*
X523750Y28741D01*
X522773Y28540D01*
X521822Y28242D01*
X520906Y27849D01*
X520034Y27365D01*
X519215Y26795D01*
X518459Y26146D01*
X517772Y25423D01*
X517162Y24634D01*
X516634Y23788D01*
X516195Y22893D01*
X515849Y21958D01*
X515599Y20993D01*
X515448Y20008D01*
X515398Y19012D01*
X515448Y18016D01*
X515599Y17030D01*
X515849Y16065D01*
X516195Y15130D01*
X516634Y14235D01*
X517162Y13389D01*
X517772Y12601D01*
X518459Y11878D01*
X519215Y11229D01*
X520034Y10659D01*
X520906Y10175D01*
X521822Y9782D01*
X522773Y9483D01*
X523750Y9283D01*
X524742Y9182D01*
X525739D01*
X526731Y9283D01*
X527707Y9483D01*
X528658Y9782D01*
X529575Y10175D01*
X530446Y10659D01*
X531265Y11229D01*
X532021Y11878D01*
X532708Y12601D01*
X533319Y13389D01*
X533846Y14235D01*
X534285Y15130D01*
X534631Y16065D01*
X534881Y17031D01*
X535032Y18016D01*
X535083Y19012D01*
X46579Y22043D02*
X46528Y23039D01*
X46377Y24025D01*
X46127Y24990D01*
X45781Y25925D01*
X45342Y26820D01*
X44815Y27666D01*
X44204Y28455D01*
X43517Y29177D01*
X42761Y29827D01*
X41943Y30396D01*
X41071Y30880D01*
X40155Y31273D01*
X39203Y31572D01*
X38227Y31772D01*
X37235Y31873D01*
X36238D01*
X35246Y31772D01*
X34269Y31572D01*
X33318Y31273D01*
X32402Y30880D01*
X31530Y30396D01*
X30712Y29827D01*
X29955Y29177D01*
X29268Y28455D01*
X28658Y27666D01*
X28130Y26820D01*
X27691Y25925D01*
X27345Y24990D01*
X27095Y24025D01*
X26944Y23039D01*
X26894Y22043D01*
X26944Y21047D01*
X27095Y20062D01*
X27345Y19097D01*
X27691Y18162D01*
X28130Y17267D01*
X28658Y16421D01*
X29268Y15632D01*
X29955Y14909D01*
X30712Y14260D01*
X31530Y13690D01*
X32402Y13207D01*
X33318Y12813D01*
X34269Y12515D01*
X35246Y12314D01*
X36238Y12213D01*
X37235D01*
X38227Y12314D01*
X39203Y12515D01*
X40155Y12813D01*
X41071Y13207D01*
X41943Y13690D01*
X42761Y14260D01*
X43517Y14909D01*
X44204Y15632D01*
X44815Y16421D01*
X45342Y17267D01*
X45781Y18162D01*
X46127Y19097D01*
X46377Y20062D01*
X46528Y21048D01*
X46579Y22043D01*
Y370035D02*
X46528Y371031D01*
X46377Y372017D01*
X46127Y372982D01*
X45781Y373917D01*
X45342Y374812D01*
X44815Y375658D01*
X44204Y376447D01*
X43517Y377169D01*
X42761Y377819D01*
X41943Y378388D01*
X41071Y378872D01*
X40155Y379265D01*
X39203Y379564D01*
X38227Y379764D01*
X37235Y379865D01*
X36238D01*
X35246Y379764D01*
X34269Y379564D01*
X33318Y379265D01*
X32402Y378872D01*
X31530Y378388D01*
X30712Y377819D01*
X29955Y377169D01*
X29268Y376447D01*
X28658Y375658D01*
X28130Y374812D01*
X27691Y373917D01*
X27345Y372982D01*
X27095Y372017D01*
X26944Y371031D01*
X26894Y370035D01*
X26944Y369040D01*
X27095Y368054D01*
X27345Y367089D01*
X27691Y366154D01*
X28130Y365259D01*
X28658Y364413D01*
X29268Y363624D01*
X29955Y362902D01*
X30712Y362252D01*
X31530Y361683D01*
X32402Y361199D01*
X33318Y360806D01*
X34269Y360507D01*
X35246Y360306D01*
X36238Y360206D01*
X37235D01*
X38227Y360306D01*
X39203Y360507D01*
X40155Y360806D01*
X41071Y361199D01*
X41943Y361683D01*
X42761Y362252D01*
X43517Y362902D01*
X44204Y363624D01*
X44815Y364413D01*
X45342Y365259D01*
X45781Y366154D01*
X46127Y367089D01*
X46377Y368054D01*
X46528Y369040D01*
X46579Y370035D01*
X212846Y190402D02*
X212354Y191254D01*
X211370D01*
X210878Y190402D01*
X211370Y189550D01*
X212354D01*
X212846Y190402D01*
X209106Y238433D02*
X259500D01*
Y187646D02*
Y238433D01*
X209106Y187646D02*
X259500D01*
X209106D02*
Y238433D01*
X281496Y205511D02*
X283595Y202362D01*
Y205511D02*
X281496Y202362D01*
X284645Y205511D02*
X286744D01*
X285694D01*
Y202362D01*
X287793D02*
Y204461D01*
X288843Y205511D01*
X289892Y204461D01*
Y202362D01*
Y203937D01*
X287793D01*
X290942Y205511D02*
Y202362D01*
X293041D01*
X294090D02*
X295140D01*
X294615D01*
Y205511D01*
X294090Y204986D01*
X504331Y47638D02*
Y50262D01*
X503019Y48950D02*
X505643D01*
X503019Y70340D02*
X502363Y69684D01*
Y68372D01*
X503019Y67716D01*
X505643D01*
X506299Y68372D01*
Y69684D01*
X505643Y70340D01*
X504331D01*
Y69028D01*
X504331Y107087D02*
Y109710D01*
X503019Y108398D02*
X505643D01*
X503019Y129789D02*
X502363Y129133D01*
Y127821D01*
X503019Y127165D01*
X505643D01*
X506299Y127821D01*
Y129133D01*
X505643Y129789D01*
X504331D01*
Y128477D01*
X510236Y156693D02*
X507612D01*
X506300Y158005D01*
X507612Y159317D01*
X510236D01*
X508268D01*
Y156693D01*
X506956Y160629D02*
X506300Y161285D01*
Y162596D01*
X506956Y163252D01*
X509580D01*
X510236Y162596D01*
Y161285D01*
X509580Y160629D01*
X506956D01*
Y171521D02*
X506300Y170865D01*
Y169554D01*
X506956Y168898D01*
X509580D01*
X510236Y169554D01*
Y170865D01*
X509580Y171521D01*
X508268D01*
Y170210D01*
X497244Y205906D02*
Y209054D01*
X495669Y207480D01*
X497768D01*
X498818Y206430D02*
X499343Y205906D01*
X500392D01*
X500917Y206430D01*
Y208529D01*
X500392Y209054D01*
X499343D01*
X498818Y208529D01*
Y208005D01*
X499343Y207480D01*
X500917D01*
X497244Y216142D02*
Y219290D01*
X495669Y217716D01*
X497768D01*
X498818Y218766D02*
X499343Y219290D01*
X500392D01*
X500917Y218766D01*
Y218241D01*
X500392Y217716D01*
X500917Y217191D01*
Y216667D01*
X500392Y216142D01*
X499343D01*
X498818Y216667D01*
Y217191D01*
X499343Y217716D01*
X498818Y218241D01*
Y218766D01*
X499343Y217716D02*
X500392D01*
X495669Y227165D02*
X497768D01*
X496719Y228214D02*
Y226115D01*
X500917Y228739D02*
X498818D01*
Y227165D01*
X499867Y227690D01*
X500392D01*
X500917Y227165D01*
Y226115D01*
X500392Y225591D01*
X499343D01*
X498818Y226115D01*
X499343Y198293D02*
X498818Y198818D01*
X497769D01*
X497244Y198293D01*
Y196194D01*
X497769Y195669D01*
X498818D01*
X499343Y196194D01*
Y197244D01*
X498294D01*
X497244Y262205D02*
Y265353D01*
X495669Y263779D01*
X497768D01*
X498818Y265353D02*
X500917D01*
Y264829D01*
X498818Y262730D01*
Y262205D01*
X497244Y272441D02*
Y275590D01*
X495669Y274015D01*
X497768D01*
X500917Y275590D02*
X499867Y275065D01*
X498818Y274015D01*
Y272966D01*
X499343Y272441D01*
X500392D01*
X500917Y272966D01*
Y273491D01*
X500392Y274015D01*
X498818D01*
X495669Y283464D02*
X497768D01*
X496719Y284514D02*
Y282415D01*
X500917Y285038D02*
X498818D01*
Y283464D01*
X499867Y283989D01*
X500392D01*
X500917Y283464D01*
Y282415D01*
X500392Y281890D01*
X499343D01*
X498818Y282415D01*
X499343Y254592D02*
X498818Y255117D01*
X497769D01*
X497244Y254592D01*
Y252493D01*
X497769Y251969D01*
X498818D01*
X499343Y252493D01*
Y253543D01*
X498294D01*
X499343Y312466D02*
X498818Y312991D01*
X497769D01*
X497244Y312466D01*
Y310367D01*
X497769Y309842D01*
X498818D01*
X499343Y310367D01*
Y311417D01*
X498294D01*
X495669Y341338D02*
X497768D01*
X496719Y342388D02*
Y340288D01*
X500917Y342912D02*
X498818D01*
Y341338D01*
X499867Y341863D01*
X500392D01*
X500917Y341338D01*
Y340288D01*
X500392Y339764D01*
X499343D01*
X498818Y340288D01*
X497244Y330315D02*
Y333464D01*
X495669Y331889D01*
X497768D01*
X500392Y330315D02*
Y333464D01*
X498818Y331889D01*
X500917D01*
X497244Y320079D02*
Y323227D01*
X495669Y321653D01*
X497768D01*
X500917Y323227D02*
X498818D01*
Y321653D01*
X499867Y322178D01*
X500392D01*
X500917Y321653D01*
Y320603D01*
X500392Y320079D01*
X499343D01*
X498818Y320603D01*
X475197Y354330D02*
X472048D01*
X473623Y352756D01*
Y354855D01*
X475197Y355905D02*
Y356954D01*
Y356429D01*
X472048D01*
X472573Y355905D01*
X482022Y351969D02*
X481497Y352493D01*
Y353543D01*
X482022Y354068D01*
X482547D01*
X483071Y353543D01*
Y353018D01*
Y353543D01*
X483596Y354068D01*
X484121D01*
X484646Y353543D01*
Y352493D01*
X484121Y351969D01*
X482022Y355117D02*
X481497Y355642D01*
Y356691D01*
X482022Y357216D01*
X482547D01*
X483071Y356691D01*
X483596Y357216D01*
X484121D01*
X484646Y356691D01*
Y355642D01*
X484121Y355117D01*
X483596D01*
X483071Y355642D01*
X482547Y355117D01*
X482022D01*
X483071Y355642D02*
Y356691D01*
X492258Y355642D02*
X491733Y355118D01*
Y354068D01*
X492258Y353543D01*
X494357D01*
X494882Y354068D01*
Y355118D01*
X494357Y355642D01*
X493308D01*
Y354593D01*
X446457Y352756D02*
Y353805D01*
Y353281D01*
X443308D01*
X443833Y352756D01*
X443308Y357479D02*
X443833Y356429D01*
X444882Y355380D01*
X445932D01*
X446457Y355905D01*
Y356954D01*
X445932Y357479D01*
X445407D01*
X444882Y356954D01*
Y355380D01*
X436221Y352756D02*
Y353805D01*
Y353281D01*
X433072D01*
X433597Y352756D01*
X433072Y355380D02*
Y357479D01*
X433597D01*
X435696Y355380D01*
X436221D01*
X424148Y356036D02*
X423623Y355511D01*
Y354462D01*
X424148Y353937D01*
X426247D01*
X426772Y354462D01*
Y355511D01*
X426247Y356036D01*
X425197D01*
Y354987D01*
X378872Y348162D02*
X378347Y347637D01*
Y346588D01*
X378872Y346063D01*
X380971D01*
X381496Y346588D01*
Y347637D01*
X380971Y348162D01*
X379922D01*
Y347112D01*
Y334252D02*
Y336351D01*
X378872Y335301D02*
X380971D01*
X378347Y339500D02*
Y337401D01*
X379922D01*
X379397Y338450D01*
Y338975D01*
X379922Y339500D01*
X380971D01*
X381496Y338975D01*
Y337925D01*
X380971Y337401D01*
X299345Y348162D02*
X298820Y347637D01*
Y346588D01*
X299345Y346063D01*
X301444D01*
X301969Y346588D01*
Y347637D01*
X301444Y348162D01*
X300394D01*
Y347112D01*
Y334252D02*
Y336351D01*
X299345Y335301D02*
X301444D01*
X298820Y339500D02*
Y337401D01*
X300394D01*
X299869Y338450D01*
Y338975D01*
X300394Y339500D01*
X301444D01*
X301969Y338975D01*
Y337925D01*
X301444Y337401D01*
X220998Y348162D02*
X220474Y347637D01*
Y346588D01*
X220998Y346063D01*
X223097D01*
X223622Y346588D01*
Y347637D01*
X223097Y348162D01*
X222048D01*
Y347112D01*
Y334252D02*
Y336351D01*
X220998Y335301D02*
X223097D01*
X220474Y339500D02*
Y337401D01*
X222048D01*
X221523Y338450D01*
Y338975D01*
X222048Y339500D01*
X223097D01*
X223622Y338975D01*
Y337925D01*
X223097Y337401D01*
X142914Y334252D02*
Y336351D01*
X141864Y335301D02*
X143963D01*
X141340Y339500D02*
Y337401D01*
X142914D01*
X142389Y338450D01*
Y338975D01*
X142914Y339500D01*
X143963D01*
X144488Y338975D01*
Y337925D01*
X143963Y337401D01*
X141864Y348162D02*
X141340Y347637D01*
Y346588D01*
X141864Y346063D01*
X143963D01*
X144488Y346588D01*
Y347637D01*
X143963Y348162D01*
X142914D01*
Y347112D01*
X359974Y344882D02*
X360630Y345538D01*
Y346850D01*
X359974Y347506D01*
X357350D01*
X356694Y346850D01*
Y345538D01*
X357350Y344882D01*
X358006D01*
X358662Y345538D01*
Y347506D01*
X357350Y335433D02*
X356694Y336089D01*
Y337401D01*
X357350Y338057D01*
X358006D01*
X358662Y337401D01*
X359318Y338057D01*
X359974D01*
X360630Y337401D01*
Y336089D01*
X359974Y335433D01*
X359318D01*
X358662Y336089D01*
X358006Y335433D01*
X357350D01*
X358662Y336089D02*
Y337401D01*
X367849Y344094D02*
X367324Y344619D01*
Y345669D01*
X367849Y346194D01*
X368373D01*
X368898Y345669D01*
Y345144D01*
Y345669D01*
X369423Y346194D01*
X369948D01*
X370473Y345669D01*
Y344619D01*
X369948Y344094D01*
X367324Y347243D02*
Y349342D01*
X367849D01*
X369948Y347243D01*
X370473D01*
Y335826D02*
X367324D01*
X368898Y334252D01*
Y336351D01*
X367849Y337401D02*
X367324Y337925D01*
Y338975D01*
X367849Y339500D01*
X369948D01*
X370473Y338975D01*
Y337925D01*
X369948Y337401D01*
X367849D01*
X277954Y344882D02*
Y347506D01*
X278610D01*
X281234Y344882D01*
X281890D01*
X277954Y338057D02*
X278610Y336745D01*
X279922Y335433D01*
X281234D01*
X281890Y336089D01*
Y337401D01*
X281234Y338057D01*
X280578D01*
X279922Y337401D01*
Y335433D01*
X289108Y344094D02*
X288584Y344619D01*
Y345669D01*
X289108Y346194D01*
X289633D01*
X290158Y345669D01*
Y345144D01*
Y345669D01*
X290683Y346194D01*
X291208D01*
X291732Y345669D01*
Y344619D01*
X291208Y344094D01*
X288584Y349342D02*
Y347243D01*
X290158D01*
X289633Y348293D01*
Y348817D01*
X290158Y349342D01*
X291208D01*
X291732Y348817D01*
Y347768D01*
X291208Y347243D01*
X289108Y334252D02*
X288584Y334777D01*
Y335826D01*
X289108Y336351D01*
X289633D01*
X290158Y335826D01*
Y335301D01*
Y335826D01*
X290683Y336351D01*
X291208D01*
X291732Y335826D01*
Y334777D01*
X291208Y334252D01*
X288584Y339500D02*
X289108Y338450D01*
X290158Y337401D01*
X291208D01*
X291732Y337925D01*
Y338975D01*
X291208Y339500D01*
X290683D01*
X290158Y338975D01*
Y337401D01*
X199870Y344882D02*
X199214Y345538D01*
Y346850D01*
X199870Y347506D01*
X200526D01*
X201182Y346850D01*
Y346194D01*
Y346850D01*
X201838Y347506D01*
X202494D01*
X203150Y346850D01*
Y345538D01*
X202494Y344882D01*
X203150Y338057D02*
Y335433D01*
X200526Y338057D01*
X199870D01*
X199214Y337401D01*
Y336089D01*
X199870Y335433D01*
X210368Y344094D02*
X209843Y344619D01*
Y345669D01*
X210368Y346194D01*
X210893D01*
X211418Y345669D01*
Y345144D01*
Y345669D01*
X211943Y346194D01*
X212467D01*
X212992Y345669D01*
Y344619D01*
X212467Y344094D01*
X210368Y347243D02*
X209843Y347768D01*
Y348817D01*
X210368Y349342D01*
X210893D01*
X211418Y348817D01*
Y348293D01*
Y348817D01*
X211943Y349342D01*
X212467D01*
X212992Y348817D01*
Y347768D01*
X212467Y347243D01*
X210368Y334252D02*
X209843Y334777D01*
Y335826D01*
X210368Y336351D01*
X210893D01*
X211418Y335826D01*
Y335301D01*
Y335826D01*
X211943Y336351D01*
X212467D01*
X212992Y335826D01*
Y334777D01*
X212467Y334252D01*
X212992Y338975D02*
X209843D01*
X211418Y337401D01*
Y339500D01*
X130841Y334252D02*
X130316Y334777D01*
Y335826D01*
X130841Y336351D01*
X131366D01*
X131890Y335826D01*
Y335301D01*
Y335826D01*
X132415Y336351D01*
X132940D01*
X133465Y335826D01*
Y334777D01*
X132940Y334252D01*
X133465Y339500D02*
Y337401D01*
X131366Y339500D01*
X130841D01*
X130316Y338975D01*
Y337925D01*
X130841Y337401D01*
Y344094D02*
X130316Y344619D01*
Y345669D01*
X130841Y346194D01*
X131366D01*
X131890Y345669D01*
Y345144D01*
Y345669D01*
X132415Y346194D01*
X132940D01*
X133465Y345669D01*
Y344619D01*
X132940Y344094D01*
X133465Y347243D02*
Y348293D01*
Y347768D01*
X130316D01*
X130841Y347243D01*
X123622Y337401D02*
X119686D01*
X121654Y335433D01*
Y338057D01*
X119686Y347506D02*
Y344882D01*
X121654D01*
X120998Y346194D01*
Y346850D01*
X121654Y347506D01*
X122966D01*
X123622Y346850D01*
Y345538D01*
X122966Y344882D01*
X294816Y175983D02*
X293766D01*
X294291D01*
Y173359D01*
X293766Y172835D01*
X293241D01*
X292717Y173359D01*
X295865Y172835D02*
X296915D01*
X296390D01*
Y175983D01*
X295865Y175459D01*
X321063Y153149D02*
Y150525D01*
X321588Y150000D01*
X322637D01*
X323162Y150525D01*
Y153149D01*
X325786Y150000D02*
Y153149D01*
X324212Y151574D01*
X326311D01*
X360170Y150655D02*
X359645Y151180D01*
X358596D01*
X358071Y150655D01*
Y148556D01*
X358596Y148031D01*
X359645D01*
X360170Y148556D01*
X361220Y148031D02*
X362269D01*
X361744D01*
Y151180D01*
X361220Y150655D01*
X365942Y151180D02*
X363843D01*
Y149606D01*
X364893Y150131D01*
X365418D01*
X365942Y149606D01*
Y148556D01*
X365418Y148031D01*
X364368D01*
X363843Y148556D01*
X305839Y165222D02*
X305314Y165747D01*
X304265D01*
X303740Y165222D01*
Y163123D01*
X304265Y162598D01*
X305314D01*
X305839Y163123D01*
X306889Y162598D02*
X307938D01*
X307414D01*
Y165747D01*
X306889Y165222D01*
X311087Y162598D02*
Y165747D01*
X309513Y164173D01*
X311612D01*
X339173Y190157D02*
Y193306D01*
X340747D01*
X341272Y192781D01*
Y191732D01*
X340747Y191207D01*
X339173D01*
X340223D02*
X341272Y190157D01*
X342322D02*
Y193306D01*
X344421Y190157D01*
Y193306D01*
X345470Y192781D02*
X345995Y193306D01*
X347045D01*
X347569Y192781D01*
Y192256D01*
X347045Y191732D01*
X346520D01*
X347045D01*
X347569Y191207D01*
Y190682D01*
X347045Y190157D01*
X345995D01*
X345470Y190682D01*
X360236Y210235D02*
Y207087D01*
Y208661D01*
X362335D01*
Y210235D01*
Y207087D01*
X365484Y210235D02*
X364434Y209710D01*
X363385Y208661D01*
Y207611D01*
X363910Y207087D01*
X364959D01*
X365484Y207611D01*
Y208136D01*
X364959Y208661D01*
X363385D01*
X305472Y95591D02*
Y98739D01*
X307047D01*
X307572Y98214D01*
Y97165D01*
X307047Y96640D01*
X305472D01*
X306522D02*
X307572Y95591D01*
X308621D02*
Y98739D01*
X310720Y95591D01*
Y98739D01*
X313869Y95591D02*
X311770D01*
X313869Y97690D01*
Y98214D01*
X313344Y98739D01*
X312294D01*
X311770Y98214D01*
X293111Y85433D02*
X295735D01*
X296260Y85958D01*
Y87007D01*
X295735Y87532D01*
X293111D01*
Y90681D02*
Y88582D01*
X294686D01*
X294161Y89631D01*
Y90156D01*
X294686Y90681D01*
X295735D01*
X296260Y90156D01*
Y89106D01*
X295735Y88582D01*
X197047Y113779D02*
Y116928D01*
X198621D01*
X199146Y116403D01*
Y115354D01*
X198621Y114829D01*
X197047D01*
X198097D02*
X199146Y113779D01*
X200196D02*
Y116928D01*
X202295Y113779D01*
Y116928D01*
X203344Y113779D02*
X204394D01*
X203869D01*
Y116928D01*
X203344Y116403D01*
X199409Y30314D02*
X201508Y27165D01*
Y30314D02*
X199409Y27165D01*
X204657D02*
X202558D01*
X204657Y29264D01*
Y29789D01*
X204132Y30314D01*
X203083D01*
X202558Y29789D01*
X342323Y33463D02*
X344422Y30315D01*
Y33463D02*
X342323Y30315D01*
X345471D02*
X346521D01*
X345996D01*
Y33463D01*
X345471Y32939D01*
X429724Y185432D02*
Y183333D01*
X430774Y182283D01*
X431823Y183333D01*
Y185432D01*
X432873Y182283D02*
Y185432D01*
X434447D01*
X434972Y184907D01*
Y183858D01*
X434447Y183333D01*
X432873D01*
X433922D02*
X434972Y182283D01*
X438121D02*
X436022D01*
X438121Y184382D01*
Y184907D01*
X437596Y185432D01*
X436546D01*
X436022Y184907D01*
X199804Y275590D02*
X201903D01*
X202953Y276640D01*
X201903Y277690D01*
X199804D01*
X202953Y278739D02*
X199804D01*
Y280313D01*
X200329Y280838D01*
X201378D01*
X201903Y280313D01*
Y278739D01*
Y279789D02*
X202953Y280838D01*
Y281888D02*
Y282937D01*
Y282413D01*
X199804D01*
X200329Y281888D01*
X464173Y156298D02*
Y153674D01*
X464698Y153150D01*
X465747D01*
X466272Y153674D01*
Y156298D01*
X467322Y155773D02*
X467847Y156298D01*
X468896D01*
X469421Y155773D01*
Y155249D01*
X468896Y154724D01*
X469421Y154199D01*
Y153674D01*
X468896Y153150D01*
X467847D01*
X467322Y153674D01*
Y154199D01*
X467847Y154724D01*
X467322Y155249D01*
Y155773D01*
X467847Y154724D02*
X468896D01*
X385039Y146456D02*
Y143832D01*
X385564Y143307D01*
X386614D01*
X387138Y143832D01*
Y146456D01*
X388188D02*
X390287D01*
Y145931D01*
X388188Y143832D01*
Y143307D01*
X286221Y53149D02*
Y50525D01*
X286745Y50000D01*
X287795D01*
X288319Y50525D01*
Y53149D01*
X289369Y52624D02*
X289894Y53149D01*
X290943D01*
X291468Y52624D01*
Y52099D01*
X290943Y51574D01*
X290419D01*
X290943D01*
X291468Y51050D01*
Y50525D01*
X290943Y50000D01*
X289894D01*
X289369Y50525D01*
X244685Y59448D02*
Y56824D01*
X245210Y56299D01*
X246259D01*
X246784Y56824D01*
Y59448D01*
X249933Y56299D02*
X247834D01*
X249933Y58398D01*
Y58923D01*
X249408Y59448D01*
X248358D01*
X247834Y58923D01*
X263976Y253149D02*
Y250525D01*
X264501Y250000D01*
X265551D01*
X266075Y250525D01*
Y253149D01*
X267125Y250000D02*
X268175D01*
X267650D01*
Y253149D01*
X267125Y252624D01*
X266075Y115222D02*
X265551Y115747D01*
X264501D01*
X263976Y115222D01*
Y114698D01*
X264501Y114173D01*
X265551D01*
X266075Y113648D01*
Y113123D01*
X265551Y112598D01*
X264501D01*
X263976Y113123D01*
X267125Y115747D02*
Y112598D01*
X268175Y113648D01*
X269224Y112598D01*
Y115747D01*
X270274Y112598D02*
X271323D01*
X270798D01*
Y115747D01*
X270274Y115222D01*
X501968Y158661D02*
X498820D01*
Y160236D01*
X499345Y160760D01*
X500394D01*
X500919Y160236D01*
Y158661D01*
Y159711D02*
X501968Y160760D01*
Y163909D02*
Y161810D01*
X499869Y163909D01*
X499345D01*
X498820Y163384D01*
Y162335D01*
X499345Y161810D01*
Y164959D02*
X498820Y165483D01*
Y166533D01*
X499345Y167058D01*
X499869D01*
X500394Y166533D01*
Y166008D01*
Y166533D01*
X500919Y167058D01*
X501444D01*
X501968Y166533D01*
Y165483D01*
X501444Y164959D01*
X451378Y187402D02*
Y190550D01*
X452952D01*
X453477Y190025D01*
Y188976D01*
X452952Y188451D01*
X451378D01*
X452427D02*
X453477Y187402D01*
X456626D02*
X454527D01*
X456626Y189501D01*
Y190025D01*
X456101Y190550D01*
X455051D01*
X454527Y190025D01*
X459774Y187402D02*
X457675D01*
X459774Y189501D01*
Y190025D01*
X459249Y190550D01*
X458200D01*
X457675Y190025D01*
X475000Y190157D02*
Y193306D01*
X476574D01*
X477099Y192781D01*
Y191732D01*
X476574Y191207D01*
X475000D01*
X476050D02*
X477099Y190157D01*
X480248D02*
X478149D01*
X480248Y192256D01*
Y192781D01*
X479723Y193306D01*
X478673D01*
X478149Y192781D01*
X481297Y190157D02*
X482347D01*
X481822D01*
Y193306D01*
X481297Y192781D01*
X159646Y166929D02*
Y170078D01*
X161220D01*
X161745Y169553D01*
Y168503D01*
X161220Y167979D01*
X159646D01*
X160695D02*
X161745Y166929D01*
X164893D02*
X162794D01*
X164893Y169028D01*
Y169553D01*
X164369Y170078D01*
X163319D01*
X162794Y169553D01*
X165943D02*
X166468Y170078D01*
X167517D01*
X168042Y169553D01*
Y167454D01*
X167517Y166929D01*
X166468D01*
X165943Y167454D01*
Y169553D01*
X395079Y157874D02*
Y161023D01*
X396653D01*
X397178Y160498D01*
Y159448D01*
X396653Y158924D01*
X395079D01*
X396128D02*
X397178Y157874D01*
X398227D02*
X399277D01*
X398752D01*
Y161023D01*
X398227Y160498D01*
X400851Y158399D02*
X401376Y157874D01*
X402425D01*
X402950Y158399D01*
Y160498D01*
X402425Y161023D01*
X401376D01*
X400851Y160498D01*
Y159973D01*
X401376Y159448D01*
X402950D01*
X405709Y157874D02*
Y161023D01*
X407283D01*
X407808Y160498D01*
Y159448D01*
X407283Y158924D01*
X405709D01*
X406758D02*
X407808Y157874D01*
X408857D02*
X409907D01*
X409382D01*
Y161023D01*
X408857Y160498D01*
X411481D02*
X412006Y161023D01*
X413055D01*
X413580Y160498D01*
Y159973D01*
X413055Y159448D01*
X413580Y158924D01*
Y158399D01*
X413055Y157874D01*
X412006D01*
X411481Y158399D01*
Y158924D01*
X412006Y159448D01*
X411481Y159973D01*
Y160498D01*
X412006Y159448D02*
X413055D01*
X383268Y81890D02*
Y85038D01*
X384842D01*
X385367Y84514D01*
Y83464D01*
X384842Y82939D01*
X383268D01*
X384317D02*
X385367Y81890D01*
X386416D02*
X387466D01*
X386941D01*
Y85038D01*
X386416Y84514D01*
X389040Y85038D02*
X391139D01*
Y84514D01*
X389040Y82415D01*
Y81890D01*
X383268Y47244D02*
Y50393D01*
X384842D01*
X385367Y49868D01*
Y48818D01*
X384842Y48294D01*
X383268D01*
X384317D02*
X385367Y47244D01*
X386416D02*
X387466D01*
X386941D01*
Y50393D01*
X386416Y49868D01*
X391139Y50393D02*
X390090Y49868D01*
X389040Y48818D01*
Y47769D01*
X389565Y47244D01*
X390614D01*
X391139Y47769D01*
Y48294D01*
X390614Y48818D01*
X389040D01*
X275000Y68898D02*
Y72046D01*
X276574D01*
X277099Y71522D01*
Y70472D01*
X276574Y69947D01*
X275000D01*
X276049D02*
X277099Y68898D01*
X278149D02*
X279198D01*
X278673D01*
Y72046D01*
X278149Y71522D01*
X280772Y68898D02*
X281822D01*
X281297D01*
Y72046D01*
X280772Y71522D01*
X275000Y59055D02*
Y62204D01*
X276574D01*
X277099Y61679D01*
Y60629D01*
X276574Y60105D01*
X275000D01*
X276049D02*
X277099Y59055D01*
X278149D02*
X279198D01*
X278673D01*
Y62204D01*
X278149Y61679D01*
X280772D02*
X281297Y62204D01*
X282347D01*
X282872Y61679D01*
Y59580D01*
X282347Y59055D01*
X281297D01*
X280772Y59580D01*
Y61679D01*
X182655Y114513D02*
Y117661D01*
X184229D01*
X184754Y117136D01*
Y116087D01*
X184229Y115562D01*
X182655D01*
X183705D02*
X184754Y114513D01*
X185804Y115037D02*
X186328Y114513D01*
X187378D01*
X187903Y115037D01*
Y117136D01*
X187378Y117661D01*
X186328D01*
X185804Y117136D01*
Y116612D01*
X186328Y116087D01*
X187903D01*
X297441Y183465D02*
Y186613D01*
X299015D01*
X299540Y186088D01*
Y185039D01*
X299015Y184514D01*
X297441D01*
X298491D02*
X299540Y183465D01*
X300589D02*
X301639D01*
X301114D01*
Y186613D01*
X300589Y186088D01*
X387729Y70997D02*
Y73096D01*
X387204Y73621D01*
X386155D01*
X385630Y73096D01*
Y70997D01*
X386155Y70472D01*
X387204D01*
X386679Y71522D02*
X387729Y70472D01*
X387204D02*
X387729Y70997D01*
X390878Y73621D02*
X388778D01*
Y72047D01*
X389828Y72571D01*
X390353D01*
X390878Y72047D01*
Y70997D01*
X390353Y70472D01*
X389303D01*
X388778Y70997D01*
X387729Y34777D02*
Y36876D01*
X387204Y37401D01*
X386155D01*
X385630Y36876D01*
Y34777D01*
X386155Y34252D01*
X387204D01*
X386679Y35302D02*
X387729Y34252D01*
X387204D02*
X387729Y34777D01*
X390353Y34252D02*
Y37401D01*
X388778Y35826D01*
X390878D01*
X318438Y191470D02*
Y193569D01*
X317913Y194094D01*
X316863D01*
X316339Y193569D01*
Y191470D01*
X316863Y190945D01*
X317913D01*
X317388Y191994D02*
X318438Y190945D01*
X317913D02*
X318438Y191470D01*
X319487Y193569D02*
X320012Y194094D01*
X321061D01*
X321586Y193569D01*
Y193044D01*
X321061Y192519D01*
X320537D01*
X321061D01*
X321586Y191994D01*
Y191470D01*
X321061Y190945D01*
X320012D01*
X319487Y191470D01*
X357020D02*
Y193569D01*
X356496Y194094D01*
X355446D01*
X354921Y193569D01*
Y191470D01*
X355446Y190945D01*
X356496D01*
X355971Y191994D02*
X357020Y190945D01*
X356496D02*
X357020Y191470D01*
X360169Y190945D02*
X358070D01*
X360169Y193044D01*
Y193569D01*
X359644Y194094D01*
X358595D01*
X358070Y193569D01*
X285367Y31233D02*
Y33332D01*
X284842Y33857D01*
X283792D01*
X283268Y33332D01*
Y31233D01*
X283792Y30709D01*
X284842D01*
X284317Y31758D02*
X285367Y30709D01*
X284842D02*
X285367Y31233D01*
X286416Y30709D02*
X287466D01*
X286941D01*
Y33857D01*
X286416Y33332D01*
X463910Y186876D02*
X463385Y187401D01*
X462336D01*
X461811Y186876D01*
Y186351D01*
X462336Y185826D01*
X463385D01*
X463910Y185301D01*
Y184777D01*
X463385Y184252D01*
X462336D01*
X461811Y184777D01*
X464960Y187401D02*
X466009D01*
X465484D01*
Y184252D01*
X464960D01*
X466009D01*
X469683Y186876D02*
X469158Y187401D01*
X468108D01*
X467583Y186876D01*
Y184777D01*
X468108Y184252D01*
X469158D01*
X469683Y184777D01*
Y185826D01*
X468633D01*
X173818Y119684D02*
X172769D01*
X172244Y119159D01*
Y117060D01*
X172769Y116535D01*
X173818D01*
X174343Y117060D01*
Y119159D01*
X173818Y119684D01*
X175393Y116535D02*
Y119684D01*
X177492Y116535D01*
Y119684D01*
X212795Y119291D02*
Y122440D01*
X214370D01*
X214894Y121915D01*
Y120866D01*
X214370Y120341D01*
X212795D01*
X213845D02*
X214894Y119291D01*
X215944Y122440D02*
X218043Y119291D01*
Y122440D02*
X215944Y119291D01*
X221457Y122440D02*
X223556D01*
X222506D01*
Y119291D01*
X224605Y122440D02*
X226704Y119291D01*
Y122440D02*
X224605Y119291D01*
X457283Y81101D02*
Y77953D01*
Y79002D01*
X459382Y81101D01*
X457808Y79527D01*
X459382Y77953D01*
X462531D02*
X460432D01*
X462531Y80052D01*
Y80577D01*
X462006Y81101D01*
X460957D01*
X460432Y80577D01*
X457283Y9448D02*
Y6299D01*
Y7349D01*
X459382Y9448D01*
X457808Y7874D01*
X459382Y6299D01*
X460432D02*
X461482D01*
X460957D01*
Y9448D01*
X460432Y8923D01*
X283465Y159054D02*
Y155905D01*
Y157480D01*
X285564D01*
Y159054D01*
Y155905D01*
X286613D02*
X287663D01*
X287138D01*
Y159054D01*
X286613Y158529D01*
X256233Y6692D02*
X254134D01*
Y5118D01*
X255183D01*
X254134D01*
Y3543D01*
X383661Y61810D02*
Y58661D01*
X385236D01*
X385760Y59186D01*
Y61285D01*
X385236Y61810D01*
X383661D01*
X388384Y58661D02*
Y61810D01*
X386810Y60236D01*
X388909D01*
X384055Y25196D02*
Y22047D01*
X385629D01*
X386154Y22572D01*
Y24671D01*
X385629Y25196D01*
X384055D01*
X387204Y24671D02*
X387729Y25196D01*
X388778D01*
X389303Y24671D01*
Y24146D01*
X388778Y23621D01*
X388253D01*
X388778D01*
X389303Y23097D01*
Y22572D01*
X388778Y22047D01*
X387729D01*
X387204Y22572D01*
X373425Y77952D02*
Y74803D01*
X374999D01*
X375524Y75328D01*
Y77427D01*
X374999Y77952D01*
X373425D01*
X378673Y74803D02*
X376574D01*
X378673Y76902D01*
Y77427D01*
X378148Y77952D01*
X377099D01*
X376574Y77427D01*
X301772Y128739D02*
Y125591D01*
X303346D01*
X303871Y126115D01*
Y128214D01*
X303346Y128739D01*
X301772D01*
X304920Y125591D02*
X305970D01*
X305445D01*
Y128739D01*
X304920Y128214D01*
X499345Y150131D02*
X498820Y149606D01*
Y148556D01*
X499345Y148031D01*
X501444D01*
X501968Y148556D01*
Y149606D01*
X501444Y150131D01*
X501968Y151180D02*
Y152230D01*
Y151705D01*
X498820D01*
X499345Y151180D01*
Y153804D02*
X498820Y154329D01*
Y155378D01*
X499345Y155903D01*
X499869D01*
X500394Y155378D01*
X500919Y155903D01*
X501444D01*
X501968Y155378D01*
Y154329D01*
X501444Y153804D01*
X500919D01*
X500394Y154329D01*
X499869Y153804D01*
X499345D01*
X500394Y154329D02*
Y155378D01*
X492256Y180183D02*
X491732Y180708D01*
X490682D01*
X490158Y180183D01*
Y178084D01*
X490682Y177559D01*
X491732D01*
X492256Y178084D01*
X493306Y177559D02*
X494356D01*
X493831D01*
Y180708D01*
X493306Y180183D01*
X495930Y180708D02*
X498029D01*
Y180183D01*
X495930Y178084D01*
Y177559D01*
X352296Y130577D02*
X351771Y131101D01*
X350722D01*
X350197Y130577D01*
Y128478D01*
X350722Y127953D01*
X351771D01*
X352296Y128478D01*
X353345Y127953D02*
X354395D01*
X353870D01*
Y131101D01*
X353345Y130577D01*
X358068Y131101D02*
X357019Y130577D01*
X355969Y129527D01*
Y128478D01*
X356494Y127953D01*
X357544D01*
X358068Y128478D01*
Y129002D01*
X357544Y129527D01*
X355969D01*
X306233Y62466D02*
X305708Y62991D01*
X304659D01*
X304134Y62466D01*
Y60367D01*
X304659Y59842D01*
X305708D01*
X306233Y60367D01*
X307282Y59842D02*
X308332D01*
X307807D01*
Y62991D01*
X307282Y62466D01*
X309906D02*
X310431Y62991D01*
X311481D01*
X312005Y62466D01*
Y61942D01*
X311481Y61417D01*
X310956D01*
X311481D01*
X312005Y60892D01*
Y60367D01*
X311481Y59842D01*
X310431D01*
X309906Y60367D01*
X340091Y122703D02*
X339566Y123227D01*
X338517D01*
X337992Y122703D01*
Y120604D01*
X338517Y120079D01*
X339566D01*
X340091Y120604D01*
X341141Y120079D02*
X342190D01*
X341666D01*
Y123227D01*
X341141Y122703D01*
X345864Y120079D02*
X343765D01*
X345864Y122178D01*
Y122703D01*
X345339Y123227D01*
X344289D01*
X343765Y122703D01*
X341272Y58529D02*
X340747Y59054D01*
X339698D01*
X339173Y58529D01*
Y56430D01*
X339698Y55905D01*
X340747D01*
X341272Y56430D01*
X342322Y55905D02*
X343371D01*
X342847D01*
Y59054D01*
X342322Y58529D01*
X344946Y55905D02*
X345995D01*
X345470D01*
Y59054D01*
X344946Y58529D01*
X255053Y32414D02*
X254529Y31889D01*
Y30840D01*
X255053Y30315D01*
X257152D01*
X257677Y30840D01*
Y31889D01*
X257152Y32414D01*
X257677Y33463D02*
Y34513D01*
Y33988D01*
X254529D01*
X255053Y33463D01*
Y36087D02*
X254529Y36612D01*
Y37662D01*
X255053Y38186D01*
X257152D01*
X257677Y37662D01*
Y36612D01*
X257152Y36087D01*
X255053D01*
X268438Y80577D02*
X267913Y81101D01*
X266863D01*
X266339Y80577D01*
Y78478D01*
X266863Y77953D01*
X267913D01*
X268438Y78478D01*
X269487D02*
X270012Y77953D01*
X271061D01*
X271586Y78478D01*
Y80577D01*
X271061Y81101D01*
X270012D01*
X269487Y80577D01*
Y80052D01*
X270012Y79527D01*
X271586D01*
X243635Y110104D02*
X243110Y110629D01*
X242060D01*
X241535Y110104D01*
Y108005D01*
X242060Y107480D01*
X243110D01*
X243635Y108005D01*
X244684Y110104D02*
X245209Y110629D01*
X246258D01*
X246783Y110104D01*
Y109579D01*
X246258Y109055D01*
X246783Y108530D01*
Y108005D01*
X246258Y107480D01*
X245209D01*
X244684Y108005D01*
Y108530D01*
X245209Y109055D01*
X244684Y109579D01*
Y110104D01*
X245209Y109055D02*
X246258D01*
X303871Y135695D02*
X303346Y136220D01*
X302296D01*
X301772Y135695D01*
Y133596D01*
X302296Y133071D01*
X303346D01*
X303871Y133596D01*
X304920Y136220D02*
X307019D01*
Y135695D01*
X304920Y133596D01*
Y133071D01*
X187335Y193175D02*
X186811Y193700D01*
X185761D01*
X185236Y193175D01*
Y191076D01*
X185761Y190551D01*
X186811D01*
X187335Y191076D01*
X190484Y193700D02*
X189434Y193175D01*
X188385Y192125D01*
Y191076D01*
X188910Y190551D01*
X189959D01*
X190484Y191076D01*
Y191601D01*
X189959Y192125D01*
X188385D01*
X191666Y229789D02*
X191141Y230314D01*
X190092D01*
X189567Y229789D01*
Y227690D01*
X190092Y227165D01*
X191141D01*
X191666Y227690D01*
X194815Y230314D02*
X192716D01*
Y228740D01*
X193765Y229264D01*
X194290D01*
X194815Y228740D01*
Y227690D01*
X194290Y227165D01*
X193240D01*
X192716Y227690D01*
X228674Y262466D02*
X228149Y262991D01*
X227100D01*
X226575Y262466D01*
Y260367D01*
X227100Y259842D01*
X228149D01*
X228674Y260367D01*
X231298Y259842D02*
Y262991D01*
X229723Y261417D01*
X231822D01*
X221390Y172112D02*
X220866Y172637D01*
X219816D01*
X219291Y172112D01*
Y170013D01*
X219816Y169488D01*
X220866D01*
X221390Y170013D01*
X222440Y172112D02*
X222965Y172637D01*
X224014D01*
X224539Y172112D01*
Y171587D01*
X224014Y171063D01*
X223489D01*
X224014D01*
X224539Y170538D01*
Y170013D01*
X224014Y169488D01*
X222965D01*
X222440Y170013D01*
D11*
X185906Y280984D02*
X185789Y281983D01*
X185445Y282928D01*
X184892Y283768D01*
X184161Y284458D01*
X183290Y284961D01*
X182327Y285249D01*
X181323Y285308D01*
X180333Y285133D01*
X179409Y284735D01*
X178603Y284134D01*
X177956Y283364D01*
X177505Y282465D01*
X177273Y281487D01*
Y280482D01*
X177505Y279503D01*
X177956Y278605D01*
X178603Y277834D01*
X179409Y277234D01*
X180333Y276835D01*
X181323Y276661D01*
X182327Y276719D01*
X183290Y277008D01*
X184161Y277510D01*
X184892Y278201D01*
X185445Y279041D01*
X185789Y279985D01*
X185906Y280984D01*
X330571Y101185D02*
X330939Y100263D01*
X331381Y99374D01*
X331894Y98525D01*
X332476Y97721D01*
X333121Y96967D01*
X333826Y96269D01*
X334587Y95631D01*
X335396Y95057D01*
X336251Y94552D01*
X337143Y94119D01*
X338069Y93760D01*
X339020Y93479D01*
X339992Y93276D01*
X340977Y93154D01*
X341968Y93114D01*
X342960Y93154D01*
X343945Y93276D01*
X344917Y93479D01*
X345868Y93760D01*
X346794Y94119D01*
X347686Y94552D01*
X348541Y95057D01*
X349351Y95631D01*
X350111Y96269D01*
X350816Y96967D01*
X351461Y97721D01*
X352043Y98525D01*
X352556Y99374D01*
X352998Y100263D01*
X353366Y101185D01*
X353157Y107606D02*
X352790Y108528D01*
X352348Y109417D01*
X351834Y110266D01*
X351253Y111070D01*
X350607Y111824D01*
X349902Y112522D01*
X349142Y113160D01*
X348332Y113734D01*
X347478Y114239D01*
X346585Y114672D01*
X345659Y115031D01*
X344708Y115312D01*
X343736Y115515D01*
X342751Y115637D01*
X341760Y115677D01*
X340768Y115637D01*
X339783Y115515D01*
X338812Y115312D01*
X337860Y115031D01*
X336935Y114672D01*
X336042Y114239D01*
X335188Y113734D01*
X334378Y113160D01*
X333618Y112522D01*
X332912Y111824D01*
X332267Y111070D01*
X331685Y110266D01*
X331172Y109417D01*
X330730Y108528D01*
X330362Y107606D01*
X208713Y181150D02*
X207925D01*
X208713D01*
X464685Y170354D02*
X464949Y169370D01*
X465669Y168649D01*
X466653Y168386D01*
X467638Y168649D01*
X468358Y169370D01*
X468622Y170354D01*
X462559Y167953D02*
X461909Y168328D01*
Y167578D01*
X462559Y167953D01*
X438740Y165118D02*
X438623Y166117D01*
X438279Y167062D01*
X437727Y167902D01*
X436996Y168592D01*
X436125Y169095D01*
X435161Y169383D01*
X434158Y169441D01*
X433167Y169267D01*
X432244Y168869D01*
X431437Y168268D01*
X430791Y167498D01*
X430340Y166599D01*
X430108Y165621D01*
Y164615D01*
X430340Y163637D01*
X430791Y162738D01*
X431437Y161968D01*
X432244Y161368D01*
X433167Y160969D01*
X434158Y160795D01*
X435161Y160853D01*
X436125Y161142D01*
X436996Y161644D01*
X437727Y162334D01*
X438279Y163174D01*
X438623Y164119D01*
X438740Y165118D01*
X388779Y135827D02*
X389684Y136007D01*
X390450Y136519D01*
X390962Y137285D01*
X391142Y138189D01*
X386417D02*
X386597Y137285D01*
X387109Y136519D01*
X387876Y136007D01*
X388779Y135827D01*
X253616Y12205D02*
X254568Y12394D01*
X255374Y12933D01*
X255913Y13739D01*
X256102Y14691D01*
X255888Y15492D01*
X255301Y16078D01*
X254501Y16293D01*
X254908Y20325D02*
X253880Y20150D01*
X253076Y19486D01*
X252708Y18511D01*
X252873Y17481D01*
X253529Y16671D01*
X254501Y16293D01*
X245805Y102744D02*
X246221Y101740D01*
X247224Y101325D01*
X248228Y101740D01*
X248644Y102744D01*
X270088Y129768D02*
X269994Y130754D01*
X269715Y131706D01*
X269260Y132587D01*
X268648Y133366D01*
X267899Y134015D01*
X267040Y134511D01*
X266103Y134835D01*
X265122Y134976D01*
X264132Y134929D01*
X263169Y134695D01*
X262267Y134283D01*
X261459Y133708D01*
X260775Y132991D01*
X260240Y132157D01*
X259871Y131237D01*
X259683Y130263D01*
Y129272D01*
X259871Y128299D01*
X260240Y127378D01*
X260775Y126545D01*
X261459Y125827D01*
X262267Y125252D01*
X263169Y124840D01*
X264132Y124607D01*
X265122Y124559D01*
X266103Y124701D01*
X267040Y125025D01*
X267899Y125520D01*
X268648Y126170D01*
X269260Y126949D01*
X269715Y127830D01*
X269994Y128781D01*
X270088Y129768D01*
X268811Y129768D02*
X268687Y130747D01*
X268324Y131664D01*
X267744Y132463D01*
X266984Y133092D01*
X266091Y133512D01*
X265121Y133697D01*
X264136Y133635D01*
X263198Y133330D01*
X262364Y132801D01*
X261689Y132082D01*
X261213Y131217D01*
X260968Y130261D01*
Y129274D01*
X261213Y128318D01*
X261689Y127454D01*
X262364Y126734D01*
X263198Y126205D01*
X264136Y125900D01*
X265121Y125838D01*
X266091Y126023D01*
X266984Y126444D01*
X267744Y127073D01*
X268324Y127871D01*
X268687Y128789D01*
X268811Y129768D01*
X330571Y70870D02*
X330939Y69948D01*
X331381Y69059D01*
X331894Y68210D01*
X332476Y67406D01*
X333121Y66652D01*
X333826Y65954D01*
X334587Y65316D01*
X335396Y64742D01*
X336251Y64237D01*
X337143Y63804D01*
X338069Y63445D01*
X339020Y63164D01*
X339992Y62961D01*
X340977Y62839D01*
X341968Y62799D01*
X342960Y62839D01*
X343945Y62961D01*
X344917Y63164D01*
X345868Y63445D01*
X346794Y63804D01*
X347686Y64237D01*
X348541Y64742D01*
X349351Y65316D01*
X350111Y65954D01*
X350816Y66652D01*
X351461Y67406D01*
X352043Y68210D01*
X352556Y69059D01*
X352998Y69948D01*
X353366Y70870D01*
X353157Y77291D02*
X352790Y78213D01*
X352348Y79102D01*
X351834Y79951D01*
X351253Y80755D01*
X350607Y81509D01*
X349902Y82207D01*
X349142Y82845D01*
X348332Y83419D01*
X347478Y83924D01*
X346585Y84357D01*
X345659Y84716D01*
X344708Y84997D01*
X343736Y85200D01*
X342751Y85322D01*
X341760Y85362D01*
X340768Y85322D01*
X339783Y85200D01*
X338812Y84997D01*
X337860Y84716D01*
X336935Y84357D01*
X336042Y83924D01*
X335188Y83419D01*
X334378Y82845D01*
X333618Y82207D01*
X332912Y81509D01*
X332267Y80755D01*
X331685Y79951D01*
X331172Y79102D01*
X330730Y78213D01*
X330362Y77291D01*
X280787Y147598D02*
Y167598D01*
X250787Y147598D02*
Y167598D01*
X280787D01*
X250787Y147598D02*
X280787D01*
X261621D02*
X280787D01*
X357165Y198543D02*
Y218543D01*
X317165Y198543D02*
Y218543D01*
X357165D01*
X317165Y198543D02*
X357165D01*
X493307Y212598D02*
X503543D01*
X493307Y222835D02*
X503543D01*
X493307Y231890D02*
X503543D01*
X493307Y192520D02*
Y231890D01*
Y192520D02*
X503543D01*
Y231890D01*
X493307Y202362D02*
Y202756D01*
X503543D01*
X493307Y268898D02*
X503543D01*
X493307Y279134D02*
X503543D01*
X493307Y288189D02*
X503543D01*
X493307Y248819D02*
Y288189D01*
Y248819D02*
X503543D01*
Y288189D01*
X493307Y258662D02*
Y259055D01*
X503543D01*
X493307Y316929D02*
X503543D01*
X493307Y316535D02*
Y316929D01*
X503543Y306693D02*
Y346063D01*
X493307Y306693D02*
X503543D01*
X493307D02*
Y346063D01*
X503543D01*
X493307Y337008D02*
X503543D01*
X493307Y326772D02*
X503543D01*
X468898Y359842D02*
X498425D01*
Y349606D02*
Y359842D01*
X468898Y349606D02*
X498425D01*
X468898D02*
Y359842D01*
X477953Y349606D02*
Y359842D01*
X488189Y349606D02*
Y359842D01*
X439764Y349606D02*
Y359842D01*
X429528Y349606D02*
Y359842D01*
X420472Y349606D02*
Y359842D01*
Y349606D02*
X450000D01*
Y359842D01*
X420472D02*
X450000D01*
X274803Y342126D02*
X306299D01*
X353543D02*
X385039D01*
X374016Y352362D02*
X385039D01*
Y331890D02*
Y352362D01*
X374016Y331890D02*
X385039D01*
X295276Y352362D02*
X306299D01*
Y331890D02*
Y352362D01*
X295276Y331890D02*
X306299D01*
X196063Y342126D02*
X227559D01*
X216535Y331890D02*
X227559D01*
Y352362D01*
X216535D02*
X227559D01*
X148031Y341339D02*
Y341535D01*
X137008D02*
X148031D01*
X137008Y331890D02*
X148031D01*
Y333071D01*
Y352362D01*
X146457D02*
X148031D01*
X137008D02*
X146457D01*
X363386Y331890D02*
Y352362D01*
X295276Y331890D02*
Y352362D01*
X353543Y331890D02*
X374016D01*
Y352362D01*
X353543D02*
X374016D01*
X284646Y331890D02*
Y352362D01*
X216535Y331890D02*
Y352362D01*
X274803Y331890D02*
X295276D01*
X353543D02*
Y352362D01*
X274803D02*
X295276D01*
X205906Y331890D02*
Y352362D01*
X137008Y331890D02*
Y352362D01*
X196063Y331890D02*
X216535D01*
X274803D02*
Y352362D01*
X196063D02*
X216535D01*
X116535Y341535D02*
X137008D01*
X116535Y352362D02*
X137008D01*
X196063Y331890D02*
Y352362D01*
X116535Y331890D02*
X137008D01*
X116535D02*
Y352362D01*
X126378Y331890D02*
Y352362D01*
X513307Y155236D02*
Y175236D01*
Y155236D02*
X523307D01*
Y175236D01*
X513307D02*
X523307D01*
X117047Y358248D02*
Y378248D01*
X147047Y358248D02*
Y378248D01*
X117047Y358248D02*
X147047D01*
X117047Y378248D02*
X147047D01*
X117047D02*
X136214D01*
X196575Y358248D02*
Y378248D01*
X226575Y358248D02*
Y378248D01*
X196575Y358248D02*
X226575D01*
X196575Y378248D02*
X226575D01*
X196575D02*
X215741D01*
X275315Y358248D02*
Y378248D01*
X305315Y358248D02*
Y378248D01*
X275315Y358248D02*
X305315D01*
X275315Y378248D02*
X305315D01*
X275315D02*
X294482D01*
X354055Y358248D02*
Y378248D01*
X384055Y358248D02*
Y378248D01*
X354055Y358248D02*
X384055D01*
X354055Y378248D02*
X384055D01*
X354055D02*
X373222D01*
X449961Y367284D02*
Y377284D01*
X419961Y367284D02*
X449961D01*
X419961D02*
Y377284D01*
X449961D01*
X468425Y367284D02*
Y377284D01*
X498425D01*
Y367284D02*
Y377284D01*
X468425Y367284D02*
X498425D01*
X513031Y306260D02*
X523032D01*
X513031D02*
Y346260D01*
X523032Y306260D02*
Y346260D01*
X513031D02*
X523032D01*
X513031Y248268D02*
X523032D01*
X513031D02*
Y288268D01*
X523032Y248268D02*
Y288268D01*
X513031D02*
X523032D01*
X513031Y192165D02*
X523032D01*
X513031D02*
Y232165D01*
X523032Y192165D02*
Y232165D01*
X513031D02*
X523032D01*
X196378Y266811D02*
Y269803D01*
X194646D02*
X196378D01*
X194646D02*
Y274567D01*
X196378D01*
Y279252D01*
X194724D02*
X196378D01*
X194724D02*
Y283543D01*
X196378D01*
Y287795D01*
X194764D02*
X196378D01*
X194764D02*
Y292047D01*
X196378D01*
Y295158D01*
X370158Y62951D02*
X381378D01*
X343622Y114961D02*
Y115276D01*
X350339Y97465D02*
X350740D01*
Y98213D01*
X352394Y99866D01*
X346685Y97228D02*
Y99866D01*
X349756Y96598D02*
X350142Y96984D01*
Y99551D01*
X349827Y99866D02*
X350142Y99551D01*
X346685Y99866D02*
X349827D01*
X349421Y100535D02*
X349563Y100677D01*
X345618Y100535D02*
X349421D01*
X345390Y108150D02*
X349193D01*
X349335Y108008D01*
X346457Y108819D02*
X349598D01*
X349913Y109134D01*
Y111701D01*
X349528Y112087D02*
X349913Y111701D01*
X344417Y115047D02*
X345000D01*
X343976Y114606D02*
X344417Y115047D01*
X346457Y108819D02*
Y111457D01*
X350512Y110472D02*
X352165Y108819D01*
X350512Y110472D02*
Y111221D01*
X350110D02*
X350512D01*
X347610Y113721D02*
X350110Y111221D01*
X344488Y114094D02*
X346890D01*
X343622Y114961D02*
X344488Y114094D01*
X352614Y91425D02*
X355323D01*
X332921D02*
X352614D01*
X328465Y95882D02*
X332921Y91425D01*
X328465Y95882D02*
Y101354D01*
X328496Y107567D02*
Y113039D01*
X332953Y117496D01*
X352646D01*
X355354D01*
Y117402D02*
Y117496D01*
X355354Y91417D02*
Y101260D01*
X355354Y107559D02*
Y117402D01*
X460157Y150157D02*
Y170354D01*
Y150157D02*
X473071D01*
Y170354D01*
X419606Y176299D02*
Y179291D01*
Y176299D02*
X421339D01*
Y171535D02*
Y176299D01*
X419606Y171535D02*
X421339D01*
X419606Y166850D02*
Y171535D01*
Y166850D02*
X421260D01*
Y162559D02*
Y166850D01*
X419606Y162559D02*
X421260D01*
X419606Y158307D02*
Y162559D01*
Y158307D02*
X421220D01*
Y154055D02*
Y158307D01*
X419606Y154055D02*
X421220D01*
X419606Y150945D02*
Y154055D01*
X374213Y94882D02*
Y138189D01*
Y94882D02*
X403346D01*
Y138189D01*
X374213D02*
X386417D01*
X391142D02*
X403346D01*
X328646Y148719D02*
Y160530D01*
X355024Y148719D02*
Y160530D01*
X328646Y148719D02*
X355024D01*
X328646Y160530D02*
X355024D01*
X352507Y177737D02*
X354279D01*
X361169D02*
X362954D01*
X362941D02*
Y183052D01*
X352507Y177737D02*
Y183052D01*
X313925Y177737D02*
X315697D01*
X322586D02*
X324371D01*
X324358D02*
Y183052D01*
X313925Y177737D02*
Y183052D01*
X270394Y169803D02*
Y179803D01*
X290394D01*
Y169803D02*
Y179803D01*
X270394Y169803D02*
X290394D01*
X277913Y82165D02*
Y94842D01*
X278740D01*
X277913Y82165D02*
X278701D01*
X290748Y82047D02*
Y94724D01*
X289961D02*
X290748D01*
X289921Y82047D02*
X290748D01*
X240748Y8268D02*
X249213D01*
X240748D02*
Y24016D01*
X248819D01*
X260039Y8268D02*
X260433D01*
X268701D01*
Y8661D01*
Y24016D01*
X260039D02*
X268701D01*
X270441Y29430D02*
Y34745D01*
X280874Y29430D02*
Y34745D01*
X279102Y29430D02*
X280887D01*
X270441D02*
X272212D01*
X178724Y-1413D02*
X226362D01*
X178724Y-1807D02*
Y-1413D01*
X226362Y-9902D02*
Y20240D01*
X222819Y-9902D02*
X226362D01*
X178724D02*
Y20240D01*
Y-9902D02*
X180299D01*
X178724Y39138D02*
Y54098D01*
X180299D01*
X226362Y39138D02*
Y54098D01*
X222819D02*
X226362D01*
X180299D02*
X222819D01*
X180299Y-9902D02*
X222819D01*
X248644Y102744D02*
X253917D01*
X240531D02*
X245805D01*
X253917Y62193D02*
Y102744D01*
X240531Y62193D02*
X253917D01*
X240531D02*
Y102744D01*
X232756Y102626D02*
X238661D01*
X253614Y122051D02*
X258024D01*
X271567Y137602D02*
X275976D01*
X258220Y120831D02*
X271646D01*
X258024D02*
Y122051D01*
Y123193D01*
X271606D01*
X271646D01*
Y122051D02*
Y123193D01*
X271567Y137799D02*
Y138941D01*
X257945D02*
X271528D01*
X257945Y137799D02*
Y138941D01*
Y136579D02*
Y137799D01*
X258142Y136579D02*
X271567D01*
Y137799D01*
X258024Y120831D02*
X258220D01*
X253614Y137602D02*
X257945D01*
X253614Y122051D02*
Y137602D01*
X271646Y122051D02*
X275976D01*
X271646Y120831D02*
Y122051D01*
X275976D02*
Y127524D01*
X276961D02*
Y132051D01*
X276095D02*
X276961D01*
X276095D02*
Y137602D01*
X275976D02*
X276095D01*
X275976Y127524D02*
X276961D01*
X291335Y38979D02*
X317713D01*
X291335Y27168D02*
X317713D01*
Y38979D01*
X291335Y27168D02*
Y38979D01*
X399428Y66484D02*
X404743D01*
X399428Y76917D02*
X404743D01*
Y75145D02*
Y76930D01*
Y66484D02*
Y68256D01*
X399213Y30610D02*
X404528D01*
X399213Y41043D02*
X404528D01*
Y39272D02*
Y41057D01*
Y30610D02*
Y32382D01*
X343622Y84646D02*
Y84961D01*
X350339Y67150D02*
X350740D01*
Y67898D01*
X352394Y69551D01*
X346685Y66913D02*
Y69551D01*
X349756Y66283D02*
X350142Y66669D01*
Y69236D01*
X349827Y69551D02*
X350142Y69236D01*
X346685Y69551D02*
X349827D01*
X349421Y70220D02*
X349563Y70362D01*
X345618Y70220D02*
X349421D01*
X345390Y77835D02*
X349193D01*
X349335Y77693D01*
X346457Y78504D02*
X349598D01*
X349913Y78819D01*
Y81386D01*
X349528Y81772D02*
X349913Y81386D01*
X344417Y84732D02*
X345000D01*
X343976Y84291D02*
X344417Y84732D01*
X346457Y78504D02*
Y81142D01*
X350512Y80158D02*
X352165Y78504D01*
X350512Y80158D02*
Y80905D01*
X350110D02*
X350512D01*
X347610Y83406D02*
X350110Y80905D01*
X344488Y83780D02*
X346890D01*
X343622Y84646D02*
X344488Y83780D01*
X352614Y61110D02*
X355323D01*
X332921D02*
X352614D01*
X328465Y65567D02*
X332921Y61110D01*
X328465Y65567D02*
Y71039D01*
X328496Y77252D02*
Y82724D01*
X332953Y87181D01*
X352646D01*
X355354D01*
Y87087D02*
Y87181D01*
X355354Y61102D02*
Y70945D01*
X355354Y77244D02*
Y87087D01*
X140827Y146142D02*
Y298642D01*
Y306142D01*
X122494Y149475D02*
X135827D01*
X120827Y151142D02*
X122494Y149475D01*
X120827Y151142D02*
X122494Y152808D01*
X135827D01*
X122494Y159475D02*
X135827D01*
X120827Y161142D02*
X122494Y159475D01*
X120827Y161142D02*
X122494Y162808D01*
X135827D01*
X122494Y169475D02*
X135827D01*
X120827Y171142D02*
X122494Y169475D01*
X120827Y171142D02*
X122494Y172808D01*
X135827D01*
X122494Y179475D02*
X135827D01*
X120827Y181142D02*
X122494Y179475D01*
X120827Y181142D02*
X122494Y182808D01*
X135827D01*
X122494Y189475D02*
X135827D01*
X120827Y191142D02*
X122494Y189475D01*
X120827Y191142D02*
X122494Y192808D01*
X135827D01*
X122494Y199475D02*
X135827D01*
X120827Y201142D02*
X122494Y199475D01*
X120827Y201142D02*
X122494Y202808D01*
X135827D01*
X122494Y209475D02*
X135827D01*
X120827Y211142D02*
X122494Y209475D01*
X120827Y211142D02*
X122494Y212808D01*
X135827D01*
X122494Y219475D02*
X135827D01*
X120827Y221142D02*
X122494Y219475D01*
X120827Y221142D02*
X122494Y222808D01*
X135827D01*
X122494Y229475D02*
X135827D01*
X120827Y231142D02*
X122494Y229475D01*
X120827Y231142D02*
X122494Y232808D01*
X135827D01*
X122494Y239475D02*
X135827D01*
X120827Y241142D02*
X122494Y239475D01*
X120827Y241142D02*
X122494Y242808D01*
X135827D01*
X122494Y249475D02*
X135827D01*
X120827Y251142D02*
X122494Y249475D01*
X120827Y251142D02*
X122494Y252808D01*
X135827D01*
X122494Y259475D02*
X135827D01*
X120827Y261142D02*
X122494Y259475D01*
X120827Y261142D02*
X122494Y262808D01*
X135827D01*
X122494Y269475D02*
X135827D01*
X120827Y271142D02*
X122494Y269475D01*
X120827Y271142D02*
X122494Y272808D01*
X135827D01*
X122494Y279475D02*
X135827D01*
X120827Y281142D02*
X122494Y279475D01*
X120827Y281142D02*
X122494Y282808D01*
X135827D01*
X122494Y289475D02*
X135827D01*
X120827Y291142D02*
X122494Y289475D01*
X120827Y291142D02*
X122494Y292808D01*
X135827D01*
X122494Y299475D02*
X135827D01*
X120827Y301142D02*
X122494Y299475D01*
X120827Y301142D02*
X122494Y302808D01*
X135827D01*
Y146142D02*
X140827D01*
X135827D02*
Y306142D01*
X140827D01*
D12*
X177027Y271260D02*
X176289Y271686D01*
Y270834D01*
X177027Y271260D01*
X314764Y203543D02*
X314319Y204467D01*
X313320Y204695D01*
X312519Y204056D01*
Y203031D01*
X313320Y202392D01*
X314319Y202620D01*
X314764Y203543D01*
X314055D02*
X313347Y203953D01*
Y203134D01*
X314055Y203543D01*
X247913Y152362D02*
X247205Y152771D01*
Y151953D01*
X247913Y152362D01*
X439941Y174843D02*
X439203Y175269D01*
Y174416D01*
X439941Y174843D01*
X355320Y165845D02*
X354581Y166271D01*
Y165419D01*
X355320Y165845D01*
X248622Y152362D02*
X248177Y153286D01*
X247178Y153514D01*
X246377Y152875D01*
Y151850D01*
X247178Y151211D01*
X248177Y151439D01*
X248622Y152362D01*
X318009Y44294D02*
X317270Y44720D01*
Y43867D01*
X318009Y44294D01*
D13*
X343512Y52465D02*
X342968Y53213D01*
X342087Y52927D01*
Y52002D01*
X342968Y51716D01*
X343512Y52465D01*
D14*
X419095Y138264D02*
X418307D01*
X419095D01*
Y67004D02*
X418307D01*
X419095D01*
X526968Y45118D02*
Y76772D01*
X511220D02*
X526968D01*
X511220Y41339D02*
Y76772D01*
Y41339D02*
X526968D01*
Y45118D01*
X526968Y104449D02*
Y136102D01*
X511221D02*
X526968D01*
X511221Y100669D02*
Y136102D01*
Y100669D02*
X526968D01*
Y104449D01*
D15*
X377559Y133858D02*
X376969Y134449D01*
X376378Y133858D01*
X376969Y133268D01*
X377559Y133858D01*
X320615Y256572D02*
X314843D01*
Y247913D01*
X320615D01*
X314843Y252243D02*
X317729D01*
X329274Y255129D02*
X327831Y256572D01*
X324944D01*
X323501Y255129D01*
Y253686D01*
X324944Y252243D01*
X327831D01*
X329274Y250800D01*
Y249357D01*
X327831Y247913D01*
X324944D01*
X323501Y249357D01*
X332160Y247913D02*
Y256572D01*
X336489D01*
X337932Y255129D01*
Y252243D01*
X336489Y250800D01*
X332160D01*
X340818Y252243D02*
X346591D01*
X349477Y255129D02*
X350920Y256572D01*
X353806D01*
X355249Y255129D01*
Y249357D01*
X353806Y247913D01*
X350920D01*
X349477Y249357D01*
Y255129D01*
X358136Y247913D02*
X361022D01*
X359579D01*
Y256572D01*
X358136Y255129D01*
D16*
X368701Y138976D02*
X367913D01*
X368701D01*
X44491Y59449D02*
X52362D01*
Y63385D01*
X51050Y64697D01*
X45803D01*
X44491Y63385D01*
Y59449D01*
X52362Y71256D02*
Y68632D01*
X51050Y67320D01*
X48426D01*
X47115Y68632D01*
Y71256D01*
X48426Y72568D01*
X49738D01*
Y67320D01*
X52362Y75192D02*
Y79128D01*
X51050Y80439D01*
X49738Y79128D01*
Y76504D01*
X48426Y75192D01*
X47115Y76504D01*
Y80439D01*
X52362Y83063D02*
Y85687D01*
Y84375D01*
X47115D01*
Y83063D01*
X54986Y92247D02*
Y93559D01*
X53674Y94871D01*
X47115D01*
Y90935D01*
X48426Y89623D01*
X51050D01*
X52362Y90935D01*
Y94871D01*
Y97494D02*
X47115D01*
Y101430D01*
X48426Y102742D01*
X52362D01*
Y109301D02*
Y106678D01*
X51050Y105366D01*
X48426D01*
X47115Y106678D01*
Y109301D01*
X48426Y110613D01*
X49738D01*
Y105366D01*
X44491Y118485D02*
X52362D01*
Y114549D01*
X51050Y113237D01*
X48426D01*
X47115Y114549D01*
Y118485D01*
X44491Y128980D02*
X52362D01*
Y132916D01*
X51050Y134228D01*
X49738D01*
X48426D01*
X47115Y132916D01*
Y128980D01*
Y136852D02*
X51050D01*
X52362Y138164D01*
Y142099D01*
X53674D01*
X54986Y140787D01*
Y139476D01*
X52362Y142099D02*
X47115D01*
X44491Y152595D02*
X52362D01*
X48426D01*
Y157842D01*
X44491D01*
X52362D01*
Y164402D02*
Y161778D01*
X51050Y160466D01*
X48426D01*
X47115Y161778D01*
Y164402D01*
X48426Y165714D01*
X49738D01*
Y160466D01*
X52362Y168338D02*
Y170961D01*
Y169650D01*
X44491D01*
Y168338D01*
X52362Y174897D02*
Y177521D01*
Y176209D01*
X47115D01*
Y174897D01*
X52362Y182769D02*
Y185392D01*
X51050Y186704D01*
X48426D01*
X47115Y185392D01*
Y182769D01*
X48426Y181457D01*
X51050D01*
X52362Y182769D01*
Y189328D02*
Y193264D01*
X51050Y194576D01*
X49738Y193264D01*
Y190640D01*
X48426Y189328D01*
X47115Y190640D01*
Y194576D01*
X44491Y210319D02*
Y205071D01*
X52362D01*
Y210319D01*
X48426Y205071D02*
Y207695D01*
X52362Y212943D02*
X47115D01*
Y216878D01*
X48426Y218190D01*
X52362D01*
Y224750D02*
Y222126D01*
X51050Y220814D01*
X48426D01*
X47115Y222126D01*
Y224750D01*
X48426Y226062D01*
X49738D01*
Y220814D01*
X47115Y228686D02*
X52362D01*
X49738D01*
X48426Y229997D01*
X47115Y231309D01*
Y232621D01*
X54986Y239181D02*
Y240493D01*
X53674Y241805D01*
X47115D01*
Y237869D01*
X48426Y236557D01*
X51050D01*
X52362Y237869D01*
Y241805D01*
X47115Y244429D02*
X51050D01*
X52362Y245741D01*
Y249676D01*
X53674D01*
X54986Y248364D01*
Y247052D01*
X52362Y249676D02*
X47115D01*
Y265419D02*
Y261483D01*
X48426Y260172D01*
X51050D01*
X52362Y261483D01*
Y265419D01*
Y269355D02*
Y271979D01*
X51050Y273291D01*
X48426D01*
X47115Y271979D01*
Y269355D01*
X48426Y268043D01*
X51050D01*
X52362Y269355D01*
Y275915D02*
X51050D01*
Y277226D01*
X52362D01*
Y275915D01*
X44491Y295593D02*
Y292969D01*
Y294281D01*
X51050D01*
X52362Y292969D01*
Y291657D01*
X51050Y290346D01*
X52362Y299529D02*
Y302153D01*
X51050Y303465D01*
X48426D01*
X47115Y302153D01*
Y299529D01*
X48426Y298217D01*
X51050D01*
X52362Y299529D01*
X47115Y306088D02*
X52362D01*
X49738D01*
X48426Y307400D01*
X47115Y308712D01*
Y310024D01*
X44491Y319208D02*
X52362D01*
Y315272D01*
X51050Y313960D01*
X48426D01*
X47115Y315272D01*
Y319208D01*
Y323143D02*
Y325767D01*
X48426Y327079D01*
X52362D01*
Y323143D01*
X51050Y321831D01*
X49738Y323143D01*
Y327079D01*
X52362Y329703D02*
X47115D01*
Y333639D01*
X48426Y334951D01*
X52362D01*
D17*
X278717Y79882D02*
D03*
D18*
X461764Y178234D02*
X462472Y178943D01*
X461764Y172913D02*
X462630Y172047D01*
X469165D01*
X462472Y172205D02*
Y178943D01*
X471449Y172047D02*
X478024D01*
X478102Y172126D02*
Y178864D01*
X471409Y178943D02*
X478024D01*
X461764Y172913D02*
Y178234D01*
X462472Y178943D02*
X469126D01*
X325008Y-9347D02*
X360441D01*
X325008D02*
Y47346D01*
X360441Y42819D02*
Y47346D01*
X325008D02*
X332291D01*
X360441Y-9347D02*
Y22740D01*
X352764Y47346D02*
X360441D01*
X380669Y51260D02*
X381594D01*
Y51299D02*
Y68307D01*
X380669Y68347D02*
X381594D01*
X369980Y68425D02*
X370905D01*
X369980Y51378D02*
Y68386D01*
Y51339D02*
X370905D01*
X327323Y122165D02*
X327401Y122244D01*
X321417Y122165D02*
X327323D01*
X327401Y122244D02*
Y131063D01*
X321417D02*
X327401D01*
X308898D02*
X314488D01*
X308898Y122165D02*
X314449D01*
X308228Y130394D02*
X308898Y131063D01*
X308228Y122835D02*
Y130394D01*
Y122835D02*
X308898Y122165D01*
X421260Y83661D02*
Y144685D01*
X496457D01*
Y83661D02*
Y144685D01*
X421260Y83661D02*
X496457D01*
X421260Y12402D02*
Y73425D01*
X496457D01*
Y12402D02*
Y73425D01*
X421260Y12402D02*
X496457D01*
X220782Y98779D02*
X221490Y98071D01*
X226811D02*
X227677Y98937D01*
Y105472D01*
X227520Y98779D02*
X227677Y98937D01*
X220782Y98779D02*
X227520D01*
X227598Y114409D02*
X227677Y114331D01*
Y107756D02*
Y114331D01*
X220861Y114409D02*
X227598D01*
X220782Y114331D02*
X220861Y114409D01*
X220782Y107717D02*
Y114331D01*
X221490Y98071D02*
X226811D01*
X220782Y98779D02*
Y105433D01*
X171648Y98779D02*
Y105433D01*
X172356Y98071D02*
X177677D01*
X171648Y107717D02*
Y114331D01*
X171727Y114409D02*
X178465D01*
X178543Y107756D02*
Y114331D01*
X171648Y98779D02*
X178386D01*
X178543Y98937D02*
Y105472D01*
X177677Y98071D02*
X178543Y98937D01*
X171648Y98779D02*
X172356Y98071D01*
X212042Y98779D02*
Y105433D01*
X212750Y98071D02*
X218071D01*
X212042Y107717D02*
Y114331D01*
X212120Y114409D01*
X218858D01*
X218937Y107756D02*
Y114331D01*
X218858Y114409D02*
X218937Y114331D01*
X212042Y98779D02*
X218779D01*
X218937Y98937D01*
Y105472D01*
X218071Y98071D02*
X218937Y98937D01*
X212042Y98779D02*
X212750Y98071D01*
X329910Y175591D02*
X345472D01*
X328150Y177351D02*
X329910Y175591D01*
X328150Y177351D02*
Y188189D01*
X345472Y175591D02*
Y188189D01*
X328150D02*
X345472D01*
X303060Y101024D02*
X318622D01*
X301299Y102784D02*
X303060Y101024D01*
X301299Y102784D02*
Y113622D01*
X318622Y101024D02*
Y113622D01*
X301299D02*
X318622D01*
X191850Y111811D02*
X207413D01*
X209173Y110050D01*
Y99213D02*
Y110050D01*
X191850Y99213D02*
Y111811D01*
Y99213D02*
X209173D01*
D19*
X189902Y218584D02*
X194823D01*
X354135Y120374D02*
Y125295D01*
X185453Y181969D02*
X190374D01*
X229292Y252303D02*
Y257224D01*
X319607Y161673D02*
Y166594D01*
X358760Y159054D02*
X363681D01*
X254881Y106516D02*
Y111437D01*
X266634Y88975D02*
X271555D01*
X308438Y52213D02*
Y57134D01*
X261122Y33464D02*
X266043D01*
X232401Y168681D02*
Y173602D01*
X489960Y151083D02*
Y156004D01*
Y169193D02*
Y174114D01*
D20*
X182362Y281772D02*
X185787D01*
X182362Y280197D02*
X185709D01*
X177402Y281772D02*
X180787D01*
X171299Y280591D02*
Y280984D01*
X177362Y280197D02*
X180787D01*
X182362Y276772D02*
Y285197D01*
X180787Y276811D02*
Y285197D01*
X167598Y266811D02*
Y295158D01*
X196378D01*
X167598Y266811D02*
X196378D01*
X468622Y170354D02*
X473071D01*
X460157D02*
X464685D01*
X430197Y164331D02*
X433622D01*
X430276Y165905D02*
X433622D01*
X435197Y164331D02*
X438583D01*
X444685Y165118D02*
Y165512D01*
X435197Y165905D02*
X438622D01*
X433622Y160906D02*
Y169331D01*
X435197Y160906D02*
Y169291D01*
X448386Y150945D02*
Y179291D01*
X419606Y150945D02*
X448386D01*
X419606Y179291D02*
X448386D01*
X398118Y56693D02*
Y63819D01*
X396622Y56653D02*
Y63858D01*
Y56653D02*
X404181D01*
Y63858D01*
X396622D02*
X404181D01*
X398543Y19685D02*
Y26811D01*
X397047Y19646D02*
Y26850D01*
Y19646D02*
X404606D01*
Y26850D01*
X397047D02*
X404606D01*
D21*
X157083Y157602D02*
Y164602D01*
X170083D01*
Y157602D02*
Y164602D01*
X157083Y157602D02*
X170083D01*
X472043Y180752D02*
Y187752D01*
X485043D01*
Y180752D02*
Y187752D01*
X472043Y180752D02*
X485043D01*
X405752Y154925D02*
X412752D01*
Y141925D02*
Y154925D01*
X405752Y141925D02*
X412752D01*
X405752D02*
Y154925D01*
X395516D02*
X402516D01*
Y141925D02*
Y154925D01*
X395516Y141925D02*
X402516D01*
X395516D02*
Y154925D01*
X393303Y80358D02*
Y87358D01*
X406303D01*
Y80358D02*
Y87358D01*
X393303Y80358D02*
X406303D01*
X282122Y181382D02*
Y188382D01*
X295122D01*
Y181382D02*
Y188382D01*
X282122Y181382D02*
X295122D01*
X393303Y44925D02*
Y51925D01*
X406303D01*
Y44925D02*
Y51925D01*
X393303Y44925D02*
X406303D01*
X452209Y185240D02*
X459209D01*
Y172240D02*
Y185240D01*
X452209Y172240D02*
X459209D01*
X452209D02*
Y185240D01*
X483461Y159098D02*
Y166098D01*
X496461D01*
Y159098D02*
Y166098D01*
X483461Y159098D02*
X496461D01*
X285035Y67366D02*
Y74366D01*
X298035D01*
Y67366D02*
Y74366D01*
X285035Y67366D02*
X298035D01*
Y57524D02*
Y64524D01*
X285035Y57524D02*
X298035D01*
X285035D02*
Y64524D01*
X298035D01*
X189051Y98067D02*
Y111067D01*
X182051D02*
X189051D01*
X182051Y98067D02*
Y111067D01*
Y98067D02*
X189051D01*
D22*
X314645Y132835D02*
Y135984D01*
D23*
X23232Y130312D02*
Y122441D01*
X35039D01*
Y130312D01*
X29136Y122441D02*
Y126377D01*
X27168Y134248D02*
X35039Y138184D01*
X27168Y142120D01*
X35039Y148023D02*
Y151959D01*
X33072Y153927D01*
X29136D01*
X27168Y151959D01*
Y148023D01*
X29136Y146055D01*
X33072D01*
X35039Y148023D01*
Y159830D02*
Y163766D01*
X33072Y165734D01*
X29136D01*
X27168Y163766D01*
Y159830D01*
X29136Y157862D01*
X33072D01*
X35039Y159830D01*
X29136Y169670D02*
Y177541D01*
X23232Y181477D02*
X35039D01*
Y187381D01*
X33072Y189348D01*
X31104D01*
X29136Y187381D01*
Y181477D01*
Y187381D01*
X27168Y189348D01*
X25200D01*
X23232Y187381D01*
Y181477D01*
X35039Y195252D02*
Y199188D01*
X33072Y201156D01*
X29136D01*
X27168Y199188D01*
Y195252D01*
X29136Y193284D01*
X33072D01*
X35039Y195252D01*
X25200Y207059D02*
X27168D01*
Y205091D01*
Y209027D01*
Y207059D01*
X33072D01*
X35039Y209027D01*
X23232Y226738D02*
X31104D01*
X35039Y230674D01*
X31104Y234609D01*
X23232D01*
X35039Y238545D02*
Y242481D01*
Y240513D01*
X23232D01*
X25200Y238545D01*
X35039Y248384D02*
X33072D01*
Y250352D01*
X35039D01*
Y248384D01*
X25200Y258224D02*
X23232Y260192D01*
Y264127D01*
X25200Y266095D01*
X33072D01*
X35039Y264127D01*
Y260192D01*
X33072Y258224D01*
X25200D01*
X88819Y82244D02*
Y86180D01*
Y84212D01*
X77012D01*
X78980Y82244D01*
X77012Y99955D02*
X78980Y96019D01*
X82915Y92083D01*
X86851D01*
X88819Y94051D01*
Y97987D01*
X86851Y99955D01*
X84883D01*
X82915Y97987D01*
Y92083D01*
X80947Y103891D02*
X88819Y111762D01*
X84883Y107826D01*
X80947Y111762D01*
X88819Y103891D01*
Y123569D02*
Y115698D01*
X80947Y123569D01*
X78980D01*
X77012Y121601D01*
Y117666D01*
X78980Y115698D01*
X77012Y139312D02*
X88819D01*
Y147184D01*
X78980Y158991D02*
X77012Y157023D01*
Y153087D01*
X78980Y151119D01*
X86851D01*
X88819Y153087D01*
Y157023D01*
X86851Y158991D01*
X77012Y162927D02*
X88819D01*
Y168830D01*
X86851Y170798D01*
X78980D01*
X77012Y168830D01*
Y162927D01*
X88819Y186541D02*
X77012D01*
X80947Y190477D01*
X77012Y194413D01*
X88819D01*
X77012Y204252D02*
Y200316D01*
X78980Y198348D01*
X86851D01*
X88819Y200316D01*
Y204252D01*
X86851Y206220D01*
X78980D01*
X77012Y204252D01*
Y210155D02*
X88819D01*
Y216059D01*
X86851Y218027D01*
X78980D01*
X77012Y216059D01*
Y210155D01*
Y221963D02*
X86851D01*
X88819Y223931D01*
Y227866D01*
X86851Y229834D01*
X77012D01*
Y233770D02*
X88819D01*
Y241641D01*
X77012Y253449D02*
Y245577D01*
X88819D01*
Y253449D01*
X82915Y245577D02*
Y249513D01*
D24*
X535719Y101732D02*
X541717D01*
X539717Y103732D01*
X541717Y105731D01*
X535719D01*
X542717Y107730D02*
Y111729D01*
X541717Y113728D02*
X535719D01*
Y116727D01*
X536719Y117727D01*
X538718D01*
X539717Y116727D01*
Y113728D01*
X535719Y119726D02*
X540717D01*
X541717Y120726D01*
Y122725D01*
X540717Y123725D01*
X535719D01*
X541717Y125724D02*
X535719D01*
X537718Y127724D01*
X535719Y129723D01*
X541717D01*
Y131723D02*
X535719D01*
Y134722D01*
X536719Y135721D01*
X538718D01*
X539717Y134722D01*
Y131723D01*
X535719Y45748D02*
X541717D01*
Y48747D01*
X540717Y49747D01*
X539717D01*
X538718Y48747D01*
Y45748D01*
Y48747D01*
X537718Y49747D01*
X536719D01*
X535719Y48747D01*
Y45748D01*
X541717Y51746D02*
X535719D01*
Y54745D01*
X536719Y55745D01*
X538718D01*
X539717Y54745D01*
Y51746D01*
Y53746D02*
X541717Y55745D01*
X542717Y57744D02*
Y61743D01*
X541717Y63742D02*
X535719D01*
X537718Y65742D01*
X535719Y67741D01*
X541717D01*
X535719Y69740D02*
Y73739D01*
Y71740D01*
X541717D01*
X537718Y318959D02*
X536719Y317960D01*
Y315960D01*
X537718Y314961D01*
X538718D01*
X539717Y315960D01*
Y317960D01*
X540717Y318959D01*
X541717D01*
X542717Y317960D01*
Y315960D01*
X541717Y314961D01*
X536719Y323958D02*
Y321958D01*
X537718Y320959D01*
X541717D01*
X542717Y321958D01*
Y323958D01*
X541717Y324957D01*
X537718D01*
X536719Y323958D01*
X542717Y326957D02*
X536719D01*
X542717Y330956D01*
X536719D01*
X537718Y332955D02*
X536719Y333955D01*
Y335954D01*
X537718Y336953D01*
X538718D01*
X539717Y335954D01*
Y334954D01*
Y335954D01*
X540717Y336953D01*
X541717D01*
X542717Y335954D01*
Y333955D01*
X541717Y332955D01*
X537718Y260298D02*
X536719Y259298D01*
Y257299D01*
X537718Y256299D01*
X538718D01*
X539717Y257299D01*
Y259298D01*
X540717Y260298D01*
X541717D01*
X542717Y259298D01*
Y257299D01*
X541717Y256299D01*
X536719Y265296D02*
Y263297D01*
X537718Y262297D01*
X541717D01*
X542717Y263297D01*
Y265296D01*
X541717Y266296D01*
X537718D01*
X536719Y265296D01*
X542717Y268295D02*
X536719D01*
X542717Y272294D01*
X536719D01*
X542717Y278292D02*
Y274293D01*
X538718Y278292D01*
X537718D01*
X536719Y277292D01*
Y275293D01*
X537718Y274293D01*
X537718Y205180D02*
X536719Y204180D01*
Y202181D01*
X537718Y201181D01*
X538718D01*
X539717Y202181D01*
Y204180D01*
X540717Y205180D01*
X541717D01*
X542717Y204180D01*
Y202181D01*
X541717Y201181D01*
X536719Y210178D02*
Y208179D01*
X537718Y207179D01*
X541717D01*
X542717Y208179D01*
Y210178D01*
X541717Y211178D01*
X537718D01*
X536719Y210178D01*
X542717Y213177D02*
X536719D01*
X542717Y217176D01*
X536719D01*
X542717Y219175D02*
Y221175D01*
Y220175D01*
X536719D01*
X537718Y219175D01*
X499606Y383766D02*
Y389764D01*
X497607Y387764D01*
X495608Y389764D01*
Y383766D01*
X493608D02*
Y389764D01*
X489609D01*
X487610Y390763D02*
X483611D01*
X477613Y384765D02*
X478613Y383766D01*
X480612D01*
X481612Y384765D01*
Y385765D01*
X480612Y386765D01*
X478613D01*
X477613Y387764D01*
Y388764D01*
X478613Y389764D01*
X480612D01*
X481612Y388764D01*
X471615Y383766D02*
X475614D01*
Y389764D01*
X471615D01*
X475614Y386765D02*
X473615D01*
X469616Y389764D02*
Y383766D01*
X465617Y389764D01*
Y383766D01*
X439702Y384765D02*
X440702Y383766D01*
X442701D01*
X443701Y384765D01*
Y388764D01*
X442701Y389764D01*
X440702D01*
X439702Y388764D01*
Y386765D01*
X441701D01*
X433704Y384765D02*
X434704Y383766D01*
X436703D01*
X437703Y384765D01*
Y385765D01*
X436703Y386765D01*
X434704D01*
X433704Y387764D01*
Y388764D01*
X434704Y389764D01*
X436703D01*
X437703Y388764D01*
X431705Y389764D02*
Y383766D01*
X429705Y385765D01*
X427706Y383766D01*
Y389764D01*
X541717Y151378D02*
X535719D01*
Y154377D01*
X536719Y155377D01*
X538718D01*
X539717Y154377D01*
Y151378D01*
Y153377D02*
X541717Y155377D01*
X542717Y157376D02*
Y161375D01*
X536719Y167373D02*
X535719Y166373D01*
Y164374D01*
X536719Y163374D01*
X537718D01*
X538718Y164374D01*
Y166373D01*
X539717Y167373D01*
X540717D01*
X541717Y166373D01*
Y164374D01*
X540717Y163374D01*
X535719Y173371D02*
Y169372D01*
X541717D01*
Y173371D01*
X538718Y169372D02*
Y171371D01*
X541717Y175370D02*
X535719D01*
X541717Y179369D01*
X535719D01*
X376575Y389764D02*
Y383766D01*
X374575Y385765D01*
X372576Y383766D01*
Y389764D01*
X370577Y383766D02*
X366578D01*
X368577D01*
Y389764D01*
X364579D02*
X362579D01*
X363579D01*
Y383766D01*
X364579Y384765D01*
X299410Y389764D02*
Y383766D01*
X297410Y385765D01*
X295411Y383766D01*
Y389764D01*
X293411Y383766D02*
X289413D01*
X291412D01*
Y389764D01*
X283415D02*
X287413D01*
X283415Y385765D01*
Y384765D01*
X284414Y383766D01*
X286414D01*
X287413Y384765D01*
X219882Y389764D02*
Y383766D01*
X217882Y385765D01*
X215883Y383766D01*
Y389764D01*
X213884Y383766D02*
X209885D01*
X211884D01*
Y389764D01*
X207886Y384765D02*
X206886Y383766D01*
X204887D01*
X203887Y384765D01*
Y385765D01*
X204887Y386765D01*
X205886D01*
X204887D01*
X203887Y387764D01*
Y388764D01*
X204887Y389764D01*
X206886D01*
X207886Y388764D01*
X141142Y389764D02*
Y383766D01*
X139142Y385765D01*
X137143Y383766D01*
Y389764D01*
X135144Y383766D02*
X131145D01*
X133144D01*
Y389764D01*
X126147D02*
Y383766D01*
X129146Y386765D01*
X125147D01*
D25*
X347201Y94874D02*
D03*
Y64559D02*
D03*
D26*
X349874Y100358D02*
D03*
X349646Y108327D02*
D03*
X349874Y70043D02*
D03*
X349646Y78012D02*
D03*
D27*
X345209Y96744D02*
D03*
Y66429D02*
D03*
D28*
X349539Y99098D02*
D03*
X349311Y109587D02*
D03*
X349539Y68783D02*
D03*
X349311Y79272D02*
D03*
D29*
X349130Y97886D02*
D03*
X349130Y67571D02*
D03*
D30*
X348594Y96894D02*
D03*
X348366Y111791D02*
D03*
X348594Y66579D02*
D03*
X348366Y81476D02*
D03*
D31*
X347870Y95996D02*
D03*
Y65681D02*
D03*
D32*
X347201Y95346D02*
D03*
Y65032D02*
D03*
D33*
X346673Y114193D02*
D03*
Y83878D02*
D03*
D34*
X346949Y113543D02*
D03*
Y83228D02*
D03*
D35*
X347697Y112677D02*
D03*
Y82362D02*
D03*
D36*
X348917Y110807D02*
D03*
Y80492D02*
D03*
D37*
X345109Y103287D02*
D03*
Y72972D02*
D03*
D38*
X344980Y112047D02*
D03*
Y81732D02*
D03*
D39*
X349764Y100472D02*
D03*
Y70157D02*
D03*
D40*
X343543Y104606D02*
D03*
X343543Y74291D02*
D03*
M02*
