G04*
G04 #@! TF.GenerationSoftware,Altium Limited,Altium Designer,20.0.1 (14)*
G04*
G04 Layer_Color=8388736*
%FSLAX25Y25*%
%MOIN*%
G70*
G01*
G75*
%ADD17C,0.00787*%
%ADD50R,0.09055X0.02362*%
%ADD67R,0.06312X0.05918*%
%ADD68R,0.06800X0.04800*%
%ADD69R,0.08674X0.08674*%
%ADD70R,0.12611X0.04737*%
%ADD71R,0.04800X0.06800*%
%ADD72R,0.05524X0.08280*%
%ADD73O,0.07296X0.01902*%
%ADD74O,0.01902X0.07296*%
%ADD75O,0.06784X0.03162*%
%ADD76R,0.13398X0.09068*%
%ADD77R,0.04343X0.09068*%
%ADD78R,0.04540X0.04737*%
%ADD79O,0.02375X0.06509*%
%ADD80R,0.07808X0.13792*%
%ADD81O,0.07887X0.03162*%
%ADD82R,0.05918X0.06312*%
%ADD83R,0.06706X0.06410*%
%ADD84R,0.04737X0.04540*%
%ADD85R,0.05524X0.08280*%
G04:AMPARAMS|DCode=86|XSize=43.43mil|YSize=39.5mil|CornerRadius=7.94mil|HoleSize=0mil|Usage=FLASHONLY|Rotation=270.000|XOffset=0mil|YOffset=0mil|HoleType=Round|Shape=RoundedRectangle|*
%AMROUNDEDRECTD86*
21,1,0.04343,0.02362,0,0,270.0*
21,1,0.02756,0.03950,0,0,270.0*
1,1,0.01587,-0.01181,-0.01378*
1,1,0.01587,-0.01181,0.01378*
1,1,0.01587,0.01181,0.01378*
1,1,0.01587,0.01181,-0.01378*
%
%ADD86ROUNDEDRECTD86*%
G04:AMPARAMS|DCode=87|XSize=43.04mil|YSize=27.69mil|CornerRadius=6.46mil|HoleSize=0mil|Usage=FLASHONLY|Rotation=270.000|XOffset=0mil|YOffset=0mil|HoleType=Round|Shape=RoundedRectangle|*
%AMROUNDEDRECTD87*
21,1,0.04304,0.01476,0,0,270.0*
21,1,0.03012,0.02769,0,0,270.0*
1,1,0.01292,-0.00738,-0.01506*
1,1,0.01292,-0.00738,0.01506*
1,1,0.01292,0.00738,0.01506*
1,1,0.01292,0.00738,-0.01506*
%
%ADD87ROUNDEDRECTD87*%
G04:AMPARAMS|DCode=88|XSize=43.43mil|YSize=27.69mil|CornerRadius=6.46mil|HoleSize=0mil|Usage=FLASHONLY|Rotation=270.000|XOffset=0mil|YOffset=0mil|HoleType=Round|Shape=RoundedRectangle|*
%AMROUNDEDRECTD88*
21,1,0.04343,0.01476,0,0,270.0*
21,1,0.03051,0.02769,0,0,270.0*
1,1,0.01292,-0.00738,-0.01526*
1,1,0.01292,-0.00738,0.01526*
1,1,0.01292,0.00738,0.01526*
1,1,0.01292,0.00738,-0.01526*
%
%ADD88ROUNDEDRECTD88*%
%ADD89R,0.08670X0.03560*%
%ADD90R,0.04147X0.04147*%
%ADD91R,0.03560X0.08670*%
%ADD92R,0.06706X0.06706*%
%ADD93C,0.06706*%
%ADD94C,0.08040*%
%ADD95R,0.08040X0.08040*%
%ADD96R,0.06706X0.06706*%
%ADD97R,0.06312X0.06312*%
%ADD98C,0.06312*%
%ADD99O,0.20485X0.10642*%
%ADD100O,0.18517X0.09658*%
%ADD101O,0.09658X0.18517*%
%ADD102R,0.08674X0.08674*%
%ADD103C,0.08674*%
%ADD104O,0.07887X0.05524*%
%ADD105O,0.10642X0.16548*%
%ADD106C,0.03950*%
%ADD107C,0.03162*%
D17*
X525240Y370035D02*
D03*
X525240Y19012D02*
D03*
X36736Y22043D02*
D03*
Y370035D02*
D03*
D50*
X368327Y134035D02*
D03*
Y129035D02*
D03*
Y124035D02*
D03*
Y119035D02*
D03*
Y114035D02*
D03*
Y109035D02*
D03*
Y104035D02*
D03*
Y99035D02*
D03*
X409231D02*
D03*
Y104035D02*
D03*
Y109035D02*
D03*
Y114035D02*
D03*
X409230Y119016D02*
D03*
X409229Y124035D02*
D03*
Y129035D02*
D03*
Y134035D02*
D03*
D67*
X474409Y175512D02*
D03*
X466142D02*
D03*
D68*
X192362Y214583D02*
D03*
Y222583D02*
D03*
X187913Y177969D02*
D03*
Y185968D02*
D03*
X409252Y144425D02*
D03*
Y152425D02*
D03*
X399016Y144425D02*
D03*
Y152425D02*
D03*
X361221Y155055D02*
D03*
Y163055D02*
D03*
X269094Y92976D02*
D03*
Y84976D02*
D03*
X263583Y37465D02*
D03*
Y29465D02*
D03*
X455709Y174740D02*
D03*
Y182740D02*
D03*
X185551Y100567D02*
D03*
Y108567D02*
D03*
D69*
X375787Y68110D02*
D03*
Y51575D02*
D03*
D70*
X331339Y104409D02*
D03*
X353386D02*
D03*
X331339Y74094D02*
D03*
X353386D02*
D03*
D71*
X350134Y122835D02*
D03*
X358134D02*
D03*
X167583Y161102D02*
D03*
X159583D02*
D03*
X225291Y254764D02*
D03*
X233291D02*
D03*
X323606Y164134D02*
D03*
X315606D02*
D03*
X482543Y184252D02*
D03*
X474543D02*
D03*
X403803Y83858D02*
D03*
X395803D02*
D03*
X292622Y184882D02*
D03*
X284622D02*
D03*
X258882Y108976D02*
D03*
X250882D02*
D03*
X304437Y54673D02*
D03*
X312437D02*
D03*
X236402Y171142D02*
D03*
X228402D02*
D03*
X403803Y48425D02*
D03*
X395803D02*
D03*
X493961Y153543D02*
D03*
X485961D02*
D03*
X493961Y171653D02*
D03*
X485961D02*
D03*
X493961Y162598D02*
D03*
X485961D02*
D03*
X295535Y70866D02*
D03*
X287535D02*
D03*
Y61024D02*
D03*
X295535D02*
D03*
D72*
X311653Y126614D02*
D03*
X324252D02*
D03*
D73*
X204382Y236465D02*
D03*
Y234496D02*
D03*
Y232528D02*
D03*
Y230559D02*
D03*
Y228590D02*
D03*
Y226622D02*
D03*
Y224654D02*
D03*
Y222685D02*
D03*
Y220717D02*
D03*
Y218748D02*
D03*
Y216779D02*
D03*
Y214811D02*
D03*
Y212842D02*
D03*
Y210874D02*
D03*
Y208906D02*
D03*
Y206937D02*
D03*
Y204969D02*
D03*
Y203000D02*
D03*
Y201031D02*
D03*
Y199063D02*
D03*
Y197095D02*
D03*
Y195126D02*
D03*
Y193157D02*
D03*
Y191189D02*
D03*
Y189220D02*
D03*
X264224D02*
D03*
Y191189D02*
D03*
Y193157D02*
D03*
Y195126D02*
D03*
Y197095D02*
D03*
Y199063D02*
D03*
Y201031D02*
D03*
Y203000D02*
D03*
Y204969D02*
D03*
Y206937D02*
D03*
Y208906D02*
D03*
Y210874D02*
D03*
Y212842D02*
D03*
Y214811D02*
D03*
Y216779D02*
D03*
Y218748D02*
D03*
Y220717D02*
D03*
Y222685D02*
D03*
Y224654D02*
D03*
Y226622D02*
D03*
Y228590D02*
D03*
Y230559D02*
D03*
Y232528D02*
D03*
Y234496D02*
D03*
Y236465D02*
D03*
D74*
X210681Y182921D02*
D03*
X212650D02*
D03*
X214618D02*
D03*
X216587D02*
D03*
X218555D02*
D03*
X220524D02*
D03*
X222492D02*
D03*
X224461D02*
D03*
X226429D02*
D03*
X228398D02*
D03*
X230366D02*
D03*
X232335D02*
D03*
X234303D02*
D03*
X236272D02*
D03*
X238240D02*
D03*
X240209D02*
D03*
X242177D02*
D03*
X244146D02*
D03*
X246114D02*
D03*
X248083D02*
D03*
X250051D02*
D03*
X252020D02*
D03*
X253988D02*
D03*
X255957D02*
D03*
X257925D02*
D03*
Y242764D02*
D03*
X255957D02*
D03*
X253988D02*
D03*
X252020D02*
D03*
X250051D02*
D03*
X248083D02*
D03*
X246114D02*
D03*
X244146D02*
D03*
X242177D02*
D03*
X240209D02*
D03*
X238240D02*
D03*
X236272D02*
D03*
X234303D02*
D03*
X232335D02*
D03*
X230366D02*
D03*
X228398D02*
D03*
X226429D02*
D03*
X224461D02*
D03*
X222492D02*
D03*
X220524D02*
D03*
X218555D02*
D03*
X216587D02*
D03*
X214618D02*
D03*
X212650D02*
D03*
X210681D02*
D03*
D75*
X455787Y167874D02*
D03*
X477362D02*
D03*
Y162874D02*
D03*
Y157874D02*
D03*
Y152874D02*
D03*
X455787D02*
D03*
Y157874D02*
D03*
Y162874D02*
D03*
D76*
X341835Y143404D02*
D03*
X304524Y21853D02*
D03*
D77*
X332780Y165845D02*
D03*
X341835D02*
D03*
X350891D02*
D03*
X313580Y44294D02*
D03*
X304524D02*
D03*
X295469D02*
D03*
D78*
X361464Y186595D02*
D03*
X353984Y186595D02*
D03*
X357724Y177737D02*
D03*
X322882Y186595D02*
D03*
X315401Y186595D02*
D03*
X319141Y177737D02*
D03*
X275657Y29430D02*
D03*
X271917Y38288D02*
D03*
X279397Y38288D02*
D03*
D79*
X280512Y79921D02*
D03*
Y97244D02*
D03*
X283071D02*
D03*
X285630D02*
D03*
X288189D02*
D03*
Y79921D02*
D03*
X285630D02*
D03*
X283071D02*
D03*
D80*
X263622Y16142D02*
D03*
X245472D02*
D03*
D81*
X235524Y99968D02*
D03*
Y94968D02*
D03*
Y89969D02*
D03*
Y84969D02*
D03*
Y79969D02*
D03*
Y74968D02*
D03*
Y69968D02*
D03*
Y64969D02*
D03*
X258925D02*
D03*
Y69968D02*
D03*
Y74968D02*
D03*
Y79969D02*
D03*
Y84969D02*
D03*
Y89969D02*
D03*
Y94968D02*
D03*
Y99968D02*
D03*
D82*
X224252Y110748D02*
D03*
Y102480D02*
D03*
X175079Y102449D02*
D03*
Y110717D02*
D03*
X215512Y102480D02*
D03*
Y110748D02*
D03*
D83*
X281575Y120984D02*
D03*
Y138701D02*
D03*
Y129842D02*
D03*
X248504Y120984D02*
D03*
Y138701D02*
D03*
D84*
X404743Y71700D02*
D03*
X395885Y67960D02*
D03*
X395885Y75441D02*
D03*
X404528Y35827D02*
D03*
X395669Y32087D02*
D03*
X395669Y39567D02*
D03*
D85*
X407677Y60236D02*
D03*
X393079D02*
D03*
X408102Y23228D02*
D03*
X393504D02*
D03*
D86*
X331496Y184890D02*
D03*
Y178890D02*
D03*
X342126Y184890D02*
D03*
Y178890D02*
D03*
X304646Y110323D02*
D03*
Y104323D02*
D03*
X315276Y110323D02*
D03*
Y104323D02*
D03*
X205827Y102512D02*
D03*
Y108512D02*
D03*
X195197Y102512D02*
D03*
Y108512D02*
D03*
D87*
X335236Y184890D02*
D03*
Y178890D02*
D03*
X308386Y110323D02*
D03*
Y104323D02*
D03*
X202087Y102512D02*
D03*
Y108512D02*
D03*
D88*
X338386Y184890D02*
D03*
Y178890D02*
D03*
X311535Y110323D02*
D03*
Y104323D02*
D03*
X198937Y102512D02*
D03*
Y108512D02*
D03*
D89*
X221961Y69949D02*
D03*
Y66047D02*
D03*
Y62146D02*
D03*
D90*
X311595Y134409D02*
D03*
X317697D02*
D03*
D91*
X284744Y195520D02*
D03*
X288646D02*
D03*
X292547D02*
D03*
D92*
X255787Y152598D02*
D03*
X322165Y203543D02*
D03*
X142047Y373248D02*
D03*
X221575D02*
D03*
X300315D02*
D03*
X379055D02*
D03*
X444961Y372284D02*
D03*
X473425D02*
D03*
X285394Y174803D02*
D03*
D93*
X255787Y162598D02*
D03*
X265787Y152598D02*
D03*
Y162598D02*
D03*
X275787Y152598D02*
D03*
Y162598D02*
D03*
X322165Y213543D02*
D03*
X332165Y203543D02*
D03*
Y213543D02*
D03*
X342165Y203543D02*
D03*
Y213543D02*
D03*
X352165Y203543D02*
D03*
Y213543D02*
D03*
X518307Y170236D02*
D03*
X142047Y363248D02*
D03*
X132047Y373248D02*
D03*
Y363248D02*
D03*
X122047Y373248D02*
D03*
Y363248D02*
D03*
X221575D02*
D03*
X211575Y373248D02*
D03*
Y363248D02*
D03*
X201575Y373248D02*
D03*
Y363248D02*
D03*
X300315D02*
D03*
X290315Y373248D02*
D03*
Y363248D02*
D03*
X280315Y373248D02*
D03*
Y363248D02*
D03*
X379055D02*
D03*
X369055Y373248D02*
D03*
Y363248D02*
D03*
X359055Y373248D02*
D03*
Y363248D02*
D03*
X424961Y372284D02*
D03*
X434961D02*
D03*
X493425D02*
D03*
X483425D02*
D03*
X518032Y331260D02*
D03*
Y321260D02*
D03*
Y311260D02*
D03*
Y273268D02*
D03*
Y263268D02*
D03*
Y253268D02*
D03*
Y217165D02*
D03*
Y207165D02*
D03*
Y197165D02*
D03*
X275394Y174803D02*
D03*
X145827Y151142D02*
D03*
Y161142D02*
D03*
Y171142D02*
D03*
Y181142D02*
D03*
Y191142D02*
D03*
Y201142D02*
D03*
Y211142D02*
D03*
Y221142D02*
D03*
Y231142D02*
D03*
Y241142D02*
D03*
Y251142D02*
D03*
Y261142D02*
D03*
Y271142D02*
D03*
Y281142D02*
D03*
Y291142D02*
D03*
D94*
X519095Y49213D02*
D03*
X519095Y108543D02*
D03*
D95*
X519095Y68898D02*
D03*
X519095Y128228D02*
D03*
D96*
X518307Y160236D02*
D03*
X518032Y341260D02*
D03*
Y283268D02*
D03*
Y227165D02*
D03*
X145827Y301142D02*
D03*
D97*
X181535Y270984D02*
D03*
X434449Y175118D02*
D03*
D98*
X171535Y280984D02*
D03*
X181535Y290984D02*
D03*
X444449Y165118D02*
D03*
X434449Y155118D02*
D03*
D99*
X342724Y44591D02*
D03*
D100*
Y20968D02*
D03*
D101*
X361228Y32779D02*
D03*
D102*
X434842Y137795D02*
D03*
Y66535D02*
D03*
D103*
X426968Y114173D02*
D03*
X434842Y90551D02*
D03*
X482874D02*
D03*
Y137795D02*
D03*
X426968Y42913D02*
D03*
X434842Y19291D02*
D03*
X482874D02*
D03*
Y66535D02*
D03*
D104*
X197224Y39961D02*
D03*
X207224D02*
D03*
Y47835D02*
D03*
X197224D02*
D03*
D105*
X226165Y29689D02*
D03*
X178724D02*
D03*
D106*
X414173Y192126D02*
D03*
X160827Y271260D02*
D03*
X182087Y260236D02*
D03*
X376181Y144488D02*
D03*
X334842Y133071D02*
D03*
X276575Y295276D02*
D03*
X269882Y288976D02*
D03*
X262795Y282283D02*
D03*
X255315Y275197D02*
D03*
X194291Y351575D02*
D03*
X180905Y351181D02*
D03*
X166732D02*
D03*
X154528D02*
D03*
X142717D02*
D03*
X200984Y177953D02*
D03*
X189961Y170472D02*
D03*
X184055Y205512D02*
D03*
X264764Y242913D02*
D03*
X249803Y202362D02*
D03*
X297441Y156299D02*
D03*
X288386Y162992D02*
D03*
X289567Y125984D02*
D03*
X268701Y74016D02*
D03*
X415551Y55118D02*
D03*
X287205Y47244D02*
D03*
X254134Y35039D02*
D03*
X316764Y9000D02*
D03*
Y18000D02*
D03*
Y26000D02*
D03*
Y34000D02*
D03*
X306764D02*
D03*
X298764D02*
D03*
X287945Y9000D02*
D03*
Y18000D02*
D03*
Y26000D02*
D03*
Y34000D02*
D03*
X212764Y63000D02*
D03*
X238764Y57000D02*
D03*
X253764Y46000D02*
D03*
X268764Y58000D02*
D03*
X308858Y75197D02*
D03*
X364764Y83000D02*
D03*
X379764Y86000D02*
D03*
X376772Y24016D02*
D03*
X412764Y90000D02*
D03*
X399764Y115000D02*
D03*
X391764Y106000D02*
D03*
X399764D02*
D03*
X396764Y98000D02*
D03*
X388764D02*
D03*
X381764D02*
D03*
X464764Y165819D02*
D03*
Y160819D02*
D03*
X469764D02*
D03*
Y165819D02*
D03*
X448764Y149000D02*
D03*
X400984Y168898D02*
D03*
X502764Y178000D02*
D03*
X458764Y60000D02*
D03*
X465764D02*
D03*
Y46000D02*
D03*
X458764D02*
D03*
Y31000D02*
D03*
X465764D02*
D03*
Y103000D02*
D03*
X458764D02*
D03*
Y118000D02*
D03*
X465764D02*
D03*
Y132000D02*
D03*
X458764D02*
D03*
X504764Y147937D02*
D03*
X151764Y86000D02*
D03*
X145764D02*
D03*
X139764D02*
D03*
Y79000D02*
D03*
X145764D02*
D03*
X151764D02*
D03*
Y72000D02*
D03*
X145764D02*
D03*
X139764D02*
D03*
Y65000D02*
D03*
X145764D02*
D03*
X151764D02*
D03*
X139764Y58000D02*
D03*
X145764D02*
D03*
X151764D02*
D03*
Y131000D02*
D03*
X145764D02*
D03*
X139764D02*
D03*
Y124000D02*
D03*
X145764D02*
D03*
X151764D02*
D03*
Y117000D02*
D03*
X145764D02*
D03*
X139764D02*
D03*
Y110000D02*
D03*
X145764D02*
D03*
X151764D02*
D03*
X139764Y103000D02*
D03*
X145764D02*
D03*
X151764D02*
D03*
X227756Y266535D02*
D03*
X228764Y301000D02*
D03*
X397764Y280000D02*
D03*
X380764D02*
D03*
X365764D02*
D03*
X351764D02*
D03*
X337764D02*
D03*
X324764D02*
D03*
X310827Y279921D02*
D03*
X308575Y268504D02*
D03*
X317575D02*
D03*
X326575D02*
D03*
X335575D02*
D03*
X345575D02*
D03*
X356575D02*
D03*
X367575D02*
D03*
X378575D02*
D03*
X388575D02*
D03*
X497402Y353583D02*
D03*
Y345583D02*
D03*
Y338583D02*
D03*
X490402D02*
D03*
Y345583D02*
D03*
Y353583D02*
D03*
X185764Y305000D02*
D03*
X191764D02*
D03*
X197764D02*
D03*
Y312000D02*
D03*
X191764D02*
D03*
X185764D02*
D03*
Y319000D02*
D03*
X191764D02*
D03*
X197764D02*
D03*
Y326000D02*
D03*
X191764D02*
D03*
X185764D02*
D03*
X197764Y333000D02*
D03*
X191764D02*
D03*
X185764D02*
D03*
X116764D02*
D03*
Y327000D02*
D03*
Y321000D02*
D03*
X123764D02*
D03*
Y327000D02*
D03*
Y333000D02*
D03*
X130764D02*
D03*
Y327000D02*
D03*
Y321000D02*
D03*
X137764D02*
D03*
Y327000D02*
D03*
Y333000D02*
D03*
X144764Y321000D02*
D03*
Y327000D02*
D03*
Y333000D02*
D03*
X150764D02*
D03*
Y327000D02*
D03*
Y321000D02*
D03*
X157764D02*
D03*
Y327000D02*
D03*
Y333000D02*
D03*
X164764D02*
D03*
Y327000D02*
D03*
Y321000D02*
D03*
X171764D02*
D03*
Y327000D02*
D03*
Y333000D02*
D03*
X178764Y321000D02*
D03*
Y327000D02*
D03*
Y333000D02*
D03*
X225087Y340945D02*
D03*
Y346945D02*
D03*
Y352945D02*
D03*
X232087D02*
D03*
Y346945D02*
D03*
Y340945D02*
D03*
X239087D02*
D03*
Y346945D02*
D03*
Y352945D02*
D03*
X304307Y349000D02*
D03*
Y343000D02*
D03*
Y337000D02*
D03*
X311307D02*
D03*
Y343000D02*
D03*
Y349000D02*
D03*
X318307D02*
D03*
Y343000D02*
D03*
Y337000D02*
D03*
X325307Y343000D02*
D03*
Y349000D02*
D03*
X332307D02*
D03*
X390764Y347000D02*
D03*
Y341000D02*
D03*
Y335000D02*
D03*
X397764D02*
D03*
Y341000D02*
D03*
Y347000D02*
D03*
X404764D02*
D03*
Y341000D02*
D03*
Y335000D02*
D03*
X411764D02*
D03*
Y341000D02*
D03*
Y347000D02*
D03*
X418764Y335000D02*
D03*
Y341000D02*
D03*
Y347000D02*
D03*
X480764Y251000D02*
D03*
X474764D02*
D03*
X468764D02*
D03*
Y244000D02*
D03*
X474764D02*
D03*
X480764D02*
D03*
Y237000D02*
D03*
X474764D02*
D03*
X468764D02*
D03*
Y230000D02*
D03*
X474764D02*
D03*
X480764D02*
D03*
X468764Y223000D02*
D03*
X474764D02*
D03*
X480764D02*
D03*
X481764Y279000D02*
D03*
X475764D02*
D03*
X469764D02*
D03*
X481764Y286000D02*
D03*
X475764D02*
D03*
X469764D02*
D03*
Y293000D02*
D03*
X475764D02*
D03*
X481764D02*
D03*
Y300000D02*
D03*
X475764D02*
D03*
X469764D02*
D03*
Y307000D02*
D03*
X475764D02*
D03*
X481764D02*
D03*
X275472Y107717D02*
D03*
X161575Y221654D02*
D03*
X185472Y245354D02*
D03*
X164961Y173228D02*
D03*
X203543Y141732D02*
D03*
X221063Y173661D02*
D03*
X236417Y121260D02*
D03*
X228346Y149213D02*
D03*
X226614Y191772D02*
D03*
X277244Y198701D02*
D03*
X267520Y181890D02*
D03*
X256102Y190157D02*
D03*
X229331Y234646D02*
D03*
X204134Y241732D02*
D03*
D107*
X241378Y202480D02*
D03*
X238146Y197744D02*
D03*
X235378Y202480D02*
D03*
X199764Y96732D02*
D03*
X215512Y116417D02*
D03*
X195236Y96850D02*
D03*
X230866Y110827D02*
D03*
X255315Y198110D02*
D03*
X310039Y171378D02*
D03*
X465000Y181929D02*
D03*
X244055Y197835D02*
D03*
X195590Y165827D02*
D03*
X228386Y162598D02*
D03*
X191890Y202913D02*
D03*
X194055Y195276D02*
D03*
X191969Y198622D02*
D03*
X409449Y48465D02*
D03*
X403819Y90354D02*
D03*
X293779Y223583D02*
D03*
X302638Y116654D02*
D03*
X308465Y116535D02*
D03*
X323661Y136850D02*
D03*
Y156811D02*
D03*
X300551Y141654D02*
D03*
X297323Y99409D02*
D03*
X280118Y230236D02*
D03*
X280197Y220551D02*
D03*
X305394Y210630D02*
D03*
X276850Y226496D02*
D03*
X252126Y209685D02*
D03*
X250512Y213150D02*
D03*
X216469Y197744D02*
D03*
X222547D02*
D03*
X219858Y202480D02*
D03*
X213858D02*
D03*
X449488Y157835D02*
D03*
X309724Y177717D02*
D03*
X335669Y193307D02*
D03*
X394016Y129055D02*
D03*
X250039Y173622D02*
D03*
X348622Y177953D02*
D03*
X399409Y134134D02*
D03*
X375787Y43307D02*
D03*
X387205Y12598D02*
D03*
M02*
