M48
;Layer_Color=9474304
;FILE_FORMAT=2:5
INCH,TZ
;TYPE=PLATED
T1F00S00C0.01181
T2F00S00C0.01575
T3F00S00C0.03150
T4F00S00C0.03543
T5F00S00C0.03740
T8F00S00C0.05000
;TYPE=NON_PLATED
T10F00S00C0.11811
%
T01
X387205Y12598
X375787Y43307
X409449Y48465
X403819Y90354
X399409Y134134
X394016Y129055
X449488Y157835
X465000Y181929
X348622Y177953
X335669Y193307
X309724Y177717
X310039Y171378
X323661Y156811
Y136850
X300551Y141654
X302638Y116654
X308465Y116535
X297323Y99409
X230866Y110827
X215512Y116417
X199764Y96732
X195236Y96850
X195590Y165827
X194055Y195276
X191969Y198622
X191890Y202913
X213858Y202480
X219858
X222547Y197744
X216469
X238146
X244055Y197835
X241378Y202480
X235378
X252126Y209685
X255315Y198110
X250039Y173622
X228386Y162598
X305394Y210630
X293779Y223583
X280197Y220551
X276850Y226496
X280118Y230236
X250512Y213150
T02
X254134Y35039
X253764Y46000
X287205Y47244
X287945Y34000
Y26000
Y18000
Y9000
X316764
Y18000
Y26000
Y34000
X306764
X298764
X376772Y24016
X415551Y55118
X458764Y46000
X465764
Y31000
X458764
X504764Y147937
X502764Y178000
X469764Y165819
X464764
Y160819
X469764
X448764Y149000
X458764Y132000
X465764
Y118000
X458764
Y103000
X465764
Y60000
X458764
X412764Y90000
X396764Y98000
X388764
X381764
X379764Y86000
X364764Y83000
X391764Y106000
X399764
Y115000
X376181Y144488
X400984Y168898
X414173Y192126
X334842Y133071
X289567Y125984
X275472Y107717
X268701Y74016
X268764Y58000
X238764Y57000
X212764Y63000
X236417Y121260
X228346Y149213
X221063Y173661
X226614Y191772
X256102Y190157
X249803Y202362
X277244Y198701
X267520Y181890
X288386Y162992
X297441Y156299
X308858Y75197
X203543Y141732
X200984Y177953
X189961Y170472
X184055Y205512
X164961Y173228
X151764Y131000
X145764
X139764
Y124000
X145764
X151764
Y117000
X145764
X139764
Y110000
X145764
X151764
Y103000
X145764
X139764
Y86000
X145764
X151764
Y79000
X145764
X139764
Y72000
X145764
X151764
Y65000
X145764
X139764
Y58000
X145764
X151764
X161575Y221654
X160827Y271260
X157764Y321000
Y327000
Y333000
X150764
X144764
Y327000
Y321000
X150764
Y327000
X137764
Y321000
X130764
Y327000
Y333000
X123764
Y327000
Y321000
X116764
Y327000
Y333000
X137764
X142717Y351181
X154528
X166732
X164764Y333000
Y327000
Y321000
X171764
Y327000
Y333000
X178764
Y327000
Y321000
X185764Y319000
X191764
X197764
Y312000
X191764
X185764
Y305000
X191764
X197764
Y326000
X191764
X185764
Y333000
X191764
X197764
X194291Y351575
X180905Y351181
X225087Y352945
Y346945
Y340945
X232087
Y346945
Y352945
X239087
Y346945
Y340945
X228764Y301000
X227756Y266535
X229331Y234646
X204134Y241732
X185472Y245354
X182087Y260236
X255315Y275197
X262795Y282283
X269882Y288976
X276575Y295276
X310827Y279921
X308575Y268504
X317575
X326575
X324764Y280000
X318307Y337000
Y343000
Y349000
X311307
Y343000
Y337000
X304307
Y343000
Y349000
X325307
Y343000
X332307Y349000
X264764Y242913
X335575Y268504
X345575
X356575
X367575
X378575
X388575
X380764Y280000
X365764
X351764
X337764
X397764
Y335000
Y341000
Y347000
X390764
Y341000
Y335000
X404764
Y341000
Y347000
X411764
Y341000
Y335000
X418764
Y341000
Y347000
X469764Y307000
X475764
X481764
Y300000
X475764
X469764
Y293000
X475764
X481764
Y286000
X475764
X469764
Y279000
X475764
X481764
X480764Y251000
X474764
X468764
Y244000
X474764
X480764
Y237000
X474764
X468764
Y230000
X474764
X480764
Y223000
X474764
X468764
X490402Y338583
X497402
Y345583
X490402
Y353583
X497402
T03
X434449Y155118
Y175118
X444449Y165118
X171535Y280984
X181535Y270984
Y290984
T04
X518307Y160236
Y170236
X518032Y197165
Y207165
X352165Y203543
X342165
X332165
X322165
X285394Y174803
X275394
X275787Y162598
X265787
X255787
Y152598
X265787
X275787
X145827Y151142
Y161142
Y171142
Y181142
Y191142
Y201142
Y211142
Y221142
Y231142
Y241142
Y251142
Y261142
Y271142
Y281142
Y291142
Y301142
X142047Y363248
X132047
X122047
X201575
X211575
X221575
X280315
X290315
X300315
X322165Y213543
X332165
X342165
X352165
X359055Y363248
X369055
X379055
X518032Y341260
Y331260
Y321260
Y311260
Y283268
Y273268
Y263268
Y253268
Y227165
Y217165
X493425Y372284
X483425
X473425
X444961
X434961
X424961
X379055Y373248
X369055
X359055
X300315
X290315
X280315
X221575
X211575
X201575
X142047
X132047
X122047
T05
X434842Y19291
X426968Y42913
X482874Y19291
Y66535
Y90551
Y137795
X434842
X426968Y114173
X434842Y90551
Y66535
T08
X519095Y49213
Y68898
X519095Y108543
Y128228
T10
X36736Y22043
X525240Y19012
X525240Y370035
X36736
M30
